<svg xmlns="http://www.w3.org/2000/svg" viewBox="0 0 187.95 187.72"><defs><style>.cls-1{isolation:isolate;}.cls-2{fill:#ffb6c3;}.cls-3,.cls-5{fill:#ffc46e;}.cls-4{fill:#ffe6c2;}.cls-12,.cls-5,.cls-9{opacity:0.5;}.cls-5,.cls-9{mix-blend-mode:multiply;}.cls-6{fill:#5b1a1a;}.cls-7,.cls-9{fill:#8a312d;}.cls-8{fill:#af4545;}.cls-10{fill:#ff8285;}.cls-11{fill:#fff;}.cls-12{mix-blend-mode:overlay;}</style></defs><g class="cls-1"><g id="Layer_2" data-name="Layer 2"><g id="OBJECTS"><path class="cls-2" d="M91.8,0C59.13-1.2-14.39,29.51,2.48,112.36s103.28,83.91,151.9,51.93C208.66,128.6,203.42,4.25,91.8,0Z"/><path class="cls-3" d="M114.31,146.15H70.62c-21.84,2-32,26.65-32,26.65C55.79,188,92.47,187.72,92.47,187.72s36.67.32,53.8-14.92C146.27,172.8,136.15,148.16,114.31,146.15Z"/><path class="cls-4" d="M108.64,157.32c-1.55-2.91-1.15-7.28-.4-10.82H76.69c.75,3.54,1.15,7.91-.4,10.82-2.77,5.21-13.37,12.39-13.49,26.79a135.06,135.06,0,0,0,29.67,3.61,135,135,0,0,0,29.66-3.61C122,169.71,111.41,162.53,108.64,157.32Z"/><path class="cls-5" d="M92.47,174.11s26.34-.81,48.17-11.06c-5.11-7.13-13.78-15.74-26.33-16.9H70.62c-12.54,1.16-21.22,9.77-26.33,16.9C66.13,173.3,92.47,174.11,92.47,174.11Z"/><path class="cls-6" d="M147,172.55a51.23,51.23,0,0,0-13.52-18.63,34.46,34.46,0,0,0-17-8.3c-3.67-.58-7.54,0-11.22.26-4.18.24-8.37.61-12.55.73-3,.08-6.07-.33-9-.5-4.23-.25-8.49-.67-12.73-.74a23,23,0,0,0-7.49,1.5,34.2,34.2,0,0,0-8.47,4.32A50.76,50.76,0,0,0,38.15,172c-.09.19-.17.39-.25.58-.37.9,1.08,1.28,1.45.4l.15-.33c.2-.45.41-.89.62-1.32.74-1.5,1.56-3,2.43-4.38A51.09,51.09,0,0,1,52.48,155a32.58,32.58,0,0,1,17.29-8,18.84,18.84,0,0,1,3.52.07l7,.4c4,.23,8,.6,11.93.7,2.83.06,5.74-.31,8.57-.48l12.91-.75a19.5,19.5,0,0,1,6.66,1.2,32.2,32.2,0,0,1,8.49,4.16c7.25,4.92,12.92,12.43,16.54,20.38.06.14.26.6.15.33.36.88,1.81.5,1.44-.4Z"/><path class="cls-7" d="M170.83,58.79c-10-31.92-47.71-46-78.36-48.12-30.65,2.1-68.35,16.2-78.37,48.12C3.83,91.53,7.5,123.26,24.35,143.48c20.14,24.16,68.12,25.63,68.12,25.63s48-1.47,68.11-25.63C177.44,123.26,181.11,91.53,170.83,58.79Z"/><path class="cls-6" d="M73.58,13.64c3.83,10.1,5.46,20.55,6.71,31.23.06.52.88.53.82,0-1.21-10.56-2.22-21.81-7.35-31.31-.05-.1-.23,0-.18.08Z"/><path class="cls-6" d="M57,19A98,98,0,0,1,72.34,47c.17.51,1,.3.81-.22A75.27,75.27,0,0,0,57.05,19S57,19,57,19Z"/><path class="cls-6" d="M42.33,25.49c3.58,4.11,7.24,8.16,10.45,12.58a107,107,0,0,1,8.43,13.61c.28.54,1.1.06.82-.48C57.1,41.71,50.68,32.3,42.41,25.42c-.06-.05-.13,0-.08.07Z"/><path class="cls-6" d="M27.94,37.59a68.64,68.64,0,0,1,6.65,5q1.52,1.28,2.94,2.67c1,1,1.86,2.1,2.88,3,.32.29.9-.1.63-.48a21.76,21.76,0,0,0-2.8-3Q36.68,43.36,35,42a40.68,40.68,0,0,0-7-4.47s-.06,0,0,.05Z"/><path class="cls-6" d="M15.74,54.47A154.14,154.14,0,0,1,29,62.75,117.57,117.57,0,0,1,41.15,73.13a.44.44,0,0,0,.62-.62A79.16,79.16,0,0,0,29.63,62.13,68.31,68.31,0,0,0,15.81,54.3c-.1,0-.16.12-.07.17Z"/><path class="cls-6" d="M10.65,74.62A138.88,138.88,0,0,1,24.08,78.3q3.34,1.17,6.57,2.64c2.18,1,4.24,2.23,6.4,3.29a.43.43,0,0,0,.43-.74,56.85,56.85,0,0,0-12.95-6,52.77,52.77,0,0,0-13.85-3.06.09.09,0,0,0,0,.18Z"/><path class="cls-6" d="M8.77,94.67c4.49.43,9,.86,13.48,1.49s8.62,1.67,13,2.4a.36.36,0,0,0,.19-.69A79.93,79.93,0,0,0,22,95.25a82.63,82.63,0,0,0-13.24-.83c-.16,0-.15.23,0,.25Z"/><path class="cls-6" d="M10.51,112c4.14-.51,8.31-1,12.47-1.39s8.38-.24,12.57-.5a.57.57,0,0,0,0-1.13,79.77,79.77,0,0,0-12.82.72,86.07,86.07,0,0,0-12.24,2.12c-.1,0-.08.19,0,.18Z"/><path class="cls-6" d="M17.34,132.29c3.27-1.95,6.49-3.94,9.89-5.66s7-3,10.45-4.58c.44-.19.13-.91-.32-.77A63.41,63.41,0,0,0,27,125.89,69.33,69.33,0,0,0,17.14,132c-.19.14,0,.47.2.33Z"/><path class="cls-6" d="M33.3,151.23a48.58,48.58,0,0,1,15.8-13.76c.67-.36.06-1.41-.6-1A46.76,46.76,0,0,0,32.84,151c-.2.29.26.53.46.26Z"/><path class="cls-6" d="M52.84,160.59a59.71,59.71,0,0,1,5.23-7.87,60.3,60.3,0,0,1,6.61-6.57c.4-.35-.13-1.07-.58-.75a38.75,38.75,0,0,0-11.7,14.94.25.25,0,0,0,.44.25Z"/><path class="cls-6" d="M71.28,166a42.83,42.83,0,0,1,3.26-9.77,45.94,45.94,0,0,1,5.67-8.59c.38-.48-.25-1.15-.69-.69a34.85,34.85,0,0,0-5.73,8.84,36.8,36.8,0,0,0-3.11,10c-.06.39.51.57.6.17Z"/><path class="cls-6" d="M111.17,13.56c-5.13,9.5-6.14,20.75-7.35,31.31-.06.53.77.52.83,0,1.24-10.68,2.87-21.13,6.71-31.23,0-.11-.14-.18-.19-.08Z"/><path class="cls-6" d="M127.88,19a75.27,75.27,0,0,0-16.1,27.86c-.17.52.64.74.82.22A97.72,97.72,0,0,1,128,19s0-.09-.07-.05Z"/><path class="cls-6" d="M142.52,25.42c-8.27,6.88-14.69,16.29-19.62,25.78-.28.54.54,1,.83.48a105.85,105.85,0,0,1,8.42-13.61c3.21-4.42,6.87-8.47,10.45-12.58.05,0,0-.12-.08-.07Z"/><path class="cls-6" d="M157,37.54a41.06,41.06,0,0,0-7,4.47c-1.08.88-2.14,1.8-3.15,2.76a23.66,23.66,0,0,0-2.88,3c-.27.38.31.77.63.48,1-.92,1.84-2,2.81-3s2-1.87,3-2.75a68.64,68.64,0,0,1,6.65-5s0-.07,0-.05Z"/><path class="cls-6" d="M169.12,54.3a68.31,68.31,0,0,0-13.82,7.83,79.08,79.08,0,0,0-12.13,10.38.44.44,0,0,0,.61.62,118.64,118.64,0,0,1,12.13-10.38,154.14,154.14,0,0,1,13.28-8.28c.09,0,0-.21-.07-.17Z"/><path class="cls-6" d="M174.26,74.44A52.75,52.75,0,0,0,160.4,77.5a57,57,0,0,0-13,6,.43.43,0,0,0,.43.74c2.16-1.06,4.22-2.29,6.41-3.29s4.33-1.86,6.56-2.64a138.88,138.88,0,0,1,13.43-3.68c.1,0,.08-.19,0-.18Z"/><path class="cls-6" d="M176.16,94.42a82.7,82.7,0,0,0-13.24.83,79.93,79.93,0,0,0-13.38,2.62.36.36,0,0,0,.19.69c4.33-.73,8.59-1.79,13-2.4s9-1.06,13.48-1.49c.15,0,.16-.25,0-.25Z"/><path class="cls-6" d="M174.44,111.83a86.07,86.07,0,0,0-12.24-2.12,79.77,79.77,0,0,0-12.82-.72.57.57,0,0,0,0,1.13c4.19.26,8.39.15,12.58.5s8.32.88,12.46,1.39c.1,0,.12-.16,0-.18Z"/><path class="cls-6" d="M167.79,132a69.33,69.33,0,0,0-9.87-6.07,63.69,63.69,0,0,0-10.34-4.61c-.45-.14-.77.58-.33.77,3.49,1.54,7,2.86,10.45,4.58s6.63,3.71,9.89,5.66c.23.14.4-.19.2-.33Z"/><path class="cls-6" d="M152.1,151a46.88,46.88,0,0,0-15.67-14.53c-.66-.38-1.27.67-.6,1a48.72,48.72,0,0,1,15.81,13.76c.2.27.65,0,.46-.26Z"/><path class="cls-6" d="M132.53,160.34a38.75,38.75,0,0,0-11.7-14.94c-.44-.32-1,.39-.58.75a60.3,60.3,0,0,1,6.61,6.57,60.79,60.79,0,0,1,5.24,7.87c.16.28.56,0,.43-.25Z"/><path class="cls-6" d="M114.25,165.81a36.12,36.12,0,0,0-3.11-10,34.85,34.85,0,0,0-5.73-8.84c-.43-.46-1.07.21-.69.69a45.94,45.94,0,0,1,5.67,8.59,42.83,42.83,0,0,1,3.26,9.77c.09.4.66.22.6-.17Z"/><path class="cls-6" d="M92.26,11.18c-.2,5.54-.38,11.07-.42,16.61,0,2.73-.06,5.46-.06,8.19A51.47,51.47,0,0,0,91.89,44a.44.44,0,0,0,.84,0,50.75,50.75,0,0,0,.12-7.8c0-2.82,0-5.63-.06-8.44-.05-5.54-.23-11.07-.43-16.61,0-.06-.09-.06-.1,0Z"/><path class="cls-6" d="M92.48,168.91c.24-6.95.22-13.91.27-20.87a.44.44,0,0,0-.88,0c0,7,0,13.92.27,20.87a.17.17,0,0,0,.34,0Z"/><path class="cls-8" d="M71.84,21.37q1.22,3.11,2.2,6.29c.33,1,.62,2.09.9,3.15a15.8,15.8,0,0,0,.92,3.1.28.28,0,0,0,.52-.14,11.63,11.63,0,0,0-.73-3.28c-.32-1-.66-2.09-1-3.12a59,59,0,0,0-2.57-6.09c0-.11-.26,0-.21.09Z"/><path class="cls-8" d="M59.41,37.6c.93,1.18,1.78,2.42,2.62,3.67s1.58,2.51,2.44,3.71a.24.24,0,0,0,.42-.25,21,21,0,0,0-2.34-3.92,39.86,39.86,0,0,0-2.87-3.48c-.17-.18-.42.08-.27.27Z"/><path class="cls-8" d="M28.78,26.33A54.19,54.19,0,0,1,35,30.74a69.83,69.83,0,0,1,5.45,5.15c.3.31.72-.14.47-.46A35.06,35.06,0,0,0,29,26a.17.17,0,0,0-.17.29Z"/><path class="cls-8" d="M29.7,31.76A33,33,0,0,1,33.85,35c1.29,1.16,2.43,2.45,3.65,3.68.27.27.77-.09.54-.42a19.85,19.85,0,0,0-3.71-3.84,31.36,31.36,0,0,0-4.39-3,.23.23,0,0,0-.24.4Z"/><path class="cls-8" d="M17.13,72.22a45.42,45.42,0,0,1,7.75,2.14c2.58,1,4.93,2.37,7.45,3.49.24.11.56-.2.31-.4a23.69,23.69,0,0,0-7.31-3.71,35.73,35.73,0,0,0-8.16-1.84c-.18,0-.23.29,0,.32Z"/><path class="cls-8" d="M25.47,70.91c1.25.54,2.48,1.13,3.7,1.73l1.81.91a19.48,19.48,0,0,0,1.83.91c.43.17.63-.47.3-.71a14.09,14.09,0,0,0-1.84-1l-1.83-.86c-1.23-.55-2.49-1-3.76-1.52-.29-.11-.51.39-.21.52Z"/><path class="cls-8" d="M23.29,91.1a10.85,10.85,0,0,1,3.27.73,13.35,13.35,0,0,1,1.49.68c.5.28,1,.59,1.47.85a.37.37,0,0,0,.44-.58,7.12,7.12,0,0,0-3.14-1.69,11.09,11.09,0,0,0-3.53-.46.24.24,0,0,0,0,.47Z"/><path class="cls-8" d="M20.75,120.6a14.19,14.19,0,0,1,3.09-1.55,23.54,23.54,0,0,1,3.34-.8c.38-.08.28-.67-.09-.67a9.6,9.6,0,0,0-3.54.83,12.29,12.29,0,0,0-3.08,1.83c-.2.16.06.5.28.36Z"/><path class="cls-8" d="M17.51,125.92a23.72,23.72,0,0,1,5.74-2.7c2-.67,4.05-1.11,6-1.8a.3.3,0,0,0-.15-.57,26.08,26.08,0,0,0-11.85,4.69c-.22.17,0,.55.22.38Z"/><path class="cls-8" d="M30.23,144.46a22.2,22.2,0,0,1,4.16-3.33,20.35,20.35,0,0,1,2.25-1.21,20.77,20.77,0,0,0,2.46-1.07c.17-.11.12-.41-.1-.39a7.08,7.08,0,0,0-2.46.86,21.92,21.92,0,0,0-2.41,1.36A20.22,20.22,0,0,0,30,144.26c-.12.13.07.33.19.2Z"/><path class="cls-8" d="M33.94,158.92a6.94,6.94,0,0,1,1-1.85c.36-.54.71-1.08,1.11-1.59a27.67,27.67,0,0,1,2.6-2.92c1.86-1.82,3.94-3.37,5.94-5,.3-.26-.1-.79-.43-.56a43.7,43.7,0,0,0-6.1,5.27,21.85,21.85,0,0,0-2.42,3,15.84,15.84,0,0,0-1,1.75c-.28.61-.45,1.31-.77,1.89,0,0,0,.08.06,0Z"/><path class="cls-8" d="M37.69,159.33a50.52,50.52,0,0,1,8.53-9.53c.27-.25-.1-.75-.4-.52a33,33,0,0,0-8.52,9.82.23.23,0,0,0,.39.23Z"/><path class="cls-8" d="M97.46,6.37a26.54,26.54,0,0,0-1.14,10.94c.05.4.65.42.64,0A41.85,41.85,0,0,1,97.9,6.49a.23.23,0,0,0-.44-.12Z"/><path class="cls-8" d="M100.05,15.15a21.8,21.8,0,0,0-.25,9.2c.06.31.6.25.56-.08a27.28,27.28,0,0,1,.41-8.92c.1-.47-.61-.67-.72-.2Z"/><path class="cls-8" d="M116.81,27.43a30.43,30.43,0,0,0-4.74,6.68,33.68,33.68,0,0,0-1.6,3.58c-.25.66-.48,1.32-.68,2a4.49,4.49,0,0,0-.36,1.83c0,.2.29.18.38.05a5.89,5.89,0,0,0,.56-1.72c.17-.6.36-1.19.56-1.78a32.6,32.6,0,0,1,1.62-3.8,35.06,35.06,0,0,1,4.4-6.7c.07-.09,0-.22-.14-.13Z"/><path class="cls-8" d="M142.83,32.71a29,29,0,0,0-10.92,10c-.12.2.17.35.3.18a39.27,39.27,0,0,1,10.68-10c.07,0,0-.13-.06-.1Z"/><path class="cls-8" d="M143.14,35.68a28.73,28.73,0,0,0-3.87,2.78A20,20,0,0,0,136,41.92c-.17.23.2.52.4.31,1.06-1.15,2.07-2.3,3.23-3.34a28,28,0,0,1,3.75-2.84.22.22,0,0,0-.22-.37Z"/><path class="cls-8" d="M162.28,66.45A35.19,35.19,0,0,0,151,72.19c-.19.15.06.47.26.34,1.74-1.12,3.49-2.24,5.33-3.2a48.55,48.55,0,0,1,5.82-2.54c.21-.08.13-.41-.09-.34Z"/><path class="cls-8" d="M169,87.9a34.94,34.94,0,0,0-11.06,1.83.29.29,0,0,0,.16.56c1.78-.39,3.55-.86,5.34-1.21s3.7-.63,5.56-.84c.21,0,.23-.34,0-.34Z"/><path class="cls-8" d="M169.8,90.11a43,43,0,0,0-8.45,1,40.6,40.6,0,0,0-8.14,2.52c-.29.13-.08.6.21.51,2.7-.83,5.36-1.74,8.11-2.37s5.52-1.08,8.3-1.46c.14,0,.11-.25,0-.24Z"/><path class="cls-8" d="M170.37,107.47a24,24,0,0,0-11.81-.58c-.42.09-.23.7.18.63a35,35,0,0,1,11.56.18.12.12,0,0,0,.07-.23Z"/><path class="cls-8" d="M179.64,123a19.8,19.8,0,0,0-4.82-4,23.11,23.11,0,0,0-2.76-1.41,11.94,11.94,0,0,0-3-1c-.23,0-.44.3-.18.42.88.4,1.81.67,2.71,1a25.36,25.36,0,0,1,2.86,1.42,32.82,32.82,0,0,1,5.06,3.62.1.1,0,0,0,.14-.13Z"/><path class="cls-8" d="M175.6,127a55,55,0,0,0-9-6.5,53.55,53.55,0,0,0-5-2.55,23.27,23.27,0,0,0-5.19-1.9c-.22,0-.38.26-.16.38,1.59.84,3.37,1.35,5,2.09s3.3,1.55,4.89,2.43a65.25,65.25,0,0,1,9.3,6.22c.12.1.3-.06.18-.17Z"/><path class="cls-8" d="M172.34,130.4a64.12,64.12,0,0,0-6.67-5.16,85.63,85.63,0,0,0-7.32-4.61.26.26,0,0,0-.26.45c2.42,1.47,4.85,2.94,7.2,4.54s4.6,3.32,6.92,4.95c.1.08.23-.09.13-.17Z"/><path class="cls-8" d="M133.66,155.8a22.67,22.67,0,0,0-2.6-4.23,19.5,19.5,0,0,0-3.34-3.63c-.19-.15-.56.06-.38.29,1,1.31,2.12,2.5,3.15,3.78s2,2.61,3,3.91c.07.09.2,0,.15-.12Z"/><path class="cls-8" d="M137.22,158a22.55,22.55,0,0,0-2.73-4.67A27.62,27.62,0,0,0,131,149.1c-.32-.3-.73.14-.47.47,1.12,1.43,2.35,2.77,3.43,4.23s2,2.88,3.1,4.27c.07.08.23,0,.19-.11Z"/><path class="cls-8" d="M105.76,172.68a21.11,21.11,0,0,0-.47-6.76,26.66,26.66,0,0,0-1.94-6.75c-.19-.39-.77-.11-.68.28.53,2.21,1.28,4.35,1.77,6.57.24,1.07.44,2.14.62,3.22a33.4,33.4,0,0,0,.59,3.44s.1,0,.11,0Z"/><path class="cls-8" d="M108.94,170.83a6.13,6.13,0,0,0-.1-2.41c-.17-.87-.38-1.74-.63-2.6a22.12,22.12,0,0,0-1.92-5,.31.31,0,0,0-.56.23c.52,1.61,1.17,3.17,1.69,4.78.26.79.49,1.59.72,2.38a7.78,7.78,0,0,1,.47,2.56.17.17,0,0,0,.33,0Z"/><path class="cls-8" d="M64.26,161.53a32.79,32.79,0,0,1,1.07-3.72c.51-1.24,1.21-2.38,1.79-3.6a.32.32,0,0,0-.55-.31,18,18,0,0,0-1.9,3.73,6.21,6.21,0,0,0-.49,3.9,0,0,0,0,0,.08,0Z"/><path class="cls-8" d="M66.93,162a25.36,25.36,0,0,1,1.14-4.62A24.77,24.77,0,0,1,70.2,153c.15-.26-.22-.45-.39-.23a15.19,15.19,0,0,0-3,9.19c0,.05.07.06.08,0Z"/><path class="cls-9" d="M143,71.92c3.08-1.1,7.89-4.15,7.94-12.54.07-13.25-18-17.58-23.75-3.75-19-13.16-50.39-13.17-69.36,0C52,41.81,34,46.14,34.05,59.38c0,8.33,4.8,11.4,7.87,12.52-13.45,20.39-13.63,46.45-7.11,59.48,12.65,25.31,57.62,26.05,57.62,26.05s45-.74,57.62-26.05C156.57,118.36,156.39,92.31,143,71.92Z"/><path class="cls-3" d="M126.34,53.49c-18.45-13-49.37-13-67.82,0-27.51,19.37-30.2,57-22,73.37,12.28,24.56,55.92,25.27,55.92,25.27s43.64-.71,55.92-25.27C156.55,110.47,153.85,72.86,126.34,53.49Z"/><path class="cls-4" d="M105.13,78.47a94,94,0,0,1,15-28.64c-16.42-8.1-39-8.1-55.38,0a94.2,94.2,0,0,1,15,28.64c7.79,23.6,3.39,31.81,3.39,31.81h18.6S97.34,102.07,105.13,78.47Z"/><path class="cls-5" d="M148.35,122c-12.28,24.56-55.92,25.27-55.92,25.27S48.79,146.52,36.51,122c-2.31-4.61-3.75-10.91-4-18-.34,9.08,1.19,17.25,4,22.9,12.28,24.56,55.92,25.27,55.92,25.27s43.64-.71,55.92-25.27c2.83-5.65,4.36-13.82,4-22.9C152.1,111.05,150.66,117.35,148.35,122Z"/><path class="cls-4" d="M107.5,119.25c-3.39-8-8.33-9-15.07-9s-11.67,1-15.07,9c-5.57,13.11-3.59,24.09,15.07,24.09S113.07,132.36,107.5,119.25Z"/><path class="cls-6" d="M126.72,52.84C113.64,43.71,96.27,41.36,80.78,44a55.65,55.65,0,0,0-22,8.4A58.79,58.79,0,0,0,42.91,68.51,68.93,68.93,0,0,0,31.7,107.58,50.58,50.58,0,0,0,34.45,124a32.88,32.88,0,0,0,9.69,13.64c9,7.65,20.92,11.43,32.38,13.52a80.17,80.17,0,0,0,16.27,1.76,102.83,102.83,0,0,0,23.2-3.44c11.43-3,23.36-8.19,30.49-18,6.68-9.24,7.5-21.91,6.23-32.87-1.65-14.15-7.46-27.91-17.36-38.26a59.29,59.29,0,0,0-8.63-7.42c-.79-.56-1.54.74-.76,1.3,12,8.5,20.09,21.38,23.63,35.57,2.76,11,3.33,23.76-.89,34.53-4.32,11-15.12,17.68-25.81,21.5a102.46,102.46,0,0,1-27.49,5.5,62.46,62.46,0,0,1-11.35-.5c-10.63-1.25-21.47-3.8-30.95-8.91a39.27,39.27,0,0,1-13.42-11.19A34.09,34.09,0,0,1,34,116.32c-2.17-12.41-.15-25.76,4.87-37.25C44.8,65.46,55.59,53.82,69.63,48.5a65.63,65.63,0,0,1,46.58.39A48,48,0,0,1,126,54.14C126.76,54.69,127.51,53.39,126.72,52.84Z"/><path class="cls-3" d="M45.91,69.74S35.83,68.94,35.77,57c-.07-13.23,18.51-17.3,23.5-2.45Z"/><path class="cls-6" d="M45.91,69c-.18,0-.81-.14-1.27-.26a11.37,11.37,0,0,1-3.1-1.34c-3.36-2.1-4.85-5.86-5-9.71a10.87,10.87,0,0,1,13.1-11.63c4.45.94,7.47,4.51,8.91,8.68.31.91,1.76.52,1.44-.4-1.42-4.13-4.19-7.75-8.4-9.28a12.61,12.61,0,0,0-10.66,1.09c-7.27,4.38-8,16.12-1.5,21.56a12.06,12.06,0,0,0,6.48,2.79c1,.08,1-1.42,0-1.5Z"/><path class="cls-4" d="M46.43,67.46a8.84,8.84,0,0,1-6.12-8.56c0-8.33,9.41-14,14.67-1.49"/><path class="cls-6" d="M46.7,66.5l-.28-.09-.25-.1c-.21-.08.21.1,0,0l-.29-.13a8.92,8.92,0,0,1-2-1.3,8,8,0,0,1-2.55-6.74,8.57,8.57,0,0,1,2.38-5.46,4.75,4.75,0,0,1,4.57-1.4c3,.79,4.71,4,5.82,6.64a1,1,0,0,0,1.37.36,1,1,0,0,0,.36-1.36c-1.24-2.91-3.13-6-6.17-7.27a6.58,6.58,0,0,0-6.56.92C38.66,54,38.05,61.25,41.66,65.45a9.78,9.78,0,0,0,4.5,3,1,1,0,0,0,.54-1.93Z"/><path class="cls-3" d="M139,69.74s10.07-.8,10.13-12.76c.07-13.23-18.51-17.3-23.5-2.45Z"/><path class="cls-6" d="M139,70.49a11.75,11.75,0,0,0,5.49-2c3.69-2.52,5.29-6.76,5.39-11.11a12.38,12.38,0,0,0-15.22-12.68c-4.88,1.13-8.18,5.11-9.75,9.68-.32.92,1.13,1.31,1.45.4,1.28-3.71,3.81-7.06,7.66-8.34a11.17,11.17,0,0,1,9.37,1.15c6.38,4,6.76,14.57.87,19.22a11.16,11.16,0,0,1-3.66,1.88,13,13,0,0,1-1.27.3,1.65,1.65,0,0,1-.33,0c-1,.08-1,1.58,0,1.5Z"/><path class="cls-4" d="M138.5,67.46a8.84,8.84,0,0,0,6.12-8.56c0-8.33-9.4-14-14.66-1.49"/><path class="cls-6" d="M138.77,68.43c4.52-1.31,7.21-6,6.8-10.52s-4.14-9.93-9.39-8.58c-3.55.9-5.75,4.44-7.09,7.58a1,1,0,0,0,.36,1.36,1,1,0,0,0,1.37-.36c1.05-2.45,2.59-5.36,5.21-6.44a4.56,4.56,0,0,1,4.67.74c3.5,2.78,4,8.84.92,12.09a8.29,8.29,0,0,1-2.32,1.75l-.52.25c-.23.11.19-.07,0,0l-.16.06-.36.13a1,1,0,0,0,.53,1.93Z"/><path class="cls-10" d="M51.82,125.81c-11.28-2.59-7.67-10.3,0-8.46C62.44,119.89,61.05,127.92,51.82,125.81Z"/><path class="cls-10" d="M133,125.81c11.28-2.59,7.67-10.3,0-8.46C122.43,119.89,123.82,127.92,133,125.81Z"/><path class="cls-11" d="M121.53,91.89c11.69-.29,13.91,13.77,9.92,20.14-2,3.18-4.5,5.39-9.92,5.39-5.25,0-7.93-2.21-9.92-5.39C107.61,105.66,109.83,91.6,121.53,91.89Z"/><ellipse class="cls-6" cx="118.48" cy="105.08" rx="7.4" ry="9.15"/><path class="cls-3" d="M133.85,94.53,106.26,98S115.46,79.37,133.85,94.53Z"/><path class="cls-6" d="M133.85,93.78l-24.13,3.06-3.46.44L107,98a10.35,10.35,0,0,1,1.49-4.74.75.75,0,0,0-1.29-.75,11.86,11.86,0,0,0-1.7,5.49.74.74,0,0,0,.75.75l24.12-3.06,3.47-.44c.94-.12,1-1.63,0-1.5Z"/><path class="cls-6" d="M126.66,83.72c-1.32.13-11.54,1.9-13.7,2.86s-1,3.92.74,3.59l13.6-2.68A1.93,1.93,0,0,0,126.66,83.72Z"/><path class="cls-11" d="M63.27,91.89c-11.7-.29-13.92,13.77-9.92,20.14,2,3.18,4.5,5.39,9.92,5.39,5.24,0,7.92-2.21,9.92-5.39C77.18,105.66,75,91.6,63.27,91.89Z"/><ellipse class="cls-6" cx="66.31" cy="105.08" rx="7.4" ry="9.15"/><path class="cls-3" d="M51,94.53,78.54,98S69.33,79.37,51,94.53Z"/><path class="cls-6" d="M51,95.28l24.13,3.06,3.46.44a.75.75,0,0,0,.75-.75,12,12,0,0,0-1.7-5.49.75.75,0,0,0-1.3.75A10.49,10.49,0,0,1,77.79,98l.75-.75L54.41,94.22,51,93.78c-1-.12-1,1.38,0,1.5Z"/><path class="cls-6" d="M58.14,83.72c1.31.13,11.54,1.9,13.69,2.86s1,3.92-.74,3.59L57.5,87.49A1.93,1.93,0,0,1,58.14,83.72Z"/><path class="cls-11" d="M100.91,129.29s-.6,4.8-1.19,4.68-2.15-3.81-2.15-3.81A7.26,7.26,0,0,0,100.91,129.29Z"/><path class="cls-11" d="M84,129.29s.6,4.8,1.2,4.68,2.14-3.81,2.14-3.81A7.26,7.26,0,0,1,84,129.29Z"/><path class="cls-6" d="M91.68,118.49V128a.75.75,0,0,0,1.5,0v-9.54a.75.75,0,0,0-1.5,0Z"/><path class="cls-6" d="M80,125.84a8.82,8.82,0,0,0,3.11,3.78,7.65,7.65,0,0,0,8,.27A7.56,7.56,0,0,0,93,128.56a.75.75,0,0,0-1.06-1.06,6.26,6.26,0,0,1-9.57-.63,7.67,7.67,0,0,1-.7-1.08c-.07-.11-.36-.75-.19-.35a.78.78,0,0,0-.92-.52.76.76,0,0,0-.53.92Z"/><path class="cls-6" d="M103.45,125.44c.17-.4-.12.24-.19.35a7.67,7.67,0,0,1-.7,1.08,6.25,6.25,0,0,1-9.56.63.75.75,0,0,0-1.06,1.06,8.34,8.34,0,0,0,5.17,2.33,7.81,7.81,0,0,0,6.83-3.37,8.21,8.21,0,0,0,1-1.68.75.75,0,0,0-.53-.92.77.77,0,0,0-.92.52Z"/><path class="cls-6" d="M105,108.26c-1.71-3.24-12.56-2.85-12.56-2.85s-10.85-.39-12.55,2.85S92.43,122,92.43,122,106.69,111.5,105,108.26Z"/><g class="cls-12"><path class="cls-11" d="M82,108.44c.39,0,.89.12,1.3.12s.87,0,1.3-.06c.75,0,1.5-.1,2.25-.14,1.69-.11,3.38-.19,5.07-.18s3.25.08,4.88.22c.88.08,1.75.18,2.62.3a6.12,6.12,0,0,0,2.17.14.5.5,0,0,0,.12-.91,5.25,5.25,0,0,0-2.11-.52c-.87-.11-1.74-.21-2.62-.29-1.74-.16-3.5-.24-5.25-.23a44,44,0,0,0-5.26.29c-.8.1-1.58.22-2.37.39a10.07,10.07,0,0,0-1.08.28c-.32.11-.73.39-1,.47-.07,0-.06.13,0,.12Z"/></g><path class="cls-6" d="M76.44,115.54c1.31.58,2.62,1.17,3.89,1.83s2.48,1.44,3.74,2.15c.27.15.47-.23.24-.41a22.09,22.09,0,0,0-3.81-2.18,25.12,25.12,0,0,0-4-1.52c-.08,0-.13.1-.06.13Z"/><path class="cls-6" d="M66.65,120.22a39.7,39.7,0,0,1,16.44,1.31c.37.12.52-.46.16-.58a31.46,31.46,0,0,0-16.63-1,.12.12,0,0,0,0,.23Z"/><path class="cls-6" d="M69.07,124.52a26,26,0,0,1,6.74-1.39,29.7,29.7,0,0,1,6.85.53.3.3,0,0,0,.15-.57,19.39,19.39,0,0,0-7.12-.47A21.28,21.28,0,0,0,69,124.37c-.08,0,0,.18.06.15Z"/><path class="cls-6" d="M108.37,115.41a24.87,24.87,0,0,0-4,1.52,21.63,21.63,0,0,0-3.8,2.18c-.24.18,0,.56.23.41,1.26-.71,2.46-1.49,3.74-2.15s2.58-1.25,3.89-1.83c.07,0,0-.15,0-.13Z"/><path class="cls-6" d="M118.24,120a31.47,31.47,0,0,0-16.63,1c-.36.12-.2.7.16.58a39.89,39.89,0,0,1,16.44-1.31.12.12,0,0,0,0-.23Z"/><path class="cls-6" d="M115.85,124.37a21.14,21.14,0,0,0-6.68-1.75,19.41,19.41,0,0,0-7.12.47c-.37.11-.21.62.16.57a29.62,29.62,0,0,1,6.84-.53,25.83,25.83,0,0,1,6.74,1.39c.08,0,.15-.11.06-.15Z"/></g></g></g></svg>