<svg xmlns="http://www.w3.org/2000/svg" viewBox="0 0 162.29 164.86"><defs><style>.cls-1{isolation:isolate;}.cls-2{fill:#ff8285;}.cls-3,.cls-6{fill:#ffd2a8;}.cls-4{fill:#702222;}.cls-5{fill:#ffe8d3;}.cls-10,.cls-6{opacity:0.5;}.cls-6{mix-blend-mode:multiply;}.cls-7{fill:#451816;}.cls-8{fill:#c9925c;}.cls-9{fill:#fff;}.cls-10{mix-blend-mode:overlay;}</style></defs><g class="cls-1"><g id="Layer_2" data-name="Layer 2"><g id="OBJECTS"><path class="cls-2" d="M83.78,160.49c-24.94,1.5-55.64-7-67.84-25.35s10.81-10.75,0-26-16.22-40.49,0-72.12,76.38-59.19,118.6-11c48.84,55.78-1,82.75,13.47,89.88C162.21,123,147.84,156.63,83.78,160.49Z"/><path class="cls-2" d="M3.92,106.24c-7.14,6.93,7.24,15.77,10.34,10.46S8.25,102,3.92,106.24Z"/><path class="cls-2" d="M4.4,101.7C.55,103.47-1.93,98.19,2,95.42S8.25,99.93,4.4,101.7Z"/><path class="cls-2" d="M149.32,111.75c-3.16-2.48,8.56-17.88,12.16-12S152.83,114.51,149.32,111.75Z"/><path class="cls-2" d="M154,116c-1.41-1.27,7.09-4.81,8.11,0S158.73,120.2,154,116Z"/><path class="cls-3" d="M103,123.3H59.3c-21.84,2-32,26.65-32,26.65,17.13,15.23,53.81,14.91,53.81,14.91s36.67.32,53.8-14.91C135,150,124.83,125.31,103,123.3Z"/><path class="cls-4" d="M34.71,137.9c3.57,2.57,8.95,6.08,10.57,5.18s-1.32-7.72-3.55-12.32A47.11,47.11,0,0,0,34.71,137.9Z"/><path class="cls-4" d="M39.58,151.71c1.11-1.39-4.09-6.58-7.72-9.91a56.27,56.27,0,0,0-3.61,6.2C32.07,150.06,38.41,153.16,39.58,151.71Z"/><path class="cls-4" d="M127.58,137.9c-3.57,2.57-9,6.08-10.57,5.18s1.32-7.72,3.55-12.32A47.11,47.11,0,0,1,127.58,137.9Z"/><path class="cls-4" d="M122.71,151.71c-1.11-1.39,4.09-6.58,7.72-9.91A56.27,56.27,0,0,1,134,148C130.22,150.06,123.88,153.16,122.71,151.71Z"/><path class="cls-5" d="M110.23,150a4.47,4.47,0,0,0,.77-5.87c-2.37-3.77-8-7.46-8-7.46,5.2-2.51-3.67-10.85-7.36-12.9h-29c-3.69,2-12.56,10.39-7.36,12.9,0,0-5.6,3.69-8,7.46a4.47,4.47,0,0,0,.76,5.87s-6.37,3.2-6.78,9.55c17,5.52,35.86,5.36,35.87,5.36S100,165,117,159.5C116.6,153.15,110.23,150,110.23,150Z"/><path class="cls-6" d="M59.3,123.3a30.61,30.61,0,0,0-12,3.71,89.34,89.34,0,0,0,33.8,6.88A89.17,89.17,0,0,0,115,127a30.62,30.62,0,0,0-12-3.69Z"/><path class="cls-7" d="M135.68,149.75a51.32,51.32,0,0,0-13.53-18.64,34.36,34.36,0,0,0-17-8.29,48.09,48.09,0,0,0-7.59-.27H67.73c-2.75,0-5.52-.09-8.28,0-5.59.18-11.28,2.68-15.82,5.83a50.79,50.79,0,0,0-16.77,20.79c-.08.19-.17.38-.25.58-.36.89,1.09,1.28,1.45.4-.1.25.08-.18.15-.34q.3-.66.63-1.32,1.11-2.24,2.42-4.37a51.19,51.19,0,0,1,9.94-12,32.74,32.74,0,0,1,17.12-8,55.9,55.9,0,0,1,6.85-.1h29c2.85,0,5.71-.07,8.55,0,5.23.11,10.58,2.49,14.84,5.39,7.26,4.92,12.92,12.43,16.54,20.37.07.15.26.61.15.34.36.88,1.81.49,1.45-.4Z"/><path class="cls-3" d="M104.88,142.83A8.56,8.56,0,0,1,106.8,146a20.39,20.39,0,0,1,.55,3.64.33.33,0,0,0,.6.08,5.36,5.36,0,0,0-.27-4.08,7.08,7.08,0,0,0-2.52-3.17c-.23-.16-.46.18-.28.37Z"/><path class="cls-3" d="M104.53,147a25.67,25.67,0,0,1,1,6.22.39.39,0,0,0,.77,0,16.27,16.27,0,0,0-1.35-6.41c-.11-.25-.52-.07-.44.19Z"/><path class="cls-3" d="M101.82,146.07a20,20,0,0,1,1.5,6.7.39.39,0,0,0,.78,0,14.43,14.43,0,0,0-1.79-7c-.17-.32-.63,0-.49.29Z"/><path class="cls-3" d="M71.13,152.5a9.74,9.74,0,0,0-.76,5.22.5.5,0,0,0,.49.49.49.49,0,0,0,.49-.49,13.15,13.15,0,0,1,0-2.51,15.61,15.61,0,0,1,.44-2.44c.08-.36-.46-.63-.63-.27Z"/><path class="cls-3" d="M72.31,154.87a14.57,14.57,0,0,0,.44,5.65c.18.64,1.2.36,1-.27a15.83,15.83,0,0,1-.72-5.38c0-.48-.66-.45-.72,0Z"/><path class="cls-3" d="M74.36,153a19.59,19.59,0,0,0,.45,4.89c.15.66,1.16.38,1-.27a18.42,18.42,0,0,1-.43-4.62.52.52,0,0,0-1,0Z"/><path class="cls-3" d="M63.62,129.36a11.32,11.32,0,0,0-2.58,4,.36.36,0,0,0,.24.43.37.37,0,0,0,.43-.24A12.29,12.29,0,0,1,64,129.71c.21-.24-.12-.58-.35-.35Z"/><path class="cls-3" d="M64.5,131.25a17.69,17.69,0,0,0-2.27,5.26.39.39,0,0,0,.76.2,20.33,20.33,0,0,1,2.18-5.07c.27-.43-.41-.82-.67-.39Z"/><path class="cls-3" d="M66.56,130.71a40.11,40.11,0,0,0-1.48,4.37c-.12.47.62.67.73.2a37.85,37.85,0,0,1,1.32-4.41.29.29,0,0,0-.21-.36.3.3,0,0,0-.36.2Z"/><path class="cls-7" d="M129.42,89.29s17.08,5.44,18.33-8.83c1.39-15.88-13.26-26-18.33-28.51Z"/><path class="cls-7" d="M129.22,90c5,1.59,12,1.92,16.06-2,3.73-3.56,3.77-9.65,2.85-14.37a29.35,29.35,0,0,0-7.66-14.2A38.49,38.49,0,0,0,129.8,51.3a.76.76,0,0,0-1.13.65V89.29a.75.75,0,0,0,1.5,0V52L129,52.6c7.46,3.72,14.3,10.62,16.91,18.62,1.44,4.45,2.14,10.76-.86,14.78-2.07,2.78-5.64,3.59-8.93,3.56a22.64,22.64,0,0,1-6.54-1C128.7,88.27,128.3,89.72,129.22,90Z"/><path class="cls-4" d="M147.56,81.88c.08-.45.14-.92.19-1.42,1.39-15.88-13.26-26-18.33-28.51v7.16C133.85,61.3,145.59,69.3,147.56,81.88Z"/><path class="cls-7" d="M148.28,82.08c1.89-11.19-4.92-21.33-13.57-27.71a34.52,34.52,0,0,0-4.91-3.07.76.76,0,0,0-1.13.65v7.16a.76.76,0,0,0,.37.65c8.61,4.3,16.2,12.65,17.79,22.32.16,1,1.6.54,1.45-.4-1.65-10-9.57-18.76-18.48-23.22l.37.65V52L129,52.6c7.6,3.79,14.56,10.87,17.05,19.08a22.15,22.15,0,0,1,.74,10C146.67,82.62,148.12,83,148.28,82.08Z"/><path class="cls-7" d="M32.87,89.29s-17.08,5.44-18.33-8.83C13.15,64.58,27.8,54.46,32.87,52Z"/><path class="cls-7" d="M32.67,88.57C28.18,90,21.74,90.48,18.08,87s-3.31-9.49-2.26-13.88A28.58,28.58,0,0,1,23.37,60a37,37,0,0,1,9.88-7.42L32.12,52V89.29a.75.75,0,0,0,1.5,0V52a.76.76,0,0,0-1.13-.65c-8,4-15.22,11.5-17.78,20.14-1.43,4.8-1.87,11.27,1.32,15.49,2.27,3,6,4.07,9.62,4.13a23.91,23.91,0,0,0,7.42-1C34,89.72,33.6,88.27,32.67,88.57Z"/><path class="cls-4" d="M14.74,81.88c-.09-.45-.15-.92-.2-1.42C13.15,64.58,27.8,54.46,32.87,52v7.16C28.44,61.3,16.71,69.3,14.74,81.88Z"/><path class="cls-7" d="M15.46,81.68C13.66,71,20.53,61.26,28.81,55.33a33,33,0,0,1,4.44-2.73L32.12,52v7.16l.37-.65C23.58,62.92,15.66,71.67,14,81.68c-.15.94,1.29,1.35,1.45.4,1.59-9.67,9.18-18,17.79-22.32a.76.76,0,0,0,.37-.65V52a.76.76,0,0,0-1.13-.65c-8.07,4-15.4,11.67-17.87,20.45A23.73,23.73,0,0,0,14,82.08C14.17,83,15.62,82.62,15.46,81.68Z"/><path class="cls-3" d="M135.35,77c-2.45-29.88-17.65-43.68-23.78-48.75-8.19-6.78-19.67-9.75-30.93-9.75s-22.73,3-30.92,9.75C43.59,33.35,28.39,47.15,25.94,77s-.35,34.26,2.1,32.34c0,0,2.1,11.7,7.16,8.91,0,0,5.6,5.76,11,2.44a88.23,88.23,0,0,0,34.43,7.17,88.25,88.25,0,0,0,34.44-7.17c5.41,3.32,11-2.44,11-2.44,5.06,2.79,7.16-8.91,7.16-8.91C135.7,111.29,137.8,106.92,135.35,77Z"/><path class="cls-6" d="M133.25,101.69s-2.1,11.71-7.16,8.91c0,0-5.6,5.77-11,2.45a88.35,88.35,0,0,1-34.44,7.16,88.33,88.33,0,0,1-34.43-7.16c-5.41,3.32-11-2.45-11-2.45-5.06,2.8-7.16-8.91-7.16-8.91-1.47,1.15-2.82,0-3.12-7.56-.42,14.48,1.25,16.71,3.12,15.24,0,0,2.1,11.7,7.16,8.91,0,0,5.6,5.76,11,2.44a88.23,88.23,0,0,0,34.43,7.17,88.25,88.25,0,0,0,34.44-7.17c5.41,3.32,11-2.44,11-2.44,5.06,2.79,7.16-8.91,7.16-8.91,1.87,1.47,3.54-.76,3.12-15.24C136.07,101.71,134.72,102.84,133.25,101.69Z"/><path class="cls-7" d="M136.1,77c-1.32-15.68-6.59-31.1-17.28-42.9A49.1,49.1,0,0,0,106,23.63c-9-4.84-19.65-6.4-29.75-5.69-9.76.69-19.58,3.64-27.2,10a62.2,62.2,0,0,0-9.5,9.76A66.24,66.24,0,0,0,29.38,56.5C26,66.13,25.14,76.17,24.53,86.28c-.39,6.46-.93,13.19,0,19.63.21,1.51.72,5.08,3,4.54a2.28,2.28,0,0,0,.88-.44l-1.11-.45c.66,3.61,3.07,12.07,8.27,9.37l-.91-.12c3.07,3.13,7.9,4.89,11.92,2.56h-.76a79.89,79.89,0,0,0,22.77,6.38,87.88,87.88,0,0,0,38.85-3.36,63.31,63.31,0,0,0,8-3h-.76c4,2.33,8.85.57,11.92-2.56l-.91.12c5.2,2.7,7.61-5.76,8.26-9.37l-1.1.45c1.68,1.3,3-.29,3.46-1.86a21.78,21.78,0,0,0,.73-5.08c.19-3.06.15-6.13.06-9.2-.17-5.62-.57-11.23-1-16.84-.08-1-1.58-1-1.5,0a221.86,221.86,0,0,1,1.06,23.76,36.46,36.46,0,0,1-.48,5.71,9.29,9.29,0,0,1-.42,1.63,5.79,5.79,0,0,1-.4.74c-.15.18-.14.18-.27.13.27.1-.26-.14-.06,0a3.42,3.42,0,0,1-.4-.26.75.75,0,0,0-1.1.45c-.44,2.44-2.27,10.43-6.06,8.46a.77.77,0,0,0-.91.12,10.65,10.65,0,0,1-6.4,3.24,6.24,6.24,0,0,1-2.8-.45c-.62-.26-1-.67-1.67-.46-.34.11-.67.3-1,.44a84.06,84.06,0,0,1-16.88,5,86.13,86.13,0,0,1-48.25-4.63c-.6-.24-1.17-.51-1.76-.75-1.07-.43-2,.54-3.1.74-2.88.52-6-1.15-8-3.16a.77.77,0,0,0-.91-.12c-3.79,2-5.62-6-6.06-8.46a.75.75,0,0,0-1.1-.45c-.34.26-.32.24-.58.3.11,0,0,0-.06-.06a5.48,5.48,0,0,1-.9-2.4c-1-5.32-.55-11.08-.3-16.44.46-9.79,1-19.68,3.73-29.16a66.72,66.72,0,0,1,9.3-19.89,59.9,59.9,0,0,1,9.62-10.74A44.09,44.09,0,0,1,70.33,20.15,57.74,57.74,0,0,1,100,22.57,43.84,43.84,0,0,1,115.58,32.9c9.89,9.84,15.74,22.87,18.07,36.52.43,2.53.73,5.07.95,7.61C134.68,78,136.18,78,136.1,77Z"/><path class="cls-4" d="M66.22,85.57C63.73,94.82,50,96.74,37.42,94c0,0-6.47,2.4-7.34-2.56a33.46,33.46,0,0,1,0-10S27.46,83,27.81,77.18s4.26-11.65,4.26-11.65-2.37.64-.59-2.38,15.16-13.69,25.34-5.89C64.51,63.15,68.81,76,66.22,85.57Z"/><path class="cls-4" d="M95.07,85.57c2.49,9.25,16.24,11.17,28.8,8.39,0,0,6.47,2.4,7.34-2.56a33.46,33.46,0,0,0,0-10s2.62,1.58,2.27-4.19-4.26-11.65-4.26-11.65,2.37.64.59-2.38-15.16-13.69-25.34-5.89C96.78,63.15,92.48,76,95.07,85.57Z"/><path class="cls-5" d="M91.45,87.66c-2.23-2-10.81-2.41-10.81-2.41s-8.57.37-10.8,2.41-6.06,10.79-4.75,14.64c1.82,5.34,8.4,8,15.55,7.94s13.74-2.6,15.56-7.94C97.51,98.45,93.67,89.7,91.45,87.66Z"/><path class="cls-8" d="M111.56,28.28a37.1,37.1,0,0,0-9.65-5.73c3.36-1.88-3.81-4.56-11.4-3.71,0,0,2.57-6,1-6.54s-6.35,5.12-6.35,5.12-.78-8-4.52-8-4.52,8-4.52,8-4.79-5.67-6.35-5.12,1,6.54,1,6.54C63.18,18,56,20.67,59.37,22.55a37.1,37.1,0,0,0-9.65,5.73C35.25,40.44,30.93,54.46,30.93,54.46c4.32-5.85,21-13.34,31.88-10.05,16.12,4.88,9.73,40,9.73,40H88.75s-6.4-35.15,9.73-40c10.84-3.29,27.55,4.2,31.87,10.05C130.35,54.46,126,40.44,111.56,28.28Z"/><path class="cls-7" d="M112.09,27.75a39.4,39.4,0,0,0-9.8-5.85v1.29c2.1-1.26,1-3-.81-3.86-3.32-1.52-7.41-1.6-11-1.24l.65,1.13c.63-1.48,3.17-7,.44-7.67-1.48-.35-3.15,1.41-4.1,2.31a37.36,37.36,0,0,0-2.87,3l1.28.53c-.29-2.94-1.39-8.77-5.27-8.77s-5,5.83-5.27,8.77l1.28-.53a37.36,37.36,0,0,0-2.87-3c-.94-.89-2.62-2.66-4.1-2.31-2.73.64-.19,6.18.44,7.67l.65-1.13c-3.56-.36-7.65-.28-11,1.24-1.8.82-2.91,2.6-.81,3.86V21.9c-7.73,3.28-14,8.92-19.14,15.45A62.1,62.1,0,0,0,31.3,51.43a29.47,29.47,0,0,0-1.09,2.83c-.27.88.89,1.21,1.37.58a21.32,21.32,0,0,1,6.89-5.34A44,44,0,0,1,49,45.39C54.75,44,62.32,43.24,67,47.68c3.49,3.35,4.83,8.45,5.52,13.08a69.67,69.67,0,0,1,.32,15.14,77.73,77.73,0,0,1-1,8.34.77.77,0,0,0,.73,1H88.75a.76.76,0,0,0,.72-1,77.86,77.86,0,0,1-.91-21.39c.48-4.78,1.55-10,4.61-13.89,3.89-4.9,10.57-5.14,16.3-4.15a43.06,43.06,0,0,1,12,4c2.94,1.49,6.16,3.34,8.18,6,.48.63,1.65.3,1.37-.58a43.87,43.87,0,0,0-4-8.71,67.77,67.77,0,0,0-14.94-17.8c-.73-.62-1.8.43-1.06,1.06a66.25,66.25,0,0,1,14.7,17.5,42,42,0,0,1,3.9,8.35l1.37-.58a22.46,22.46,0,0,0-7-5.64,45.5,45.5,0,0,0-10.66-4.32c-6.07-1.61-14-2.46-19.22,1.77-4,3.19-5.7,8.44-6.55,13.28a67.85,67.85,0,0,0-.62,16.11A83.8,83.8,0,0,0,88,84.64l.73-1H72.54l.72,1A77,77,0,0,0,74,61.28c-.65-5-2-10.37-5.53-14.15C64.1,42.4,57,42.34,51.06,43.42a44.81,44.81,0,0,0-12.64,4.41c-3,1.57-6.07,3.51-8.14,6.25l1.37.58a41.12,41.12,0,0,1,3.41-7.49A65.33,65.33,0,0,1,47.84,30.94a40.62,40.62,0,0,1,11.91-7.75c.54-.23.43-1,0-1.29-.62-.37-.53-.49.06-.89a8.21,8.21,0,0,1,2.59-1,24.79,24.79,0,0,1,8.37-.44c.63.07.84-.67.65-1.12.11.27,0,0-.06-.14l-.24-.63c-.25-.66-.48-1.33-.68-2a8.91,8.91,0,0,1-.42-2c0-.57-.14-.69.3-.55,1.25.37,2.44,1.82,3.31,2.71.68.69,1.34,1.4,2,2.14.47.54,1.22.05,1.28-.53.21-2,1-7.27,3.77-7.27s3.57,5.23,3.77,7.27c.06.58.82,1.07,1.28.53.6-.71,1.23-1.39,1.87-2,.9-.92,2.12-2.42,3.4-2.8.42-.13.31-.1.31.45a8.12,8.12,0,0,1-.39,2c-.2.69-.43,1.37-.68,2-.09.22-.17.45-.26.67s-.21.51-.07.19c-.2.45,0,1.19.64,1.12a24.79,24.79,0,0,1,8.37.44,8.61,8.61,0,0,1,2.6,1c.58.4.67.52.06.89a.75.75,0,0,0,0,1.29A38,38,0,0,1,111,28.81C111.77,29.42,112.84,28.36,112.09,27.75Z"/><path class="cls-7" d="M61.87,21.57a17.11,17.11,0,0,1,6.23,1.34,15.65,15.65,0,0,1,2.67,1.53c.86.61,1.58,1.38,2.43,2,.33.25.74-.23.55-.55a8,8,0,0,0-2.39-2.29,14,14,0,0,0-3-1.59,12.37,12.37,0,0,0-6.56-.8c-.2,0-.14.34,0,.35Z"/><path class="cls-7" d="M71.9,16.34a21.18,21.18,0,0,1,2,3.36,25.06,25.06,0,0,1,1.37,3.65.51.51,0,0,0,1-.27,15.7,15.7,0,0,0-3.77-7.2c-.28-.31-.84.11-.59.46Z"/><path class="cls-7" d="M80.07,14.11a86,86,0,0,0,.06,13.14.34.34,0,0,0,.68,0c.11-4.36.13-8.78-.14-13.14a.3.3,0,0,0-.6,0Z"/><path class="cls-7" d="M99.46,21.22a12.39,12.39,0,0,0-6.56.8A14.23,14.23,0,0,0,90,23.56a8.08,8.08,0,0,0-2.46,2.34c-.19.32.22.8.56.55.82-.61,1.51-1.36,2.34-2a16.32,16.32,0,0,1,2.75-1.58,17.11,17.11,0,0,1,6.23-1.34c.19,0,.25-.31,0-.35Z"/><path class="cls-7" d="M88.79,15.88A15.7,15.7,0,0,0,85,23.08a.51.51,0,0,0,1,.27,25.06,25.06,0,0,1,1.37-3.65,22,22,0,0,1,2-3.36c.25-.35-.31-.77-.59-.46Z"/><path class="cls-9" d="M51.59,66.37c-11.69-.29-13.92,13.77-9.92,20.14,2,3.18,4.5,5.39,9.92,5.39,5.25,0,7.92-2.21,9.92-5.39C65.51,80.14,63.29,66.08,51.59,66.37Z"/><path class="cls-7" d="M63.53,74.94a12.64,12.64,0,0,0-5.62-7.83,13.76,13.76,0,0,0-10.19-1c-5.55,1.58-8.4,7.13-8.62,12.58A14.73,14.73,0,0,0,41,86.89c.51.82,1.81.07,1.3-.76C40,82.33,40.06,76.94,42,73a10.13,10.13,0,0,1,4.88-5,12.47,12.47,0,0,1,8.9-.25C59.09,69,61.17,72,62.08,75.34a.75.75,0,0,0,1.45-.4Z"/><ellipse class="cls-7" cx="54.64" cy="79.56" rx="7.4" ry="9.15"/><path class="cls-9" d="M109.7,66.37c11.69-.29,13.92,13.77,9.92,20.14-2,3.18-4.5,5.39-9.92,5.39-5.25,0-7.92-2.21-9.92-5.39C95.78,80.14,98,66.08,109.7,66.37Z"/><path class="cls-7" d="M99.21,75.34a11,11,0,0,1,5.16-7.06,12.28,12.28,0,0,1,9.24-.61c4.74,1.57,7,6.63,7.08,11.31A13,13,0,0,1,119,86.13c-.51.82.79,1.58,1.3.76,2.69-4.38,2.5-10.56.18-15a11.42,11.42,0,0,0-5.82-5.39,13.94,13.94,0,0,0-10.11.1,12.32,12.32,0,0,0-6.76,8.39.75.75,0,0,0,1.45.4Z"/><ellipse class="cls-7" cx="106.65" cy="79.56" rx="7.4" ry="9.15"/><path class="cls-2" d="M40,100.29C28.76,97.7,32.36,90,40,91.83,50.65,94.37,49.26,102.41,40,100.29Z"/><path class="cls-2" d="M121.26,100.29c11.27-2.59,7.67-10.29,0-8.46C110.64,94.37,112,102.41,121.26,100.29Z"/><path class="cls-7" d="M46.45,65a10.46,10.46,0,0,1,7.82-.32c2.25.81,3.49-1,1.85-2.27-1.9-1.49-6.65-2.35-10-.72S43.06,64.4,43.33,65,44.59,65.76,46.45,65Z"/><path class="cls-7" d="M114.84,65a10.46,10.46,0,0,0-7.82-.32c-2.25.81-3.49-1-1.85-2.27,1.9-1.49,6.65-2.35,10-.72S118.23,64.4,118,65,116.7,65.76,114.84,65Z"/><path class="cls-7" d="M79.89,88.82v8.73a.75.75,0,0,0,1.5,0V88.82a.75.75,0,0,0-1.5,0Z"/><path class="cls-7" d="M69.86,97a7.17,7.17,0,0,0,3.29,3.7,6.08,6.08,0,0,0,7.23-1.26,4.88,4.88,0,0,0,1-1.71.75.75,0,0,0-1.45-.4s0,0,0,.08l0,.08c-.06.16,0-.12,0,0a5.13,5.13,0,0,1-.41.72,4.11,4.11,0,0,1-1.93,1.42A4.94,4.94,0,0,1,72,97.81a7.56,7.56,0,0,1-.58-.93c-.06-.1-.1-.21-.16-.31s0,.1,0,0a.78.78,0,0,0-.92-.53.75.75,0,0,0-.53.92Z"/><path class="cls-7" d="M68.77,97.55a3.38,3.38,0,0,0,.78,0,4.29,4.29,0,0,0,1.9-.67,3.79,3.79,0,0,0,1-1.07.75.75,0,0,0-.27-1,.77.77,0,0,0-1,.27s-.08.1-.1.14.09-.11,0,0l-.06.06-.22.24-.13.1c-.1.09.15-.1,0,0a2.2,2.2,0,0,1-.25.17,2.1,2.1,0,0,1-.26.13l-.09.05h0a3.94,3.94,0,0,1-.49.14l-.21,0c-.07,0-.23,0,.06,0h-.11a1.83,1.83,0,0,1-.33,0,1.13,1.13,0,0,1-.32,0,.75.75,0,0,0,0,1.5Z"/><path class="cls-7" d="M90,96.61c0,.1.11-.22,0-.08l-.11.24a7.37,7.37,0,0,1-.45.77,5.64,5.64,0,0,1-1.87,1.76,4.58,4.58,0,0,1-5.64-1,2.93,2.93,0,0,1-.26-.38c-.08-.12-.14-.25-.21-.38l0-.09,0,0a.56.56,0,0,1,0-.12c-.28-.92-1.73-.53-1.45.4a5.33,5.33,0,0,0,3.45,3.33,6.37,6.37,0,0,0,7-2.28,7.22,7.22,0,0,0,1-1.78.76.76,0,0,0-.53-.92.77.77,0,0,0-.92.53Z"/><path class="cls-7" d="M92.52,96.05a1.13,1.13,0,0,1-.32,0,1.83,1.83,0,0,1-.33,0h-.11c.29,0,.13,0,.06,0l-.21,0a3.94,3.94,0,0,1-.49-.14h0l-.09-.05a2.1,2.1,0,0,1-.26-.13,2.2,2.2,0,0,1-.25-.17c-.12-.08.13.11,0,0l-.13-.1-.22-.24-.06-.06c0-.07,0,0,0,0s-.08-.1-.1-.14a.77.77,0,0,0-1-.27.75.75,0,0,0-.27,1,3.87,3.87,0,0,0,1.89,1.5,4.57,4.57,0,0,0,1.55.28l.28,0a.78.78,0,0,0,.53-.21.77.77,0,0,0,.22-.54.76.76,0,0,0-.75-.75Z"/><path class="cls-7" d="M90.74,83.08c-1.08-3.22-19.11-3.22-20.19,0s5.38,8.08,10.09,8.51C85.36,91.16,91.81,86.3,90.74,83.08Z"/><g class="cls-10"><path class="cls-9" d="M71.87,83.93A43.74,43.74,0,0,1,80.34,83a33.28,33.28,0,0,1,4,.16c1.43.15,2.82.5,4.25.66.52,0,.54-.71.11-.86a17.35,17.35,0,0,0-4-.76A33.2,33.2,0,0,0,80.18,82a26.66,26.66,0,0,0-8.37,1.7.1.1,0,0,0,.06.19Z"/></g></g></g></g></svg>