<svg xmlns="http://www.w3.org/2000/svg" viewBox="0 0 197.24 192.71"><defs><style>.cls-1{isolation:isolate;}.cls-2{fill:#ffb0b1;}.cls-3,.cls-4{fill:#8a312d;}.cls-4{opacity:0.3;}.cls-4,.cls-8{mix-blend-mode:multiply;}.cls-5{fill:#511110;}.cls-6,.cls-8{fill:#ffd2a8;}.cls-7{fill:#ffe8d3;}.cls-8,.cls-9{opacity:0.5;}.cls-12,.cls-9{mix-blend-mode:overlay;}.cls-10{fill:#fff;}.cls-11{fill:#ff8285;}.cls-12{opacity:0.6;}</style></defs><g class="cls-1"><g id="Layer_2" data-name="Layer 2"><g id="OBJECTS"><path class="cls-2" d="M175.29,79.32c24.87-.61,30.92-27.6,6.05-26.2S150.42,79.94,175.29,79.32Z"/><path class="cls-2" d="M169.08,34.21c8.58,11.49-3.4,23.39-12.84,11.44S159.19,21,169.08,34.21Z"/><path class="cls-2" d="M104.2,181.2c19.84,0,73.85-16.16,87.19-63s-35.54-33.13-46.46-27.78S173.52,25.2,117.24,5.36C61.79-14.2,7.81,21.76.72,81.09-5.17,130.36,24.93,181.2,104.2,181.2Z"/><path class="cls-3" d="M179.76,115.47c.67-3.15-6.08-9.41-6.08-9.41s3.6-2.3,3.38-3.55-6.76-6.33-6.76-6.33,6.08-6.16,5.86-9.08-7.44-6.53-7.44-6.53,2.48-2,2.26-4.06-5.86-4.28-5.86-4.28,3.38-5,2.7-8.33-8.1-5.57-8.1-5.57,4.28-7.71,1.57-12S148,40.26,148,40.26s1.62-5.86,0-7.88-11.62-2.93-11.62-2.93.67-5.18-2.79-8.11-14.58,1.58-14.58,1.58-.87-8.11-4-8.78-10.59,4.73-10.59,4.73c-1.35-8.11-7.2-13.51-9.7-13.51s-8.35,5.4-9.7,13.51c0,0-7.43-5.41-10.58-4.73s-4,8.78-4,8.78-11.11-4.5-14.58-1.58-2.79,8.11-2.79,8.11-10,.9-11.62,2.93,0,7.88,0,7.88S30.65,42.06,28,46.34s1.57,12,1.57,12-7.43,2.2-8.1,5.57,2.7,8.33,2.7,8.33-5.63,2.26-5.85,4.28,2.25,4.06,2.25,4.06-7.21,3.6-7.43,6.53,5.85,9.08,5.85,9.08-6.53,5.08-6.75,6.33,3.37,3.55,3.37,3.55-6.75,6.26-6.08,9.41,6.76,7,6.76,7-4.95,6.62-4,8.73,3.6,2.87,3.6,2.87-4.5,4.42-3.83,7.35,5.63,3.37,5.63,3.37-2.25,2.64-1.13,4.7,4.28,2.28,4.28,2.28-3.6,7.21-2.25,8.79S26.37,163,26.37,163s-1.57,5.65,0,6.21,6.31,0,6.31,0,0,4.61,1.57,5.62,11.26,0,11.26,0h98.22s9.68,1,11.26,0,1.57-5.62,1.57-5.62,4.73.55,6.31,0,0-6.21,0-6.21,6.53-.9,7.88-2.47-2.25-8.79-2.25-8.79,3.15-.22,4.28-2.28-1.13-4.7-1.13-4.7,5-.45,5.63-3.37-3.83-7.35-3.83-7.35,2.71-.76,3.61-2.87-4.06-8.73-4.06-8.73S179.08,118.62,179.76,115.47Z"/><path class="cls-4" d="M166.07,115c.57-2.64-5.1-7.89-5.1-7.89s3-1.93,2.83-3-5.67-5.32-5.67-5.32,5.11-5.16,4.92-7.62-6.24-5.48-6.24-5.48,2.08-1.7,1.89-3.4-4.91-3.59-4.91-3.59,2.83-4.16,2.27-7S149.25,67,149.25,67s3.59-6.47,1.32-10.06-11.19-5.11-11.19-5.11,1.37-4.91,0-6.61-9.75-2.46-9.75-2.46.56-4.34-2.34-6.8S115,37.32,115,37.32s-.73-6.8-3.38-7.37-8.88,4-8.88,4c-1.13-6.8-6-11.34-8.14-11.34s-7,4.54-8.14,11.34c0,0-6.24-4.53-8.88-4s-3.38,7.37-3.38,7.37S64.9,33.54,62,36s-2.35,6.8-2.35,6.8-8.36.76-9.75,2.46,0,6.61,0,6.61S40.94,53.39,38.67,57,40,67,40,67s-6.24,1.84-6.8,4.68,2.26,7,2.26,7-4.72,1.89-4.91,3.59,1.89,3.4,1.89,3.4-6.05,3-6.24,5.48,4.92,7.62,4.92,7.62-5.48,4.27-5.67,5.32,2.83,3,2.83,3-5.67,5.25-5.1,7.89,5.67,5.83,5.67,5.83-4.16,5.57-3.4,7.34a5.07,5.07,0,0,0,3,2.4s-3.78,3.71-3.21,6.17S30,139.56,30,139.56s-1.89,2.22-.94,3.94,3.59,1.92,3.59,1.92-3,6.05-1.89,7.37,6.61,2.08,6.61,2.08-1.32,4.74,0,5.21,5.3,0,5.3,0,0,3.87,1.32,4.71,9.45,0,9.45,0h82.42s8.13.85,9.45,0,1.33-4.71,1.33-4.71,4,.46,5.29,0,0-5.21,0-5.21,5.48-.76,6.61-2.08-1.89-7.37-1.89-7.37,2.65-.19,3.59-1.92-.94-3.94-.94-3.94,4.16-.38,4.72-2.83-3.21-6.17-3.21-6.17a5.07,5.07,0,0,0,3-2.4c.76-1.77-3.4-7.34-3.4-7.34S165.5,117.64,166.07,115Z"/><path class="cls-5" d="M94.11,57.09c0,1.54.19,3.07.26,4.61s0,3.09,0,4.64a.43.43,0,0,0,.85,0,23.36,23.36,0,0,0,0-4.73,19,19,0,0,0-.86-4.56.13.13,0,0,0-.26,0Z"/><path class="cls-5" d="M94.11,5.64c0,1.54.19,3.08.26,4.61s0,3.1,0,4.65a.43.43,0,0,0,.85,0,23.36,23.36,0,0,0,0-4.73,19,19,0,0,0-.86-4.56.13.13,0,0,0-.26,0Z"/><path class="cls-5" d="M95,29.62A20.29,20.29,0,0,0,94.36,32q-.17,1.11-.27,2.22A21.55,21.55,0,0,0,94.16,39c.07.49.88.38.86-.11-.07-1.55-.17-3.09-.15-4.64,0-.77,0-1.55.11-2.31s0-1.54.14-2.3c0-.08-.12-.09-.14,0Z"/><path class="cls-5" d="M89.82,17.26c.14.91.18,1.83.28,2.74s.16,1.67.22,2.5c.13,1.71,0,3.43.2,5.13,0,.42.73.61.82.11a19.52,19.52,0,0,0-.14-5.34c-.1-.84-.24-1.67-.41-2.49a27.84,27.84,0,0,0-.79-2.7c0-.12-.19-.07-.18.05Z"/><path class="cls-5" d="M88.91,36.68c.27.85.48,1.72.76,2.57s.55,1.78.79,2.68c.47,1.77.65,3.61,1.16,5.36a.44.44,0,0,0,.87-.12,15.64,15.64,0,0,0-1-5.53,23.21,23.21,0,0,0-.94-2.57,15,15,0,0,0-1.43-2.49c-.08-.12-.29,0-.24.1Z"/><path class="cls-5" d="M86,43.17c1.47,3.93,2.63,7.95,3.89,11.94a.52.52,0,0,0,1-.28A54.11,54.11,0,0,0,86.32,43c-.1-.19-.43-.06-.35.15Z"/><path class="cls-5" d="M84.43,53.08c.17.37.24.78.39,1.16s.25.7.39,1c.26.65.51,1.3.74,2,.5,1.35.91,2.73,1.52,4a.34.34,0,0,0,.63-.17,14.63,14.63,0,0,0-1.26-4.23c-.3-.69-.61-1.37-1-2-.16-.3-.35-.6-.54-.9s-.5-.63-.71-1a.11.11,0,0,0-.19.11Z"/><path class="cls-5" d="M74.52,48.75a25.15,25.15,0,0,1,3.18,4.67,39.22,39.22,0,0,1,2.12,5.21.44.44,0,0,0,.85-.23,16.51,16.51,0,0,0-2.09-5.49A21.28,21.28,0,0,0,75,48.26c-.31-.31-.77.15-.48.49Z"/><path class="cls-5" d="M62,48.1a29.8,29.8,0,0,1,3.66,4.12c1.09,1.49,1.9,3.14,2.91,4.67a.37.37,0,0,0,.67-.29,14.94,14.94,0,0,0-2.71-5,22.23,22.23,0,0,0-4-4.08c-.39-.31-.95.2-.56.56Z"/><path class="cls-5" d="M76,35.57c.49.73.88,1.55,1.3,2.33s.88,1.62,1.27,2.46c.77,1.64,1.3,3.37,2,5a.36.36,0,0,0,.67-.18A15,15,0,0,0,79.39,40a19,19,0,0,0-1.45-2.35,24.87,24.87,0,0,0-1.87-2.12c0-.05-.13,0-.09.08Z"/><path class="cls-5" d="M79.92,24.17c.71,1.44,1.47,2.85,2.16,4.31A38.06,38.06,0,0,1,83.86,33a.46.46,0,0,0,.89-.25,19.94,19.94,0,0,0-4.69-8.69c-.07-.08-.19,0-.14.12Z"/><path class="cls-5" d="M65,30.51a8.15,8.15,0,0,1,.85,1.07c.32.36.62.73.94,1.09.63.7,1.23,1.44,1.79,2.19,1.11,1.51,2,3.11,3.1,4.65.22.33.86.13.7-.3a18.79,18.79,0,0,0-3-4.84c-.6-.74-1.25-1.44-1.92-2.12-.34-.34-.7-.65-1.07-1s-.89-.53-1.27-.86c0-.05-.13,0-.08.08Z"/><path class="cls-5" d="M67.94,20.75a35.92,35.92,0,0,1,5,8.32c.2.43.9.13.76-.32a21.21,21.21,0,0,0-5.28-8.44c-.29-.29-.69.14-.44.44Z"/><path class="cls-5" d="M82.49,16.65a21.76,21.76,0,0,1,2.89,7c.14.61,1,.34.92-.25a13.62,13.62,0,0,0-3.38-7,.27.27,0,0,0-.43.33Z"/><path class="cls-5" d="M53.54,20.72c1.18,1.08,2.38,2.15,3.54,3.25s2.29,2.28,3.43,3.4c.23.23.67-.07.47-.35a22.88,22.88,0,0,0-3.3-3.65,22.62,22.62,0,0,0-3.93-2.94.18.18,0,0,0-.21.29Z"/><path class="cls-5" d="M71.76,12.22a82.69,82.69,0,0,1,5.6,7.8.3.3,0,0,0,.51-.3A21.92,21.92,0,0,0,72,12a.13.13,0,0,0-.19.18Z"/><path class="cls-5" d="M38.08,63.79a31.9,31.9,0,0,1,3.64,2.47c.56.44,1.12.91,1.64,1.41s1,1,1.61,1.53c.32.27.83-.07.61-.46a10.54,10.54,0,0,0-3.31-3.2,12.71,12.71,0,0,0-4.17-1.81,0,0,0,0,0,0,.06Z"/><path class="cls-5" d="M21.61,63.88a52.27,52.27,0,0,1,6.86,1.87.29.29,0,0,0,.23-.53,16.51,16.51,0,0,0-7-2.06c-.41,0-.5.65-.1.72Z"/><path class="cls-5" d="M29,68.61a30.23,30.23,0,0,1,4,1.34c1.28.55,2.48,1.23,3.73,1.84.31.15.68-.25.39-.5a12.83,12.83,0,0,0-3.79-2.11,16.25,16.25,0,0,0-4.23-1c-.27,0-.31.39-.06.46Z"/><path class="cls-5" d="M38.45,74.35a16.18,16.18,0,0,1,2.88,1.73,26.26,26.26,0,0,1,2.49,2.23.42.42,0,0,0,.59-.59,11.84,11.84,0,0,0-2.64-2.3,17.11,17.11,0,0,0-3.09-1.61c-.31-.12-.53.4-.23.54Z"/><path class="cls-5" d="M29.07,77.91a20.72,20.72,0,0,1,7.85,4.7c.54.51,1.36-.3.82-.82a18,18,0,0,0-8.48-4.58.36.36,0,0,0-.19.7Z"/><path class="cls-5" d="M19.67,77.81a11.12,11.12,0,0,1,4.7.08.33.33,0,0,0,.17-.64,9.47,9.47,0,0,0-5,0,.27.27,0,0,0,.14.53Z"/><path class="cls-5" d="M24,84.58a13.37,13.37,0,0,1,2.73.56,23.76,23.76,0,0,1,2.55,1.08.5.5,0,0,0,.62-.12.47.47,0,0,0,0-.63A7.66,7.66,0,0,0,27,84.14,9.79,9.79,0,0,0,24,83.81a.39.39,0,0,0,0,.77Z"/><path class="cls-5" d="M12.3,87.69c2.41-.3,4.84-.5,7.23-.91.45-.07.34-.79-.1-.78a46.15,46.15,0,0,0-7.23.94c-.42.08-.33.81.1.75Z"/><path class="cls-5" d="M25.91,90.23a20.55,20.55,0,0,1,3.55.66,17.69,17.69,0,0,1,3.46,1.19,17.07,17.07,0,0,1,3,1.76A16.81,16.81,0,0,1,37.3,95a6,6,0,0,0,1.35,1.11c.29.14.73-.1.6-.46a6.53,6.53,0,0,0-2.52-2.59,16.84,16.84,0,0,0-3.38-1.92,15.65,15.65,0,0,0-3.56-1,13.63,13.63,0,0,0-3.88,0c-.07,0-.07.11,0,.11Z"/><path class="cls-5" d="M33.15,85.29a8.31,8.31,0,0,1,1.36.7,9.7,9.7,0,0,1,1.24.85,10.81,10.81,0,0,1,1.08,1.06c.17.19.32.39.48.59a2.76,2.76,0,0,0,.62.56c.29.22.6-.14.55-.43a1.77,1.77,0,0,0-.3-.8A7.67,7.67,0,0,0,36.34,86a7.45,7.45,0,0,0-3-1.3.3.3,0,0,0-.16.58Z"/><path class="cls-5" d="M11.36,102.53a40.58,40.58,0,0,1,4.53-.55,9.79,9.79,0,0,1,2.16.16c.72.15,1.4.43,2.11.62.37.1.71-.4.39-.68-1.19-1-3-1.14-4.51-1a18.05,18.05,0,0,0-4.8,1.08.21.21,0,0,0,.12.41Z"/><path class="cls-5" d="M23.24,101.72a19.88,19.88,0,0,1,3.56,1.74,14.13,14.13,0,0,1,1.58,1.07c.27.2.52.43.78.63a4,4,0,0,0,.9.5c.32.14.68-.15.49-.49a4.4,4.4,0,0,0-1.46-1.48,18.13,18.13,0,0,0-1.78-1.1,15.71,15.71,0,0,0-3.91-1.44.3.3,0,0,0-.16.57Z"/><path class="cls-5" d="M29.67,100c.16,0,.35.21.47.3l.33.27.65.47c.45.35.9.7,1.32,1.08a16.56,16.56,0,0,1,1.19,1.18c.2.21.39.43.58.66a4.47,4.47,0,0,0,.63.6c.26.2.78,0,.63-.37a3,3,0,0,0-.46-.85c-.2-.23-.41-.46-.62-.68A11.2,11.2,0,0,0,33,101.43a8.64,8.64,0,0,0-1.54-.93,6.81,6.81,0,0,0-.78-.34,3.9,3.9,0,0,0-.46-.12c-.15,0-.4-.05-.51-.16s-.14.08,0,.08Z"/><path class="cls-5" d="M28.81,108.64a37.84,37.84,0,0,1,4.2,1.67q1,.47,1.92,1a17.44,17.44,0,0,0,2,1.14.44.44,0,0,0,.53-.69,11.41,11.41,0,0,0-4.06-2.46,16.34,16.34,0,0,0-4.55-1.19c-.3,0-.33.42-.06.51Z"/><path class="cls-5" d="M9.47,115.34a13.78,13.78,0,0,1,4.4-1.52,10,10,0,0,1,2.32-.12c.76,0,1.5.25,2.27.28a.41.41,0,0,0,.2-.75,5.49,5.49,0,0,0-2.4-.49,12.15,12.15,0,0,0-2.55.22,8.72,8.72,0,0,0-4.32,2.28c-.05.05,0,.13.08.1Z"/><path class="cls-5" d="M23.49,114.1a16.5,16.5,0,0,1,3.92,1c1.25.45,2.38,1.16,3.61,1.65.38.14.62-.39.38-.64a8.45,8.45,0,0,0-3.72-2,14.12,14.12,0,0,0-4.19-.61c-.43,0-.41.62,0,.66Z"/><path class="cls-5" d="M12.69,131a19.09,19.09,0,0,1,4.82-3,14.41,14.41,0,0,1,2.64-.82c.92-.19,1.86-.21,2.77-.43.26-.06.28-.51,0-.56a7.41,7.41,0,0,0-2.81.21,16.27,16.27,0,0,0-2.84.93,12.38,12.38,0,0,0-4.71,3.54.09.09,0,1,0,.13.13Z"/><path class="cls-5" d="M14.56,124.23a16.86,16.86,0,0,1,4.32-1.74,32.61,32.61,0,0,1,4.62-.59c.3,0,.43-.52.07-.59a11.31,11.31,0,0,0-4.83.39,15.9,15.9,0,0,0-4.5,2,.31.31,0,0,0,.32.54Z"/><path class="cls-5" d="M28.88,123.76a16.71,16.71,0,0,1,3.66-1.14c.63-.12,1.25-.22,1.88-.28a10.7,10.7,0,0,0,1.88-.19.45.45,0,0,0,0-.86,5.23,5.23,0,0,0-2,0,14.94,14.94,0,0,0-2,.41,17.15,17.15,0,0,0-3.7,1.55c-.31.18,0,.61.28.47Z"/><path class="cls-5" d="M11.86,143.32A18.83,18.83,0,0,1,15.43,140a15.29,15.29,0,0,1,2.09-1.17c.75-.33,1.54-.55,2.28-.88a.38.38,0,0,0-.19-.71,6.74,6.74,0,0,0-2.5.77,11.68,11.68,0,0,0-2.19,1.34,9.59,9.59,0,0,0-3.12,3.9s0,.06.06,0Z"/><path class="cls-5" d="M18.42,154a12.91,12.91,0,0,1,3.3-3.72A10.71,10.71,0,0,1,23.83,149a24.5,24.5,0,0,1,2.36-.84c.41-.15.37-.83-.11-.8a9.34,9.34,0,0,0-4.93,2.17A9.94,9.94,0,0,0,18,153.81c-.09.25.3.4.43.18Z"/><path class="cls-5" d="M18.21,162.08a12.86,12.86,0,0,1,2.44-3.36A17.6,17.6,0,0,1,24,156.25c.29-.17.11-.67-.23-.55a10.47,10.47,0,0,0-6,6.18c-.11.28.35.47.49.2Z"/><path class="cls-5" d="M26.5,170A13.73,13.73,0,0,1,29,165.69a19,19,0,0,1,3.73-3.19c.23-.16.1-.62-.21-.5-3.25,1.29-5.56,4.56-6.42,7.86-.07.26.32.36.41.11Z"/><path class="cls-5" d="M35,175.05a16,16,0,0,1,3.13-6.25c.25-.33-.26-.64-.54-.42a10.48,10.48,0,0,0-3.38,6.45c-.09.51.68.75.79.22Z"/><path class="cls-5" d="M41.14,164.71A16.4,16.4,0,0,1,43.43,161a37.8,37.8,0,0,1,3-3.15.35.35,0,0,0-.43-.55,11.11,11.11,0,0,0-3.33,3.15,17,17,0,0,0-2.19,4c-.14.35.46.61.61.26Z"/><path class="cls-5" d="M31.82,158.56a15.92,15.92,0,0,1,6-6.26.32.32,0,0,0-.33-.55,12,12,0,0,0-5.7,6.78c0,.05.06.08.08,0Z"/><path class="cls-5" d="M22.82,145.05a19.92,19.92,0,0,1,3.53-3,16.76,16.76,0,0,1,2-1.1c.71-.33,1.45-.57,2.17-.88.42-.19.11-.8-.3-.72a12.36,12.36,0,0,0-4.34,2.12,14.16,14.16,0,0,0-3.43,3.3c-.16.23.19.49.38.3Z"/><path class="cls-5" d="M21.23,134.36A15.66,15.66,0,0,1,29,131c.42-.07.33-.78-.1-.75a12.74,12.74,0,0,0-8,3.73c-.26.26.13.63.4.4Z"/><path class="cls-5" d="M23.22,139a19,19,0,0,1,7-3.69.44.44,0,0,0-.23-.85,18,18,0,0,0-7.26,4.09c-.3.28.14.71.45.45Z"/><path class="cls-5" d="M35.85,132.11a12.18,12.18,0,0,1,5.1-2.4c.49-.11.28-.88-.21-.76a13,13,0,0,0-5.32,2.73c-.3.26.13.67.43.43Z"/><path class="cls-5" d="M34.82,138.7a13.94,13.94,0,0,1,5.2-3.23c.58-.21.32-1.16-.26-.94a15.09,15.09,0,0,0-5.52,3.58.41.41,0,0,0,.58.59Z"/><path class="cls-5" d="M29,151.9a25.79,25.79,0,0,1,2.79-3.55,18.65,18.65,0,0,1,3.5-2.82c.59-.35,0-1.28-.53-.91a18.74,18.74,0,0,0-3.67,3,14.42,14.42,0,0,0-2.68,3.9.34.34,0,0,0,.59.35Z"/><path class="cls-5" d="M38.55,146.66a22.17,22.17,0,0,1,6.27-4.78c.47-.25,0-.95-.42-.72a17.61,17.61,0,0,0-6.24,5.19c-.18.23.2.51.39.31Z"/><path class="cls-5" d="M38,159.71a24.7,24.7,0,0,1,6.68-6.41c.49-.32,0-1.11-.45-.78a21.38,21.38,0,0,0-6.62,7c-.15.26.23.46.39.23Z"/><path class="cls-5" d="M49.83,153.46a12.19,12.19,0,0,1,5.24-4.4.47.47,0,0,0,.17-.65.49.49,0,0,0-.65-.17,12.08,12.08,0,0,0-5.3,4.9.31.31,0,0,0,.54.32Z"/><path class="cls-5" d="M44.93,147.51a23.08,23.08,0,0,1,7.56-4.83c.44-.17.27-.87-.2-.72a18.41,18.41,0,0,0-7.74,5.17.27.27,0,0,0,.38.38Z"/><path class="cls-5" d="M33.44,55.8A25.3,25.3,0,0,1,37,57.92a40,40,0,0,1,3.2,2.61.49.49,0,0,0,.69-.7,16.76,16.76,0,0,0-7.22-4.52.27.27,0,0,0-.21.49Z"/><path class="cls-5" d="M42,53.35a30.77,30.77,0,0,1,2.54,2.31c.39.4.77.8,1.15,1.21.2.21.4.43.62.63A5.52,5.52,0,0,0,47,58c.32.24.64-.21.5-.5a4.28,4.28,0,0,0-.43-.75,8.48,8.48,0,0,0-.6-.72c-.39-.42-.8-.81-1.23-1.2a30.6,30.6,0,0,0-2.72-2.22c-.4-.3-.93.38-.54.7Z"/><path class="cls-5" d="M48.33,47.9a18.47,18.47,0,0,1,2.79,2.8,15.57,15.57,0,0,1,1.11,1.55,12.62,12.62,0,0,0,1.14,1.67c.3.34.81,0,.72-.42a5.18,5.18,0,0,0-.92-1.85A15.84,15.84,0,0,0,51.86,50a14.89,14.89,0,0,0-3.15-2.61c-.3-.18-.66.27-.38.49Z"/><path class="cls-5" d="M52.63,43.53a20.77,20.77,0,0,1,2.61,3.22c.77,1.16,1.36,2.41,2.09,3.59A.48.48,0,0,0,58.2,50a10.73,10.73,0,0,0-2-3.83,18.26,18.26,0,0,0-3-3.12c-.35-.29-.85.18-.51.51Z"/><path class="cls-5" d="M59.45,35.9A30.08,30.08,0,0,1,63.08,40c1.08,1.46,1.91,3.1,3,4.5.25.31.71,0,.63-.36A13.4,13.4,0,0,0,64,39.33a24.38,24.38,0,0,0-4-3.9c-.33-.26-.8.17-.47.47Z"/><path class="cls-5" d="M40,32.79a20.09,20.09,0,0,1,4.19,2.6,42.82,42.82,0,0,1,3.52,3.48.47.47,0,0,0,.74-.56,12.22,12.22,0,0,0-3.59-3.78,16,16,0,0,0-4.61-2.34c-.35-.11-.59.44-.25.6Z"/><path class="cls-5" d="M53.32,36.17A17,17,0,0,1,56,39c.39.52.73,1.08,1.07,1.64s.7,1.14,1.06,1.72A.46.46,0,0,0,59,42a9.86,9.86,0,0,0-2.09-3.68,13.72,13.72,0,0,0-3.17-2.71c-.32-.2-.71.28-.41.53Z"/><path class="cls-5" d="M28.61,45.69c1.09.77,2.16,1.57,3.25,2.33s2.11,1.64,3.25,2.31a.45.45,0,0,0,.54-.7,17.39,17.39,0,0,0-3.25-2.4,24.57,24.57,0,0,0-3.61-1.85.18.18,0,0,0-.18.31Z"/><path class="cls-5" d="M39.62,46.69a17.5,17.5,0,0,1,3.05,2.05c.95.78,1.79,1.7,2.71,2.52.37.33,1-.09.71-.55a9.36,9.36,0,0,0-2.8-2.77,15,15,0,0,0-3.47-1.72.26.26,0,0,0-.2.47Z"/><path class="cls-5" d="M40.26,40.24a24.18,24.18,0,0,1,3.13,2.48c.49.45,1,.92,1.39,1.41s.93,1,1.42,1.44a.42.42,0,0,0,.66-.51,8.26,8.26,0,0,0-1.28-1.66Q44.83,42.68,44,42a20.34,20.34,0,0,0-3.5-2.23.26.26,0,0,0-.26.45Z"/><path class="cls-5" d="M99.24,17.21a27.84,27.84,0,0,0-.79,2.7c-.16.82-.31,1.65-.41,2.49a19.51,19.51,0,0,0-.13,5.34c.08.5.76.32.81-.11.18-1.7.07-3.42.2-5.13.06-.83.13-1.67.22-2.5s.14-1.83.28-2.74c0-.12-.15-.17-.18-.05Z"/><path class="cls-5" d="M100.09,36.58a15,15,0,0,0-1.43,2.49,25.42,25.42,0,0,0-.94,2.57,15.87,15.87,0,0,0-1,5.53.44.44,0,0,0,.87.12c.51-1.75.69-3.59,1.16-5.36.23-.87.49-1.74.77-2.59s.5-1.78.78-2.66c0-.15-.16-.22-.24-.1Z"/><path class="cls-5" d="M102.92,43a54.11,54.11,0,0,0-4.55,11.81.52.52,0,0,0,1,.28c1.27-4,2.42-8,3.9-11.94.07-.2-.26-.34-.36-.15Z"/><path class="cls-5" d="M104.62,53c-.21.34-.5.63-.71,1s-.37.6-.54.9c-.35.66-.67,1.34-1,2a15,15,0,0,0-1.26,4.23.34.34,0,0,0,.63.17c.62-1.3,1-2.68,1.52-4,.24-.66.48-1.31.74-2,.13-.32.25-.64.37-1s.23-.84.41-1.23a.11.11,0,0,0-.19-.11Z"/><path class="cls-5" d="M114.24,48.26a20.93,20.93,0,0,0-3.57,4.65,16.75,16.75,0,0,0-2.1,5.49.44.44,0,0,0,.85.23,39.22,39.22,0,0,1,2.12-5.21,25.65,25.65,0,0,1,3.18-4.67c.29-.34-.16-.81-.48-.49Z"/><path class="cls-5" d="M126.66,47.54a22.23,22.23,0,0,0-4,4.08,15.12,15.12,0,0,0-2.71,5,.37.37,0,0,0,.67.29c1-1.53,1.82-3.18,2.91-4.67a29.3,29.3,0,0,1,3.67-4.12c.38-.36-.18-.87-.57-.56Z"/><path class="cls-5" d="M113.17,35.49a25.15,25.15,0,0,0-1.82,2,18.36,18.36,0,0,0-1.5,2.42A15,15,0,0,0,108,45.21a.36.36,0,0,0,.67.18c.71-1.66,1.24-3.39,2-5,.38-.81.8-1.6,1.23-2.39a24.57,24.57,0,0,1,1.35-2.4c0-.06-.06-.13-.1-.08Z"/><path class="cls-5" d="M109.18,24.05a19.94,19.94,0,0,0-4.69,8.69.46.46,0,0,0,.89.25,38.06,38.06,0,0,1,1.78-4.51c.69-1.46,1.45-2.87,2.17-4.31,0-.1-.07-.2-.15-.12Z"/><path class="cls-5" d="M124.16,30.43c-.36.32-.83.51-1.21.82a13.71,13.71,0,0,0-1.07,1,29.11,29.11,0,0,0-2,2.17,18.49,18.49,0,0,0-3,4.84c-.17.43.47.63.7.3,1.05-1.54,2-3.14,3.09-4.65.55-.73,1.13-1.45,1.74-2.14.32-.36.63-.72.94-1.09a11,11,0,0,1,.9-1.12c.05-.05,0-.13-.08-.08Z"/><path class="cls-5" d="M120.86,20.31a21.33,21.33,0,0,0-5.28,8.44c-.13.44.56.75.76.32a36.27,36.27,0,0,1,5-8.32c.26-.3-.15-.73-.44-.44Z"/><path class="cls-5" d="M106.32,16.32a13.62,13.62,0,0,0-3.38,7c-.09.59.79.86.92.25a22,22,0,0,1,2.89-7,.27.27,0,0,0-.43-.33Z"/><path class="cls-5" d="M135.49,20.43a22.62,22.62,0,0,0-3.93,2.94,22.88,22.88,0,0,0-3.3,3.65c-.2.27.23.59.47.35,1.15-1.12,2.26-2.29,3.43-3.4s2.37-2.17,3.55-3.25c.15-.14-.05-.39-.22-.29Z"/><path class="cls-5" d="M117.29,12a22,22,0,0,0-5.92,7.68.3.3,0,0,0,.51.3,82.69,82.69,0,0,1,5.6-7.8.13.13,0,1,0-.19-.18Z"/><path class="cls-5" d="M151.14,63.73A12.71,12.71,0,0,0,147,65.54a10.4,10.4,0,0,0-3.3,3.2c-.23.39.27.73.6.46.55-.46,1-1,1.57-1.49s1.1-1,1.68-1.45a31.16,31.16,0,0,1,3.65-2.47,0,0,0,0,0,0-.06Z"/><path class="cls-5" d="M167.53,63.16a16.43,16.43,0,0,0-7,2.06.29.29,0,0,0,.22.53,52.27,52.27,0,0,1,6.86-1.87c.4-.07.31-.75-.1-.72Z"/><path class="cls-5" d="M160.22,68.15a16.35,16.35,0,0,0-4.23,1,12.83,12.83,0,0,0-3.79,2.11c-.29.25.08.65.39.5,1.25-.61,2.45-1.29,3.73-1.84a30.23,30.23,0,0,1,4-1.34c.25-.07.21-.49-.06-.46Z"/><path class="cls-5" d="M150.56,73.81a16.7,16.7,0,0,0-3.08,1.61,11.67,11.67,0,0,0-2.65,2.3.42.42,0,0,0,.59.59,26.26,26.26,0,0,1,2.49-2.23,16.54,16.54,0,0,1,2.88-1.73c.3-.14.09-.66-.23-.54Z"/><path class="cls-5" d="M160,77.21a18,18,0,0,0-8.48,4.58c-.54.52.28,1.33.82.82a20.72,20.72,0,0,1,7.85-4.7.36.36,0,0,0-.19-.7Z"/><path class="cls-5" d="M169.72,77.28a9.5,9.5,0,0,0-5,0,.33.33,0,0,0,.17.64,11.12,11.12,0,0,1,4.7-.08c.34.07.49-.44.15-.53Z"/><path class="cls-5" d="M165.26,83.81a9.79,9.79,0,0,0-3,.33,7.66,7.66,0,0,0-2.81,1.33.49.49,0,0,0,0,.63.49.49,0,0,0,.62.12,23.76,23.76,0,0,1,2.55-1.08,13.51,13.51,0,0,1,2.73-.56.39.39,0,0,0,0-.77Z"/><path class="cls-5" d="M177.05,86.94a46.43,46.43,0,0,0-7.24-.94c-.43,0-.55.71-.1.78,2.4.41,4.82.61,7.23.91.43.06.53-.67.11-.75Z"/><path class="cls-5" d="M163.33,90.12a13.67,13.67,0,0,0-3.78-.05,15.51,15.51,0,0,0-3.66,1.06,17.58,17.58,0,0,0-3.3,1.86,6.75,6.75,0,0,0-2.6,2.65c-.13.36.31.6.6.46a19,19,0,0,0,2.65-2.2,17.41,17.41,0,0,1,3.09-1.82,18.73,18.73,0,0,1,3.35-1.17,21.72,21.72,0,0,1,3.65-.68c.08,0,.07-.1,0-.11Z"/><path class="cls-5" d="M155.93,84.71a7.45,7.45,0,0,0-3,1.3,7.9,7.9,0,0,0-1.27,1.11,6.36,6.36,0,0,0-.56.7,1.79,1.79,0,0,0-.31.8c0,.29.26.65.55.43a3.12,3.12,0,0,0,.58-.5c.17-.21.32-.42.5-.62a9.44,9.44,0,0,1,1.1-1.09A10,10,0,0,1,154.7,86a8,8,0,0,1,1.39-.72.3.3,0,0,0-.16-.58Z"/><path class="cls-5" d="M178,102.12a18,18,0,0,0-4.8-1.08,6.26,6.26,0,0,0-4.51,1c-.32.28,0,.78.39.68.71-.19,1.4-.47,2.11-.62a9.79,9.79,0,0,1,2.16-.16,40.76,40.76,0,0,1,4.54.55.21.21,0,0,0,.11-.41Z"/><path class="cls-5" d="M165.84,101.15a15.71,15.71,0,0,0-3.91,1.44,18.33,18.33,0,0,0-1.73,1.07,4.45,4.45,0,0,0-1.51,1.51.36.36,0,0,0,.49.49,3.54,3.54,0,0,0,.85-.47c.27-.2.52-.43.79-.63a15.92,15.92,0,0,1,1.62-1.1,19.88,19.88,0,0,1,3.56-1.74.3.3,0,0,0-.16-.57Z"/><path class="cls-5" d="M159.54,99.88c-.11.1-.34.11-.48.15a3.9,3.9,0,0,0-.46.12,6.52,6.52,0,0,0-.82.35,8.64,8.64,0,0,0-1.54.93,11.2,11.2,0,0,0-1.39,1.19c-.2.21-.4.42-.59.65a2.92,2.92,0,0,0-.49.88.39.39,0,0,0,.17.43.41.41,0,0,0,.46-.06,13.82,13.82,0,0,0,1.19-1.23,15.35,15.35,0,0,1,1.21-1.21c.41-.37.85-.71,1.28-1,.23-.17.47-.33.69-.5s.2-.17.3-.24.34-.32.5-.33,0-.15,0-.08Z"/><path class="cls-5" d="M160.37,108.13a16.19,16.19,0,0,0-4.54,1.19,11.37,11.37,0,0,0-4.07,2.46.44.44,0,0,0,.53.69,16.65,16.65,0,0,0,2-1.14c.63-.37,1.27-.71,1.93-1a36.35,36.35,0,0,1,4.2-1.67c.26-.09.23-.55-.07-.51Z"/><path class="cls-5" d="M179.85,115.24a8.68,8.68,0,0,0-4.32-2.28,11.45,11.45,0,0,0-2.48-.22,5.52,5.52,0,0,0-2.47.49.41.41,0,0,0,.2.75c.77,0,1.51-.23,2.27-.28a10,10,0,0,1,2.32.12,13.78,13.78,0,0,1,4.4,1.52c.07,0,.13,0,.08-.1Z"/><path class="cls-5" d="M165.75,113.44a14.12,14.12,0,0,0-4.19.61,8.42,8.42,0,0,0-3.71,2c-.25.25,0,.78.37.64,1.24-.49,2.36-1.2,3.61-1.65a16.74,16.74,0,0,1,3.92-1c.41,0,.43-.66,0-.66Z"/><path class="cls-5" d="M176.68,130.88a12.38,12.38,0,0,0-4.71-3.54,16.52,16.52,0,0,0-2.76-.91,7.42,7.42,0,0,0-2.89-.23c-.28,0-.26.5,0,.56.88.21,1.8.23,2.69.41a14.5,14.5,0,0,1,2.72.84,19.09,19.09,0,0,1,4.82,3c.1.08.21,0,.13-.13Z"/><path class="cls-5" d="M175,123.69a15.9,15.9,0,0,0-4.5-2,11.31,11.31,0,0,0-4.83-.39c-.36.07-.23.55.08.59a32.47,32.47,0,0,1,4.61.59,16.93,16.93,0,0,1,4.33,1.74.31.31,0,0,0,.31-.54Z"/><path class="cls-5" d="M160.64,123.29a17.15,17.15,0,0,0-3.7-1.55,15.13,15.13,0,0,0-2-.41,5.29,5.29,0,0,0-2,0,.45.45,0,0,0,0,.86,10.7,10.7,0,0,0,1.88.19c.63.06,1.26.16,1.88.28a16.71,16.71,0,0,1,3.66,1.14c.32.14.59-.29.28-.47Z"/><path class="cls-5" d="M177.45,143.29a9.53,9.53,0,0,0-3.13-3.9,11.68,11.68,0,0,0-2.19-1.34,6.74,6.74,0,0,0-2.5-.77c-.36,0-.54.56-.19.71.73.32,1.49.54,2.22.86a14.52,14.52,0,0,1,2.15,1.19,18.83,18.83,0,0,1,3.57,3.28s.08,0,.07,0Z"/><path class="cls-5" d="M171.25,153.81a9.86,9.86,0,0,0-3.16-4.27,9.3,9.3,0,0,0-4.93-2.17c-.48,0-.52.65-.11.8a23.46,23.46,0,0,1,2.31.82,10.42,10.42,0,0,1,2.16,1.28,12.91,12.91,0,0,1,3.3,3.72c.13.22.53.07.43-.18Z"/><path class="cls-5" d="M171.52,161.88a10.47,10.47,0,0,0-6-6.18c-.33-.11-.52.38-.23.55a17.6,17.6,0,0,1,3.34,2.47,12.42,12.42,0,0,1,2.44,3.36c.14.27.6.08.49-.2Z"/><path class="cls-5" d="M163.15,169.86c-.86-3.3-3.17-6.57-6.42-7.86-.3-.12-.44.34-.21.5a19.37,19.37,0,0,1,3.74,3.19,13.9,13.9,0,0,1,2.48,4.28c.09.25.48.15.41-.11Z"/><path class="cls-5" d="M155.07,174.83a10.55,10.55,0,0,0-3.39-6.45c-.27-.22-.79.09-.54.42a16,16,0,0,1,3.13,6.25c.11.53.88.3.8-.22Z"/><path class="cls-5" d="M148.71,164.45a17,17,0,0,0-2.19-4,11,11,0,0,0-3.33-3.15.35.35,0,0,0-.43.55,37.8,37.8,0,0,1,3.05,3.15,16.4,16.4,0,0,1,2.29,3.73c.15.34.75.1.61-.26Z"/><path class="cls-5" d="M157.51,158.53a12,12,0,0,0-5.71-6.78.32.32,0,0,0-.33.55,15.85,15.85,0,0,1,5.95,6.26c0,.05.1,0,.09,0Z"/><path class="cls-5" d="M166.8,144.75a14.29,14.29,0,0,0-3.42-3.3,12.49,12.49,0,0,0-4.35-2.12c-.4-.08-.73.53-.3.72.7.3,1.42.53,2.11.85a17,17,0,0,1,2,1.13,19.92,19.92,0,0,1,3.53,3c.19.19.54-.07.38-.3Z"/><path class="cls-5" d="M168.41,134a12.74,12.74,0,0,0-8-3.73c-.42,0-.53.68-.1.75a15.66,15.66,0,0,1,7.72,3.38c.27.23.66-.14.4-.4Z"/><path class="cls-5" d="M166.47,138.5a17.88,17.88,0,0,0-7.26-4.09.44.44,0,0,0-.23.85,19,19,0,0,1,7,3.69c.31.26.76-.17.45-.45Z"/><path class="cls-5" d="M153.82,131.68A13,13,0,0,0,148.5,129c-.49-.12-.7.65-.21.76a12.12,12.12,0,0,1,5.1,2.4c.3.24.74-.17.43-.43Z"/><path class="cls-5" d="M155,138.11a15.21,15.21,0,0,0-5.53-3.58c-.58-.21-.84.73-.25.94a14,14,0,0,1,5.19,3.23.42.42,0,0,0,.59-.59Z"/><path class="cls-5" d="M160.83,151.55a14.42,14.42,0,0,0-2.68-3.9,18.39,18.39,0,0,0-3.67-3c-.57-.37-1.11.56-.53.91a18.26,18.26,0,0,1,3.5,2.82,25.79,25.79,0,0,1,2.79,3.55.34.34,0,0,0,.59-.35Z"/><path class="cls-5" d="M151.09,146.35a17.73,17.73,0,0,0-6.25-5.19c-.47-.23-.89.46-.41.72a22.27,22.27,0,0,1,6.26,4.78c.19.2.57-.08.4-.31Z"/><path class="cls-5" d="M151.62,159.48a21.38,21.38,0,0,0-6.62-7c-.48-.33-.94.46-.45.78a24.55,24.55,0,0,1,6.68,6.41c.16.23.54,0,.39-.23Z"/><path class="cls-5" d="M140,153.14a12,12,0,0,0-5.3-4.9.49.49,0,0,0-.65.17.47.47,0,0,0,.17.65,12.19,12.19,0,0,1,5.24,4.4.31.31,0,0,0,.54-.32Z"/><path class="cls-5" d="M144.7,147.13A18.5,18.5,0,0,0,137,142c-.47-.15-.64.55-.2.72a23,23,0,0,1,7.56,4.83.27.27,0,0,0,.39-.38Z"/><path class="cls-5" d="M155.59,55.31a16.82,16.82,0,0,0-7.22,4.52.49.49,0,0,0,.69.7c1-.9,2.08-1.82,3.2-2.61a25.89,25.89,0,0,1,3.54-2.12c.26-.14.08-.59-.21-.49Z"/><path class="cls-5" d="M146.7,52.65A33.78,33.78,0,0,0,144,54.87c-.42.39-.83.78-1.23,1.2a8.48,8.48,0,0,0-.6.72,4.57,4.57,0,0,0-.43.75c-.14.29.18.74.51.5a6.2,6.2,0,0,0,.7-.54,8.35,8.35,0,0,0,.59-.6c.39-.42.78-.83,1.19-1.24a30.64,30.64,0,0,1,2.53-2.31c.39-.32-.13-1-.54-.7Z"/><path class="cls-5" d="M140.53,47.41A14.89,14.89,0,0,0,137.38,50a15.09,15.09,0,0,0-1.28,1.59,5.19,5.19,0,0,0-.95,1.89c-.09.39.42.76.72.42A11.41,11.41,0,0,0,137,52.29a14.94,14.94,0,0,1,1.15-1.59,18.4,18.4,0,0,1,2.78-2.8c.28-.22-.08-.67-.38-.49Z"/><path class="cls-5" d="M136.11,43a18.32,18.32,0,0,0-3,3.12A10.73,10.73,0,0,0,131,50a.48.48,0,0,0,.87.37c.73-1.18,1.32-2.43,2.1-3.59a20.7,20.7,0,0,1,2.6-3.22c.34-.33-.15-.8-.5-.51Z"/><path class="cls-5" d="M129.32,35.43a24.38,24.38,0,0,0-4,3.9,13.4,13.4,0,0,0-2.8,4.81c-.08.33.38.67.63.36,1.13-1.4,2-3,3-4.5a30.77,30.77,0,0,1,3.63-4.1c.33-.3-.14-.73-.47-.47Z"/><path class="cls-5" d="M149,32.19a16.17,16.17,0,0,0-4.61,2.34,12.07,12.07,0,0,0-3.58,3.78.47.47,0,0,0,.73.56A44.46,44.46,0,0,1,145,35.39a20.36,20.36,0,0,1,4.19-2.6c.34-.16.1-.71-.25-.6Z"/><path class="cls-5" d="M135.52,35.64a14,14,0,0,0-3.18,2.71A9.78,9.78,0,0,0,130.25,42a.47.47,0,0,0,.85.36l1.05-1.72c.34-.56.68-1.12,1.07-1.64a17,17,0,0,1,2.7-2.86c.3-.24-.08-.73-.4-.53Z"/><path class="cls-5" d="M160.45,45.38a24.57,24.57,0,0,0-3.61,1.85,17.39,17.39,0,0,0-3.25,2.4.45.45,0,0,0,.54.7c1.14-.67,2.16-1.54,3.25-2.31s2.16-1.56,3.25-2.33a.18.18,0,0,0-.18-.31Z"/><path class="cls-5" d="M149.42,46.22A14.71,14.71,0,0,0,146,47.94a9.28,9.28,0,0,0-2.81,2.77.46.46,0,0,0,.71.55c.92-.82,1.76-1.74,2.71-2.52a17.88,17.88,0,0,1,3.05-2.05.26.26,0,0,0-.2-.47Z"/><path class="cls-5" d="M148.72,39.79a20.34,20.34,0,0,0-3.5,2.23c-.53.43-1,.88-1.52,1.35a8.36,8.36,0,0,0-1.32,1.69.42.42,0,0,0,.66.51c.48-.46.94-.91,1.39-1.41s.92-1,1.42-1.44A24.18,24.18,0,0,1,149,40.24a.26.26,0,0,0-.26-.45Z"/><path class="cls-6" d="M116.46,151.14H72.78c-21.85,2-32,26.66-32,26.66C58,193,94.62,192.71,94.62,192.71s36.67.32,53.81-14.91C148.43,177.8,138.31,153.15,116.46,151.14Z"/><path class="cls-7" d="M110.79,162.31c-1.55-2.91-1.14-7.27-.39-10.81H78.85c.75,3.54,1.15,7.9-.4,10.81C75.67,167.52,65.07,174.7,65,189.1a134.94,134.94,0,0,0,29.66,3.61,134.94,134.94,0,0,0,29.66-3.61C124.17,174.7,113.57,167.52,110.79,162.31Z"/><path class="cls-8" d="M72.78,151.14a31.07,31.07,0,0,0-13.38,4.51c16.4,7.17,35.22,7.48,35.22,7.48s18.82-.31,35.22-7.48a31,31,0,0,0-13.38-4.51Z"/><path class="cls-5" d="M149.15,177.55a51.18,51.18,0,0,0-13.52-18.64,34.46,34.46,0,0,0-17-8.3,49.31,49.31,0,0,0-7.59-.27H81.21c-2.76,0-5.53-.09-8.28,0-5.6.19-11.29,2.69-15.82,5.84A50.76,50.76,0,0,0,40.34,177c-.09.2-.17.39-.25.59-.37.89,1.08,1.28,1.45.39-.11.26.08-.18.15-.33.2-.44.41-.88.62-1.32.74-1.5,1.56-2.95,2.43-4.38A51.09,51.09,0,0,1,54.67,160a32.66,32.66,0,0,1,17.12-8,54.14,54.14,0,0,1,6.86-.11h29c2.85,0,5.7-.06,8.55,0,5.23.12,10.58,2.5,14.84,5.39,7.25,4.93,12.92,12.44,16.54,20.38.06.14.26.6.15.33.36.89,1.81.5,1.44-.39Z"/><path class="cls-6" d="M128.53,58.48l-.51-.34c-1.66,2.19-4.45,5.44-5.82,4.61-2-1.22-4.55-7.69-8.71-2.44s-7,8-8.35,4S99,71.65,94.62,70.52c-4.34,1.13-9.12-10.21-10.51-6.19s-4.2,1.22-8.36-4-6.67,1.22-8.7,2.44c-1.38.83-4.17-2.42-5.83-4.61l-.51.34c-27.51,19.37-30.2,57-22,73.37C51,156.41,94.62,157.13,94.62,157.13s43.64-.72,55.92-25.28C158.74,115.47,156,77.85,128.53,58.48Z"/><path class="cls-8" d="M95.08,75.51c-6.79,0-8.21-7.17-9.71-6.41s-5.56,2.72-9.18-2.39-6-.33-9.25,0c-2.34.23-3.66-4.15-4.24-6.74,1.54,1.77,3.33,3.4,4.35,2.78,2-1.22,4.54-7.69,8.7-2.44s7,8,8.36,4,6.17,7.32,10.51,6.19c4.34,1.13,9.12-10.21,10.52-6.19s4.19,1.22,8.35-4,6.67,1.22,8.71,2.44c.79.48,2-.4,3.29-1.65-1.63,3.36-4,5.87-5.68,4.59-2.07-1.55-4.89-1.37-7.89,3.3s-4.94,1.63-8,1.09S101.87,75.51,95.08,75.51Zm55.46,49.36c-12.28,24.56-55.92,25.27-55.92,25.27S51,149.43,38.7,124.87c-2.2-4.39-3.6-10.31-4-17-.5,9.51,1,18.1,4,24C51,156.41,94.62,157.13,94.62,157.13s43.64-.72,55.92-25.28c2.94-5.87,4.46-14.46,4-24C154.14,114.56,152.74,120.48,150.54,124.87Z"/><path class="cls-5" d="M60.33,57.83A62.17,62.17,0,0,0,37.94,87.9a68,68,0,0,0-3.39,32.59,38.79,38.79,0,0,0,3.81,12.35,34.9,34.9,0,0,0,10,11.37c8.12,6.1,18.17,9.43,28,11.45a99.31,99.31,0,0,0,17.95,2.21,76.58,76.58,0,0,0,12.27-1.12c9.56-1.4,19.16-3.9,27.73-8.44,8.75-4.63,16-11.69,18.91-21.34,3-9.86,2.62-20.76.42-30.74A64.62,64.62,0,0,0,136.34,64a59.56,59.56,0,0,0-7.43-6.2c-.79-.55-1.54.75-.76,1.3A60.38,60.38,0,0,1,150.06,88.9a66.13,66.13,0,0,1,3.11,31.68,36.62,36.62,0,0,1-3.91,12.1,34,34,0,0,1-10.13,10.95c-8,5.69-17.7,8.8-27.27,10.7a96,96,0,0,1-17,2,73.23,73.23,0,0,1-11.55-1c-9.26-1.34-18.59-3.68-26.95-7.95-8.64-4.42-16-11.15-18.88-20.62s-2.65-20-.59-29.7A63.46,63.46,0,0,1,53.72,65.33a56.78,56.78,0,0,1,7.37-6.2c.78-.55,0-1.85-.76-1.3Z"/><path class="cls-6" d="M50.33,70.52s-6.91-6.29-4.12-13.25,13.5-7.72,15.86,0C62.07,57.27,71,79.91,50.33,70.52Z"/><path class="cls-6" d="M138.91,70.52s6.91-6.29,4.12-13.25-13.5-7.72-15.86,0C127.17,57.27,118.26,79.91,138.91,70.52Z"/><path class="cls-5" d="M50.86,70C47,66.45,44.38,60,48.15,55.43a8.24,8.24,0,0,1,7.47-2.8,7.37,7.37,0,0,1,5.87,5.25c.66,2,1.48,5,3.83,5.67s3.85-1.74,5.31-3.22c.8-.81,1.79-1.58,3-1a6.37,6.37,0,0,1,1.93,1.87c.73.92,1.45,1.85,2.22,2.74,1.47,1.7,3.55,3.77,5.8,2,.58-.46,1.11-1.69,1.93-1.4s1.62,1.42,2.2,2.08c1.48,1.71,3.1,4,5.43,4.59a7.59,7.59,0,0,0,2.73,0,5.69,5.69,0,0,0,2.7-1.44c1.77-1.52,2.92-3.86,4.84-5.17.92-.64,1.14.12,1.75.83A3.35,3.35,0,0,0,107.9,67a4.94,4.94,0,0,0,2.89-2c1.34-1.56,2.42-3.37,3.87-4.83,2.45-2.49,4.22.6,5.89,2.3A2.66,2.66,0,0,0,123,63.51a5.57,5.57,0,0,0,2.69-2.25,16.26,16.26,0,0,0,2-3.33A9.33,9.33,0,0,1,130,54.3a7.74,7.74,0,0,1,7.73-1.24,8.09,8.09,0,0,1,5.22,7.33c.11,3.11-1.46,6.09-3.43,8.4a11.63,11.63,0,0,1-1.13,1.2c-.71.65.35,1.71,1.06,1.06,3.95-3.63,6.49-9.71,3.95-14.81s-9.79-6.92-14.27-3.17c-2.23,1.88-2.79,4.84-4.48,7.13C124,61,123,62.58,122,61.7s-1.62-1.87-2.52-2.71a4.24,4.24,0,0,0-3.15-1.39c-1.67.12-2.83,1.52-3.78,2.74a32.41,32.41,0,0,1-3.76,4.57c-1.33,1.16-2.12.09-3-1-1.47-1.82-3.23-.62-4.5.77-1.52,1.65-3.07,4.44-5.35,5.11a5.5,5.5,0,0,1-1.46,0,3,3,0,0,1-1.56-.23A9.94,9.94,0,0,1,90,67.07C88.82,65.75,87.18,63,85.15,63c-1.22,0-1.65,1.13-2.5,1.79-1.15.88-2.14-.07-3-.93-1.49-1.53-2.6-3.42-4.13-4.91a3.92,3.92,0,0,0-3.44-1.27,5.82,5.82,0,0,0-2.85,1.94c-.71.76-1.42,2-2.4,2.42-2.65,1.19-3.63-4-4.27-5.53-2.3-5.54-9.31-7-14-3.52a9.7,9.7,0,0,0-3.74,8.57,15,15,0,0,0,3.7,8.15,13.42,13.42,0,0,0,1.26,1.35c.71.65,1.77-.41,1.06-1.06Z"/><path class="cls-7" d="M54.9,65.63a3.65,3.65,0,0,1-4-2,4.24,4.24,0,0,1,1.52-5.79,4.75,4.75,0,0,1,7,4.61"/><path class="cls-5" d="M54.7,64.9l-.16,0,.09,0H54.5a1.41,1.41,0,0,1-.29,0A2.51,2.51,0,0,1,53,64.65,3.66,3.66,0,0,1,51.2,60.6a3.6,3.6,0,0,1,2.63-2.55,4,4,0,0,1,4.81,4.36c-.06,1,1.44,1,1.5,0a5.5,5.5,0,0,0-1.86-4.55,5.66,5.66,0,0,0-4.49-1.32A5,5,0,0,0,50,59.63a5.14,5.14,0,0,0,1.6,5.86,4.21,4.21,0,0,0,3.55.86.75.75,0,0,0-.4-1.45Z"/><path class="cls-7" d="M134.34,65.63a3.65,3.65,0,0,0,4-2,4.25,4.25,0,0,0-1.51-5.79,4.75,4.75,0,0,0-7,4.61"/><path class="cls-5" d="M134.15,66.35c3.35.86,6.12-3,5.37-6A5.11,5.11,0,0,0,136,56.65a5.48,5.48,0,0,0-4.5.8,5.58,5.58,0,0,0-2.39,5c.06,1,1.56,1,1.5,0A4.05,4.05,0,0,1,135.07,58a3.59,3.59,0,0,1,2.8,2.11,3.65,3.65,0,0,1-1.17,4.28,2.75,2.75,0,0,1-.87.44,2.49,2.49,0,0,1-.37.09c-.24,0,.14,0-.09,0h-.19a3.62,3.62,0,0,1-.57,0c.27,0,0,0-.07,0a.75.75,0,0,0-.39,1.45Z"/><g class="cls-9"><path class="cls-10" d="M39.43,117A56.7,56.7,0,0,1,51.66,73.64c.38-.45-.26-1.11-.65-.65a52.92,52.92,0,0,0-11.8,44.06c0,.14.24.08.22-.06Z"/></g><g class="cls-9"><path class="cls-10" d="M150,117.05A52.92,52.92,0,0,0,138.23,73c-.39-.46-1,.2-.65.65A56.66,56.66,0,0,1,149.81,117c0,.14.19.2.22.06Z"/></g><path class="cls-10" d="M65.57,97.22c-11.7-.29-13.92,13.77-9.92,20.14,2,3.18,4.5,5.39,9.92,5.39,5.24,0,7.92-2.21,9.92-5.39C79.48,111,77.26,96.93,65.57,97.22Z"/><path class="cls-5" d="M77.51,105.79A12.59,12.59,0,0,0,71.88,98a13.7,13.7,0,0,0-10.19-1c-5.54,1.58-8.39,7.13-8.61,12.58A14.73,14.73,0,0,0,55,117.74c.51.82,1.8.06,1.3-.76-2.34-3.81-2.27-9.19-.37-13.16a10.08,10.08,0,0,1,4.88-5,12.45,12.45,0,0,1,8.89-.26c3.37,1.22,5.45,4.26,6.36,7.6a.75.75,0,0,0,1.45-.4Z"/><ellipse class="cls-5" cx="68.61" cy="110.4" rx="7.4" ry="9.15"/><path class="cls-10" d="M123.67,97.22c11.7-.29,13.92,13.77,9.92,20.14-2,3.18-4.49,5.39-9.92,5.39-5.24,0-7.92-2.21-9.92-5.39C109.76,111,112,96.93,123.67,97.22Z"/><path class="cls-5" d="M113.18,106.19a11.06,11.06,0,0,1,5.17-7.06,12.25,12.25,0,0,1,9.23-.61c4.74,1.57,7,6.62,7.09,11.31A13.21,13.21,0,0,1,133,117c-.51.82.79,1.58,1.29.76,2.69-4.39,2.51-10.56.18-15a11.35,11.35,0,0,0-5.81-5.39,13.94,13.94,0,0,0-10.11.1,12.27,12.27,0,0,0-6.76,8.39.75.75,0,0,0,1.44.4Z"/><ellipse class="cls-5" cx="120.63" cy="110.4" rx="7.4" ry="9.15"/><path class="cls-11" d="M54,131.14c-11.28-2.59-7.67-10.3,0-8.46C64.63,125.21,63.24,133.25,54,131.14Z"/><path class="cls-11" d="M135.23,131.14c11.28-2.59,7.67-10.3,0-8.46C124.62,125.21,126,133.25,135.23,131.14Z"/><path class="cls-5" d="M60.43,95.81a10.36,10.36,0,0,1,7.82-.32c2.24.81,3.49-1,1.84-2.28-1.89-1.48-6.64-2.34-10-.71S57,95.25,57.3,95.88,58.56,96.61,60.43,95.81Z"/><path class="cls-5" d="M128.82,95.81a10.39,10.39,0,0,0-7.83-.32c-2.24.81-3.48-1-1.84-2.28,1.89-1.48,6.64-2.34,10-.71s3.09,2.75,2.83,3.38S130.68,96.61,128.82,95.81Z"/><path class="cls-5" d="M93.87,123.53v9a.75.75,0,0,0,1.5,0v-9a.75.75,0,0,0-1.5,0Z"/><path class="cls-5" d="M77.32,128.19a9.67,9.67,0,0,1,1.62.16l.26.08s-.08-.14,0,0a1.87,1.87,0,0,1,.11.48,13,13,0,0,0,1.1,3.31c1.83,3.53,6,4.71,9.71,3.73a11.51,11.51,0,0,0,5.05-2.85c.69-.68-.37-1.74-1.06-1.06C91,135.13,84.62,136.26,82,132a13.44,13.44,0,0,1-1.3-3.78c-.38-1.43-2.09-1.53-3.35-1.5a.75.75,0,0,0,0,1.5Z"/><path class="cls-5" d="M111.92,126.69c-1.23,0-3,.06-3.34,1.46a13.94,13.94,0,0,1-1.31,3.82c-2.65,4.29-9,3.16-12.12.07-.69-.68-1.75.38-1.06,1.06,2.73,2.68,7.09,4,10.75,2.66,2.9-1.07,4.4-3.62,5-6.51,0-.21.09-.42.14-.63a.55.55,0,0,1,.06-.22c.07-.14,0,0,0,0a3.86,3.86,0,0,1,1.88-.25.75.75,0,0,0,0-1.5Z"/><path class="cls-5" d="M103,114.39c-2.85-4-13.93-4-16.78,0S88,125,94.62,124.69C101.27,125,105.86,118.35,103,114.39Z"/><g class="cls-12"><path class="cls-10" d="M87.47,116.82a5.53,5.53,0,0,1,3-2.07,15,15,0,0,1,4.1-.49,17.16,17.16,0,0,1,3.58.24,12.21,12.21,0,0,1,3.34,1.33c.44.23,1-.36.56-.72-2-1.81-5.4-1.88-7.94-1.78a12.13,12.13,0,0,0-4.43.78,4.47,4.47,0,0,0-2.43,2.63c0,.11.13.17.19.08Z"/></g><path class="cls-5" d="M79.35,121.25A24.39,24.39,0,0,1,89,110.36a11.82,11.82,0,0,1,10.73-.54,19.22,19.22,0,0,1,7.3,6.48,26.82,26.82,0,0,1,2.87,5c.39.88,1.68.12,1.3-.76-2-4.63-5.6-9.29-10.09-11.66a13.17,13.17,0,0,0-11-.64,21,21,0,0,0-8.51,6.74,29.46,29.46,0,0,0-3.55,5.56c-.41.87.89,1.63,1.3.76Z"/></g></g></g></svg>