<svg xmlns="http://www.w3.org/2000/svg" viewBox="0 0 176.17 173.53"><defs><style>.cls-1{isolation:isolate;}.cls-2{fill:#b8dcff;}.cls-3,.cls-5{fill:#cfb8e5;}.cls-4{fill:#b694dd;}.cls-5,.cls-7{opacity:0.5;}.cls-5{mix-blend-mode:multiply;}.cls-6{fill:#42295c;}.cls-7{mix-blend-mode:overlay;}.cls-8{fill:#fff;}.cls-9{fill:#ffb6c3;}</style></defs><g class="cls-1"><g id="Layer_2" data-name="Layer 2"><g id="OBJECTS"><path class="cls-2" d="M150.16,28.6c-45-55.89-120-17.73-132.64,12.12C1,79.88,17.22,93.6,21.11,104.78c7.83,22.54-16.92,21.27-6,35.67s31.86,27.15,57.78,28.31c107.07,4.77,109.17-69,91.88-77.55C145.17,81.51,176.2,60.93,150.16,28.6Z"/><path class="cls-2" d="M164.74,86.69c-5-1.77-1.05-26.76,5-21.68S176.11,90.7,164.74,86.69Z"/><path class="cls-2" d="M170.79,91.22c-1-1.62,3.36-6.48,5-3.12S172.62,94.17,170.79,91.22Z"/><path class="cls-2" d="M.68,117.36c-4.32-10.39,13.26-13,18.15-5.46S5.58,129.15.68,117.36Z"/><path class="cls-2" d="M5.63,103.92c-6.95-4.71-1.5-13,5.6-6.81S12.58,108.63,5.63,103.92Z"/><path class="cls-3" d="M109.93,132H66.24c-21.84,2-32,26.66-32,26.66,17.13,15.23,53.81,14.91,53.81,14.91s36.67.32,53.8-14.91C141.89,158.62,131.77,134,109.93,132Z"/><path class="cls-4" d="M106,137.61c-11.67,1.22-8.38,11.48,4.07,10.26S117,136.45,106,137.61Z"/><path class="cls-4" d="M111.84,151.22c-5.52.49-4.19,6.19,1.68,5.55S119.91,150.51,111.84,151.22Z"/><path class="cls-4" d="M121.84,150.51c-4.47-.44-4.71-3.42,0-2.84S127.07,151,121.84,150.51Z"/><path class="cls-5" d="M48.65,139.45c17.21,9.13,39.47,9.49,39.47,9.49s22.22-.36,39.41-9.49a32.45,32.45,0,0,0-17.6-7.49H66.24A32.38,32.38,0,0,0,48.65,139.45Z"/><path class="cls-6" d="M142.62,158.42a51.32,51.32,0,0,0-13.53-18.64,34.37,34.37,0,0,0-17-8.3,49.27,49.27,0,0,0-7.59-.27H74.67c-2.75,0-5.52-.09-8.28,0-5.59.19-11.28,2.69-15.81,5.84A50.7,50.7,0,0,0,33.8,157.83c-.08.2-.17.39-.25.59-.36.89,1.09,1.28,1.45.39-.1.26.08-.18.15-.33q.3-.66.63-1.32c.74-1.5,1.55-2.95,2.42-4.38a51.14,51.14,0,0,1,9.94-11.94,32.59,32.59,0,0,1,17.12-8,54,54,0,0,1,6.85-.11h29c2.85,0,5.71-.06,8.55,0,5.23.12,10.58,2.5,14.84,5.39,7.26,4.93,12.92,12.44,16.54,20.38.07.14.26.6.15.33.36.88,1.82.5,1.45-.39Z"/><path class="cls-6" d="M67.37,30.59A13.87,13.87,0,0,0,70,34a9.38,9.38,0,0,0,3.29,2.41.41.41,0,0,0,.39-.68c-.92-1-2.23-1.56-3.24-2.45s-2-1.84-2.9-2.82a.08.08,0,0,0-.13.09Z"/><path class="cls-6" d="M67.59,24c1.63,4.23,5,9,9,11.26a.48.48,0,0,0,.58-.75c-1.6-1.62-3.43-2.95-5-4.64a51.54,51.54,0,0,1-4.51-5.91s-.11,0-.09,0Z"/><path class="cls-6" d="M74.4,28a13.76,13.76,0,0,0,2.9,4,10.17,10.17,0,0,0,3.64,2.85c.39.13.59-.37.37-.64-1-1.15-2.46-1.93-3.56-3s-2.07-2.28-3.18-3.36c-.09-.09-.21,0-.17.13Z"/><path class="cls-6" d="M79.28,25.66c.29,2.81,1.3,6.77,3.77,8.48.28.2.53-.17.42-.41-.59-1.29-1.61-2.37-2.25-3.65a19.12,19.12,0,0,1-1.53-4.48c0-.22-.44-.18-.41.06Z"/><path class="cls-6" d="M84,26.58c-.59,2.23-.76,5.93.77,7.83.23.29.59,0,.55-.32-.22-1.45-.71-2.79-.82-4.28a16.57,16.57,0,0,0-.37-3.23.07.07,0,0,0-.13,0Z"/><path class="cls-6" d="M87.92,24.74a43,43,0,0,1-.87,4.9c-.34,1.4-1,2.79-1.22,4.2a.37.37,0,0,0,.68.29c1.74-2.42,2-6.51,1.77-9.39a.18.18,0,0,0-.36,0Z"/><path class="cls-6" d="M91.71,21.77a54.74,54.74,0,0,1-1.54,5.92c-.65,1.95-1.72,3.7-2.38,5.63a.36.36,0,0,0,.6.35c2.64-3,3.71-7.92,3.7-11.84,0-.22-.33-.28-.38-.06Z"/><path class="cls-6" d="M96.13,26a26.84,26.84,0,0,1-2.86,4.15c-1,1.19-2.27,2.11-3.36,3.23a.31.31,0,0,0,.38.49c2.89-1.39,5.14-4.79,6.14-7.75.06-.18-.21-.28-.3-.12Z"/><path class="cls-6" d="M103.68,27.44a81.88,81.88,0,0,1-9.9,6.39c-.38.23-.13.9.32.74,3.75-1.32,7.11-4,9.88-6.83.19-.2-.1-.47-.3-.3Z"/><path class="cls-6" d="M97.54,28.48a20.43,20.43,0,0,1-5.32,5,.3.3,0,0,0,.31.52,15.09,15.09,0,0,0,5.37-5.31c.14-.23-.21-.42-.36-.21Z"/><path class="cls-3" d="M140.34,88.1c-2.52-15-3.78-32.69-18.31-43.8a57.2,57.2,0,0,0-10-6.16,7.15,7.15,0,0,0,2.79-4.2A24.78,24.78,0,0,1,109,35.49a16.46,16.46,0,0,0,4-6.9c-2.22,2.56-8.39,4.82-8.39,4.82a8.72,8.72,0,0,0,1-3.6,23,23,0,0,1-7.12,3.89,57.39,57.39,0,0,0-10.37-.94,55.17,55.17,0,0,0-18.51,3.11,13.06,13.06,0,0,1-4.13-2.82,6.43,6.43,0,0,0,0,3.35c-4.74-1.83-6.38-6.89-6.38-6.89a16.41,16.41,0,0,0,2,9.23A8.92,8.92,0,0,1,57,38a6.82,6.82,0,0,0,2.22,2.77,58,58,0,0,0-5.12,3.5C39.61,55.41,38.35,73.13,35.83,88.1c-8.84,12.27-7.44,22.09-3.7,29.57,12.28,24.56,56,25.27,56,25.27s43.64-.71,55.92-25.27C147.78,110.19,149.18,100.37,140.34,88.1Z"/><path class="cls-5" d="M144,112.81c-12.28,24.56-55.92,25.27-55.92,25.27s-43.71-.71-56-25.27a26.65,26.65,0,0,1-2.78-9.19,25.18,25.18,0,0,0,2.78,14c12.28,24.56,56,25.27,56,25.27s43.64-.71,55.92-25.27a25.09,25.09,0,0,0,2.78-14A26.44,26.44,0,0,1,144,112.81Z"/><g class="cls-7"><path class="cls-8" d="M34.35,98.15c1.46-3.13,3.88-5.67,5.2-8.89A35.15,35.15,0,0,0,41.65,80c.4-3.27.6-6.57,1.19-9.82a29.45,29.45,0,0,1,3.32-9.13c.16-.29-.24-.64-.48-.37-4.09,4.73-4.24,11.86-4.85,17.78a43.18,43.18,0,0,1-1.89,9.82c-1.18,3.44-3.36,6.41-4.66,9.81,0,0,0,.06.07,0Z"/></g><path class="cls-4" d="M79.55,37.06c-4.19-.44-6.19,1.94-1.33,2.38S83.41,37.46,79.55,37.06Z"/><path class="cls-4" d="M82.18,40.65c-3.39.77-3,3.61.32,2.78S84.71,40.07,82.18,40.65Z"/><path class="cls-4" d="M88.91,40.1c-5.12-1-5.38-5.35,1.2-4.1S101.81,42.5,88.91,40.1Z"/><path class="cls-4" d="M85,45.17c-4.19-.62-6.07,2.53-.26,3.79S92.61,46.31,85,45.17Z"/><path class="cls-4" d="M94.72,46.14c-3.6.25-4.24,3.31.44,2.89S98.32,45.89,94.72,46.14Z"/><path class="cls-4" d="M90.55,44.68c-4.18-.75-3.29-4,1-2.81S95.61,45.59,90.55,44.68Z"/><path class="cls-4" d="M49.75,125.88c-4.5-2.28-2.13-5.18,1.71-3S53.54,127.8,49.75,125.88Z"/><path class="cls-4" d="M40.36,120.38c-6.38-4.28-5.59-9.79,1.4-5.16S45,123.51,40.36,120.38Z"/><path class="cls-4" d="M49.75,119.77c-3.73-1.52-2.4-3.78.7-2.2S53.19,121.16,49.75,119.77Z"/><path class="cls-8" d="M59,78c-11.69-.3-13.91,13.77-9.92,20.13,2,3.19,4.5,5.4,9.92,5.4,5.25,0,7.92-2.21,9.92-5.4C73,91.81,70.73,77.74,59,78Z"/><path class="cls-6" d="M71,86.61a12.61,12.61,0,0,0-5.62-7.83,13.71,13.71,0,0,0-10.19-1c-5.55,1.59-8.4,7.14-8.61,12.59a14.52,14.52,0,0,0,1.92,8.21c.5.82,1.8.07,1.29-.75-2.34-3.81-2.26-9.2-.37-13.16a10.19,10.19,0,0,1,4.88-5,12.53,12.53,0,0,1,8.9-.25c3.36,1.22,5.44,4.26,6.35,7.6a.75.75,0,0,0,1.45-.4Z"/><ellipse class="cls-6" cx="62.08" cy="91.22" rx="7.4" ry="9.15"/><path class="cls-8" d="M117.14,78c11.69-.3,13.92,13.77,9.92,20.13-2,3.19-4.5,5.4-9.92,5.4-5.25,0-7.92-2.21-9.92-5.4C103.22,91.81,105.44,77.74,117.14,78Z"/><path class="cls-6" d="M106.65,87a11,11,0,0,1,5.17-7.07,12.35,12.35,0,0,1,9.23-.61c4.74,1.58,7,6.63,7.09,11.32a13.13,13.13,0,0,1-1.73,7.15c-.51.82.79,1.58,1.3.75,2.69-4.38,2.51-10.55.18-15a11.39,11.39,0,0,0-5.81-5.39,13.89,13.89,0,0,0-10.11.1,12.31,12.31,0,0,0-6.77,8.39.75.75,0,0,0,1.45.4Z"/><ellipse class="cls-6" cx="114.09" cy="91.22" rx="7.4" ry="9.15"/><path class="cls-9" d="M47.47,112c-11.27-2.59-7.66-10.3,0-8.47C58.09,106,56.7,114.07,47.47,112Z"/><path class="cls-9" d="M128.7,112c11.27-2.59,7.67-10.3,0-8.47C118.08,106,119.47,114.07,128.7,112Z"/><path class="cls-6" d="M53.89,74.63a10.36,10.36,0,0,1,7.82-.32c2.25.81,3.49-1,1.85-2.28-1.9-1.48-6.65-2.34-10-.71s-3.1,2.74-2.83,3.38S52,75.43,53.89,74.63Z"/><path class="cls-6" d="M122.28,74.63a10.36,10.36,0,0,0-7.82-.32c-2.25.81-3.49-1-1.85-2.28,1.9-1.48,6.65-2.34,10-.71s3.09,2.74,2.82,3.38S124.14,75.43,122.28,74.63Z"/><path class="cls-6" d="M73.65,101.77A6.6,6.6,0,0,1,76,99.13c1.27-.64,3.22.25,4.46.68a5.94,5.94,0,0,0,2.25.69c1.11-.12,2.22-.64,3.36-.77a15.69,15.69,0,0,1,3.14,0,12.1,12.1,0,0,1,2,.36,5.93,5.93,0,0,0,1.54.47,10.18,10.18,0,0,0,2.52-.92c1.48-.49,3.23-1.11,4.69-.31a8.92,8.92,0,0,1,2.65,2.47c.56.77,1.86,0,1.29-.76-1.2-1.63-3-3.51-5.15-3.61a11.75,11.75,0,0,0-4,.81c-.51.18-1,.37-1.51.57a3.6,3.6,0,0,1-.54.22s-.13.08-.19.08c-.35,0,.21,0-.06-.07.22.06-.37-.26-.38-.27a6.11,6.11,0,0,0-.89-.24c-.43-.09-.87-.17-1.31-.23A15.08,15.08,0,0,0,87,98.16a17.34,17.34,0,0,0-4,.67c-.15,0-.92.19-.5.22s-.56-.29-.7-.35A21.52,21.52,0,0,0,78,97.57a3.89,3.89,0,0,0-3.52.79A9.67,9.67,0,0,0,72.36,101c-.48.84.82,1.6,1.29.76Z"/><path class="cls-6" d="M80.64,102.42s-5.78,1-5.36,4S79.67,105.42,80.64,102.42Z"/><path class="cls-6" d="M95.78,102.42s5.77,1,5.36,4S96.74,105.42,95.78,102.42Z"/><path class="cls-8" d="M66.94,126.61s-.78,4.2-.08,5.08,6.31,1.8,7.35.92,1.27-7,1.27-7S70.74,127.22,66.94,126.61Z"/><path class="cls-8" d="M109.31,126.61s.77,4.2.07,5.08-6.3,1.8-7.35.92-1.27-7-1.27-7S105.5,127.22,109.31,126.61Z"/><path class="cls-6" d="M59.83,105.12c-3.8,4.7-6.31,11.88-2.69,17.35,3.15,4.74,9.24,5.29,14.43,4.68a64.24,64.24,0,0,0,14.48-3.73,7,7,0,0,1,2.07-.67,7,7,0,0,1,2.07.67c1.46.53,2.93,1,4.42,1.49a62.68,62.68,0,0,0,7.23,1.82c5.34,1,12.27,1.43,16.28-3,4.91-5.41,2.42-13.5-1.7-18.61-.61-.75-1.67.32-1.07,1.06,3.32,4.11,5.85,11,2.19,15.91-3.15,4.2-9.2,4.12-13.87,3.43a68.37,68.37,0,0,1-13.75-3.79,6.33,6.33,0,0,0-1.8-.63,5.16,5.16,0,0,0-1.57.55c-1.43.53-2.86,1-4.31,1.5-2.22.71-4.46,1.35-6.75,1.84-4.95,1.06-11.81,2-15.87-1.88-4.9-4.69-2.31-12.5,1.27-16.93.6-.74-.46-1.81-1.06-1.06Z"/><path class="cls-6" d="M78.15,91.94A33.41,33.41,0,0,1,84,91a44.67,44.67,0,0,1,14.07,1c.94.23,1.34-1.22.4-1.44a45.72,45.72,0,0,0-14.47-1,35,35,0,0,0-6.27,1,.75.75,0,0,0,.4,1.44Z"/><path class="cls-6" d="M83,87.78a47.29,47.29,0,0,1,10.3-.11c1,.1,1-1.4,0-1.5a47.29,47.29,0,0,0-10.3.11.75.75,0,0,0,0,1.5Z"/><path class="cls-6" d="M85.21,84.21a49.29,49.29,0,0,1,5.83-.1.76.76,0,0,0,.75-.75.77.77,0,0,0-.75-.75,49.29,49.29,0,0,0-5.83.1.77.77,0,0,0-.75.75.75.75,0,0,0,.75.75Z"/><path class="cls-6" d="M141.07,87.91C138.6,73.19,137,57.15,125.52,46.29a52.12,52.12,0,0,0-13.09-8.8l.15,1.18a7.92,7.92,0,0,0,3-4.53.76.76,0,0,0-1.11-.84,20.74,20.74,0,0,1-5.64,1.46l.73,1.26a17,17,0,0,0,4.15-7.24c.15-.68-.72-1.31-1.25-.73-2,2.25-5.27,3.61-8.06,4.64l.85,1.1a9,9,0,0,0,1.09-4,.76.76,0,0,0-1.28-.53A19.78,19.78,0,0,1,100.6,32a9.11,9.11,0,0,1-2.09.86,10.39,10.39,0,0,1-2.63-.35,58.48,58.48,0,0,0-11.3-.43,56.65,56.65,0,0,0-10.84,1.7c-.88.23-1.76.49-2.63.76-1,.33-1.57.56-2.57,0a12.45,12.45,0,0,1-2.56-2,.76.76,0,0,0-1.25.33,7.12,7.12,0,0,0,0,3.75l.92-.92a10.75,10.75,0,0,1-5.86-6.37.75.75,0,0,0-1.47.2,16.62,16.62,0,0,0,2.12,9.61L61.09,38a8,8,0,0,1-3.67-.61.75.75,0,0,0-1,1,8.06,8.06,0,0,0,2.48,3v-1.3A42.9,42.9,0,0,0,45.34,52.6,49.55,49.55,0,0,0,39,67.25a145.68,145.68,0,0,0-3.12,16c-.19,1.22-.38,2.44-.58,3.66-.28,1.69-1.79,3.26-2.64,4.75a32.68,32.68,0,0,0-3.39,8.26c-2.23,9,.87,18.14,6.89,24.92,5.55,6.24,13.19,10.3,21,13.09a100.92,100.92,0,0,0,21.7,5,73.52,73.52,0,0,0,9.37.76,83.25,83.25,0,0,0,11.25-1A95,95,0,0,0,121.62,137c7.65-3.07,15-7.51,20.07-14.15,5.82-7.65,7.65-17.43,4.1-26.48a40.11,40.11,0,0,0-4.8-8.64c-.56-.78-1.86,0-1.3.75C143.2,93.4,146,99,146.18,105.17A25.35,25.35,0,0,1,143,118c-3.84,7.18-10.54,12.24-17.75,15.74-11.11,5.39-23.93,7.89-36.22,8.4a45,45,0,0,1-6.14-.29,108.46,108.46,0,0,1-18.85-3.31c-7.8-2.11-15.56-5.21-22-10.2s-11.6-12.56-12.07-21c-.32-5.75,1.63-11.27,4.61-16.11.8-1.31,1.84-2.41,2.1-4,.2-1.21.39-2.43.58-3.65.41-2.61.81-5.22,1.29-7.82,1.92-10.47,5.19-21,13.12-28.5a47.6,47.6,0,0,1,7.93-5.9.77.77,0,0,0,0-1.3,6.64,6.64,0,0,1-2-2.5l-1,1a9.34,9.34,0,0,0,4.42.82.75.75,0,0,0,.65-1.12,15.3,15.3,0,0,1-1.92-8.86l-1.48.2a12.36,12.36,0,0,0,6.91,7.42c.54.22,1.08-.42.93-.92a5.61,5.61,0,0,1,0-3l-1.26.33a14.26,14.26,0,0,0,2.54,2.05,4.91,4.91,0,0,0,2.12,1,8.61,8.61,0,0,0,2.36-.74,54.39,54.39,0,0,1,12.64-2.27,57.06,57.06,0,0,1,13,.69c1.44.25,2.66-.44,4-1a20.66,20.66,0,0,0,4.58-2.91l-1.28-.53a7.44,7.44,0,0,1-.89,3.23c-.29.53.2,1.33.85,1.1,3-1.12,6.51-2.58,8.72-5l-1.26-.73A15.36,15.36,0,0,1,108.49,35a.75.75,0,0,0,.73,1.25,21.51,21.51,0,0,0,6-1.62l-1.1-.85a6.68,6.68,0,0,1-2.6,3.87.74.74,0,0,0,.15,1.17c7.78,3.8,14.78,9.12,19.18,16.69,3.72,6.4,5.53,13.67,6.82,20.89.72,4,1.28,8,2,11.94C139.78,89.25,141.22,88.85,141.07,87.91Z"/><path class="cls-3" d="M55.21,44.49s-5.64,2.62-11.86-3.15S28.25,34.83,26,44.14C24.37,50.75,30.74,58.32,35,59.43c3.91,1,7.31,0,11.74-2.56Z"/><path class="cls-4" d="M42.36,40.49A14,14,0,0,0,34,37.07c-.27,1.43.89,3.46,3.63,4.49C40.57,42.66,42.14,41.85,42.36,40.49Z"/><path class="cls-4" d="M43.31,43.5c-1.86-.81-3.27,1.54,0,1.93C45.32,45.67,45.16,44.3,43.31,43.5Z"/><path class="cls-6" d="M54.15,43.62c-3,1.71-7.14-.18-9.54-2.17-3.26-2.71-6.79-5.41-11.3-5.12-4.16.27-6.92,3.38-8,7.26-1.28,4.76,1,9.73,4.31,13.15a11.49,11.49,0,0,0,5.59,3.51,14.52,14.52,0,0,0,9.58-1.49c.87-.41.11-1.7-.76-1.29-2.77,1.31-5.8,2.08-8.84,1.24a10.55,10.55,0,0,1-4.51-3C27.51,52.32,25.49,47.56,27.1,43a7.25,7.25,0,0,1,8.49-5,14,14,0,0,1,5.27,2.32c2,1.4,3.65,3.27,5.93,4.34s5.67,1.66,8.12.28c.84-.47.08-1.77-.76-1.29Z"/><path class="cls-9" d="M49.19,50.43a12.75,12.75,0,0,1-8.14-3.55c-3.95-3.63-7.17-6.77-10.23-3.63s.8,16.93,14.34,13Z"/><path class="cls-5" d="M42.66,58.88C31.57,54.47,29.92,43.36,29.77,38.2A9.32,9.32,0,0,0,26,44.14C24.37,50.75,30.74,58.32,35,59.43A12.09,12.09,0,0,0,42.66,58.88Z"/><path class="cls-6" d="M49.19,49.68a9.58,9.58,0,0,1-3.13-.62c-2.64-.92-4.51-2.8-6.56-4.61C37.89,43,36,41.32,33.7,41.22a4.5,4.5,0,0,0-3.94,2.21c-1,1.78-.78,4.16-.21,6a11.81,11.81,0,0,0,4.56,6.33C37.44,58.06,41.62,58,45.36,57A.75.75,0,0,0,45,55.5c-3.06.88-6.44,1.07-9.31-.52a9.93,9.93,0,0,1-4.45-5.3c-.58-1.58-1-3.65-.27-5.25a3,3,0,0,1,3.12-1.67c2.2.4,4.1,2.48,5.67,3.92,2.57,2.35,5.82,4.54,9.47,4.5a.75.75,0,0,0,0-1.5Z"/><path class="cls-6" d="M36,47.6A21.66,21.66,0,0,0,41.38,51a17.47,17.47,0,0,0,6.12,1.62c.51,0,.64-.8.12-.9-1-.2-2-.31-3-.55a21.36,21.36,0,0,1-2.91-.92,22.34,22.34,0,0,1-5.4-3c-.23-.17-.52.21-.31.4Z"/><path class="cls-6" d="M40.47,52.61a14.13,14.13,0,0,0,6.14,1.61c.6,0,.61-.93,0-.93a18.37,18.37,0,0,1-3-.25,21.59,21.59,0,0,1-2.94-.78.19.19,0,0,0-.15.35Z"/><path class="cls-3" d="M121,44.49s5.64,2.62,11.86-3.15,15.1-6.51,17.37,2.8c1.61,6.61-4.75,14.18-9.05,15.29-3.91,1-7.31,0-11.74-2.56Z"/><path class="cls-4" d="M133.81,40.49a14,14,0,0,1,8.33-3.42c.27,1.43-.9,3.46-3.63,4.49C135.61,42.66,134,41.85,133.81,40.49Z"/><path class="cls-4" d="M132.86,43.5c1.86-.81,3.27,1.54,0,1.93C130.85,45.67,131,44.3,132.86,43.5Z"/><path class="cls-6" d="M121.27,44.91a8.65,8.65,0,0,0,6.68.3c4.32-1.42,6.92-5.52,11.29-6.9,3.54-1.11,7.22-.28,9.12,3.11,2.44,4.34,1.12,9.27-1.82,13a12.18,12.18,0,0,1-5.17,4.15c-3.1,1.09-6.4.25-9.27-1.1-.87-.41-1.63.88-.76,1.29,4.73,2.24,9.87,2.63,14-.92,3.48-3,6.27-7.82,5.78-12.54-.41-3.95-2.87-7.95-7-8.8S136,37.63,133,40.17c-2.31,1.93-4.6,3.89-7.76,4a6.3,6.3,0,0,1-3.24-.59.75.75,0,0,0-.75,1.29Z"/><path class="cls-9" d="M127,50.43a12.75,12.75,0,0,0,8.14-3.55c3.95-3.63,7.17-6.77,10.24-3.63s-.81,16.93-14.35,13Z"/><path class="cls-5" d="M133.51,58.88c11.09-4.41,12.75-15.52,12.89-20.68a9.32,9.32,0,0,1,3.79,5.94c1.61,6.61-4.75,14.18-9.05,15.29A12.1,12.1,0,0,1,133.51,58.88Z"/><path class="cls-6" d="M127,51.18a13.09,13.09,0,0,0,7.9-3.11c2.15-1.72,7.38-8.14,10.15-4,.92,1.38.6,3.48.16,5a10.16,10.16,0,0,1-3.82,5.45c-3,2.09-6.75,2-10.16,1a.75.75,0,0,0-.4,1.45c3.4,1,7.12,1.11,10.32-.59a11.5,11.5,0,0,0,5.19-6,9.07,9.07,0,0,0,.39-6.28,4.63,4.63,0,0,0-2.85-2.67c-2-.67-4.06.56-5.63,1.76-2.43,1.88-4.41,4.31-7.27,5.57a10.15,10.15,0,0,1-4,1,.75.75,0,0,0,0,1.5Z"/><path class="cls-6" d="M139.87,47.2a22.34,22.34,0,0,1-5.4,3,20.93,20.93,0,0,1-2.91.92c-1,.24-2,.35-3,.55a.46.46,0,0,0,.12.9A17.41,17.41,0,0,0,134.79,51a21.66,21.66,0,0,0,5.39-3.36c.21-.19-.08-.57-.31-.4Z"/><path class="cls-6" d="M135.56,52.26a21.73,21.73,0,0,1-2.95.78,18.37,18.37,0,0,1-3.05.25c-.6,0-.6,1,0,.93a14.13,14.13,0,0,0,6.14-1.61.19.19,0,0,0-.14-.35Z"/></g></g></g></svg>