<svg xmlns="http://www.w3.org/2000/svg" viewBox="0 0 176.85 173.81"><defs><style>.cls-1{isolation:isolate;}.cls-2{fill:#e1cfff;}.cls-12,.cls-3,.cls-5{fill:#4b496b;}.cls-4{fill:#211e3b;}.cls-5{opacity:0.3;}.cls-10,.cls-12,.cls-5{mix-blend-mode:multiply;}.cls-6{fill:#fff;}.cls-10,.cls-7{fill:#ffadc6;}.cls-8{fill:#ffe6c2;}.cls-9{opacity:0.5;mix-blend-mode:overlay;}.cls-10,.cls-12{opacity:0.4;}.cls-11{fill:#666391;}</style></defs><g class="cls-1"><g id="Layer_2" data-name="Layer 2"><g id="OBJECTS"><path class="cls-2" d="M61.37,2.2C30.84,8.44,17.87,28.36,9.1,48,2,63.94,24.59,59.71,22,70.85s-22.54,36.44,1.22,70C36,158.89,59.07,169.43,90.73,169.43s60.56-13.75,71.41-31.21c7.71-12.4,4.12-20.64-2.8-26.06s5.78-23.59-5.49-57.24S113.59-8.46,61.37,2.2Z"/><path class="cls-2" d="M.33,69.07c-2.92,10.47,14.26,11,18.07,3.1S3.66,57.19.33,69.07Z"/><path class="cls-2" d="M6.66,81.38c-6.11,5.34.09,12.67,6.17,5.88S12.78,76.05,6.66,81.38Z"/><path class="cls-2" d="M164.18,110.58c-5.4-.9-3.69-29.27,3.3-25.86S172.9,112,164.18,110.58Z"/><path class="cls-2" d="M169.77,115.18c-2.62.17,1.34-8.5,5.36-6.05S175.62,114.81,169.77,115.18Z"/><path class="cls-3" d="M110.27,132.24H66.58c-21.84,2-32,26.65-32,26.65,17.13,15.23,53.81,14.92,53.81,14.92s36.67.31,53.8-14.92C142.23,158.89,132.11,134.25,110.27,132.24Z"/><path class="cls-4" d="M88,142.65A26.09,26.09,0,0,0,88,146.4a13.08,13.08,0,0,0,.49,3.69.36.36,0,0,0,.71-.1,30.06,30.06,0,0,0-.28-3.66c-.09-1.22-.17-2.45-.21-3.68a.32.32,0,0,0-.63,0Z"/><path class="cls-4" d="M82.76,140.77a15.15,15.15,0,0,0-.83,3.31,10.9,10.9,0,0,0-.14,3.37.36.36,0,0,0,.68,0c.21-1.1.17-2.22.28-3.33s.22-2.2.35-3.31c0-.2-.28-.21-.34,0Z"/><path class="cls-4" d="M75.56,141.49a13.21,13.21,0,0,0-1.83,6.73.31.31,0,0,0,.6.08c.28-1.09.42-2.21.67-3.31a13.85,13.85,0,0,1,1.1-3.19.31.31,0,0,0-.54-.31Z"/><path class="cls-4" d="M84.78,150.9a16.24,16.24,0,0,0-1.06,4.45,12.48,12.48,0,0,0,.27,4.56.37.37,0,0,0,.73-.1,33.73,33.73,0,0,1-.12-4.38,21,21,0,0,1,.76-4.37c.1-.38-.44-.5-.58-.16Z"/><path class="cls-4" d="M70.71,149.29A12.29,12.29,0,0,0,69,157.63c.07.44.74.32.75-.1a26.9,26.9,0,0,1,.32-4.11,25.36,25.36,0,0,1,1.09-3.95c.09-.26-.29-.4-.43-.18Z"/><path class="cls-4" d="M70.51,140.4a14.21,14.21,0,0,0-1.78,3.44,10.64,10.64,0,0,0-.74,3.78.28.28,0,0,0,.54.08,36.5,36.5,0,0,1,.92-3.6A20.56,20.56,0,0,1,71,140.69c.19-.33-.28-.59-.5-.29Z"/><path class="cls-4" d="M63.74,148.52a13.62,13.62,0,0,0-1.49,7,.26.26,0,0,0,.52,0,23.21,23.21,0,0,1,1.59-6.67c.18-.41-.41-.78-.62-.36Z"/><path class="cls-4" d="M58.63,149.3a16.61,16.61,0,0,0-2.28,8.43.38.38,0,0,0,.75,0,24.5,24.5,0,0,1,.57-4.26,35.8,35.8,0,0,1,1.26-4.05c.06-.18-.21-.28-.3-.12Z"/><path class="cls-4" d="M64.68,139.3a17.91,17.91,0,0,0-3.51,5.54,6.94,6.94,0,0,0-.6,2.18.31.31,0,0,0,.58.16,17.56,17.56,0,0,0,.76-1.93c.27-.69.56-1.36.89-2a24.29,24.29,0,0,1,2.29-3.62c.17-.24-.21-.53-.41-.32Z"/><path class="cls-4" d="M57.79,140.52a11.92,11.92,0,0,0-2.7,3.85,16.43,16.43,0,0,0-1.52,4.56c0,.29.37.54.52.22.69-1.38,1.06-2.89,1.68-4.31a14.59,14.59,0,0,1,2.41-3.93.28.28,0,0,0-.39-.39Z"/><path class="cls-4" d="M57,137.11a17.9,17.9,0,0,0-3.24,2.12c-.5.41-1,.85-1.43,1.3A7.45,7.45,0,0,0,51.07,142a.27.27,0,0,0,.42.33A16.69,16.69,0,0,0,52.82,141c.43-.45.89-.88,1.35-1.31a35.81,35.81,0,0,1,2.92-2.43.11.11,0,0,0-.11-.19Z"/><path class="cls-4" d="M47.26,145.47a15.53,15.53,0,0,0-4.28,7,.28.28,0,0,0,.53.15,19.85,19.85,0,0,1,4.07-6.85.23.23,0,0,0-.32-.33Z"/><path class="cls-4" d="M49.53,148.55a23.49,23.49,0,0,0-4.16,9.5c-.06.38.48.55.59.17a38.13,38.13,0,0,1,1.62-4.91A30.32,30.32,0,0,1,50,148.82c.19-.29-.27-.55-.47-.27Z"/><path class="cls-4" d="M52.43,153.18a22.82,22.82,0,0,0-1.82,4.36,21.26,21.26,0,0,0-.94,4.67c0,.41.66.51.73.1.28-1.54.5-3.07.89-4.58a44.79,44.79,0,0,1,1.42-4.43.15.15,0,0,0-.28-.12Z"/><path class="cls-4" d="M62.18,159.76a16.82,16.82,0,0,0-1.2,6.8.34.34,0,0,0,.67,0c.08-1.13.12-2.27.29-3.39a28.72,28.72,0,0,1,.65-3.3.21.21,0,0,0-.41-.11Z"/><path class="cls-4" d="M73.77,156a33.47,33.47,0,0,0-1,3.82,18.69,18.69,0,0,0-.46,3.87.29.29,0,0,0,.56.08,37.66,37.66,0,0,0,.67-3.82c.19-1.28.42-2.56.61-3.84a.2.2,0,0,0-.39-.11Z"/><path class="cls-4" d="M67.73,162.54a25.58,25.58,0,0,0-.66,3c-.08.49-.15,1-.21,1.46a6.78,6.78,0,0,0-.08,1.56c0,.32.51.44.6.08a10.4,10.4,0,0,0,.18-1.46c0-.5.08-1,.14-1.5.12-1,.23-2,.38-3,0-.22-.29-.33-.35-.1Z"/><path class="cls-4" d="M78.9,161.51a25.57,25.57,0,0,0-1,7.92.34.34,0,0,0,.67,0c.32-2.59.41-5.19.88-7.76.07-.38-.49-.55-.59-.16Z"/><path class="cls-4" d="M55.94,161.21a14.24,14.24,0,0,0-.7,2.88,6.17,6.17,0,0,0,.09,2.93.27.27,0,0,0,.52,0,6.92,6.92,0,0,0,.16-1.36c0-.49.05-1,.1-1.46a22.72,22.72,0,0,1,.47-2.82.33.33,0,0,0-.64-.17Z"/><path class="cls-4" d="M78.6,147.93a14.27,14.27,0,0,0-1.53,4.21,15.47,15.47,0,0,0-.33,4.5.35.35,0,0,0,.7,0,29.22,29.22,0,0,1,.39-4.38,35.94,35.94,0,0,1,1.08-4.2.17.17,0,0,0-.31-.13Z"/><path class="cls-4" d="M41.91,155.31a10.25,10.25,0,0,0-1.39,5,.36.36,0,0,0,.72,0,18,18,0,0,1,.31-2.42,12.93,12.93,0,0,1,.74-2.36c.11-.25-.24-.47-.38-.22Z"/><path class="cls-4" d="M93.75,140.81c.13,1.11.25,2.21.36,3.31s.07,2.23.27,3.33a.36.36,0,0,0,.68,0,11.21,11.21,0,0,0-.13-3.37,15.76,15.76,0,0,0-.84-3.31c-.06-.17-.36-.16-.34,0Z"/><path class="cls-4" d="M100.75,141.8a13.85,13.85,0,0,1,1.1,3.19c.25,1.1.39,2.22.68,3.31a.3.3,0,0,0,.59-.08,13.21,13.21,0,0,0-1.83-6.73.31.31,0,0,0-.54.31Z"/><path class="cls-4" d="M91.5,151.06a22.34,22.34,0,0,1,.76,4.37,37.69,37.69,0,0,1-.12,4.38c0,.42.61.49.72.1a12.48,12.48,0,0,0,.27-4.56,16.24,16.24,0,0,0-1.06-4.45c-.14-.34-.68-.22-.57.16Z"/><path class="cls-4" d="M105.71,149.47a24.3,24.3,0,0,1,1.09,3.95,25.69,25.69,0,0,1,.32,4.11c0,.41.68.55.75.1a12.29,12.29,0,0,0-1.73-8.34c-.14-.22-.52-.08-.43.18Z"/><path class="cls-4" d="M105.84,140.69a20.56,20.56,0,0,1,1.56,3.41c.4,1.17.64,2.39.93,3.6a.27.27,0,0,0,.53-.08,10.64,10.64,0,0,0-.74-3.78,14.21,14.21,0,0,0-1.78-3.44c-.22-.3-.69,0-.5.29Z"/><path class="cls-4" d="M112.49,148.88a23.21,23.21,0,0,1,1.59,6.67.26.26,0,0,0,.52,0,13.52,13.52,0,0,0-1.49-7c-.21-.42-.8-.05-.62.36Z"/><path class="cls-4" d="M117.93,149.42a37.91,37.91,0,0,1,1.25,4.05,23.6,23.6,0,0,1,.58,4.26.38.38,0,0,0,.75,0,16.71,16.71,0,0,0-2.28-8.43c-.1-.16-.37-.06-.3.12Z"/><path class="cls-4" d="M111.77,139.62a23.45,23.45,0,0,1,2.28,3.62q.48.94.87,1.95a18.64,18.64,0,0,0,.78,2,.31.31,0,0,0,.58-.16,6.8,6.8,0,0,0-.57-2.12,18.44,18.44,0,0,0-.95-2,17.26,17.26,0,0,0-2.59-3.59c-.19-.21-.58.08-.4.32Z"/><path class="cls-4" d="M118.68,140.91a14.84,14.84,0,0,1,2.41,3.93c.61,1.42,1,2.93,1.67,4.31.16.32.57.08.53-.22a17.12,17.12,0,0,0-1.52-4.56,12.11,12.11,0,0,0-2.71-3.85.27.27,0,0,0-.38.39Z"/><path class="cls-4" d="M119.76,137.3a35.81,35.81,0,0,1,2.92,2.43c.45.42.89.84,1.32,1.28a17.45,17.45,0,0,0,1.36,1.36.27.27,0,0,0,.43-.33,7.85,7.85,0,0,0-1.25-1.51c-.45-.45-.92-.89-1.42-1.3a18.33,18.33,0,0,0-3.25-2.12.11.11,0,0,0-.11.19Z"/><path class="cls-4" d="M129.28,145.8a20,20,0,0,1,4.06,6.85.28.28,0,0,0,.53-.15,15.51,15.51,0,0,0-4.27-7,.23.23,0,0,0-.32.33Z"/><path class="cls-4" d="M126.85,148.82a29.42,29.42,0,0,1,2.42,4.49,38.17,38.17,0,0,1,1.63,4.91c.11.38.65.21.58-.17a23.47,23.47,0,0,0-4.15-9.5c-.2-.28-.67,0-.48.27Z"/><path class="cls-4" d="M124.14,153.3a44.79,44.79,0,0,1,1.42,4.43c.39,1.51.61,3,.89,4.58.07.41.76.32.74-.1a21.87,21.87,0,0,0-1-4.67,22.78,22.78,0,0,0-1.81-4.36c-.09-.15-.35-.05-.29.12Z"/><path class="cls-4" d="M114.27,159.87a31,31,0,0,1,.64,3.3c.17,1.12.21,2.26.29,3.39a.34.34,0,0,0,.67,0,16.65,16.65,0,0,0-1.2-6.8.21.21,0,0,0-.4.11Z"/><path class="cls-4" d="M102.69,156.1c.19,1.28.42,2.56.62,3.84s.35,2.57.66,3.82a.29.29,0,0,0,.57-.08,18.7,18.7,0,0,0-.47-3.87,33.47,33.47,0,0,0-1-3.82.2.2,0,0,0-.39.11Z"/><path class="cls-4" d="M108.78,162.64c.15,1,.25,2,.37,3q.09.75.15,1.5a9.1,9.1,0,0,0,.18,1.46c.08.35.56.24.59-.08A6.27,6.27,0,0,0,110,167c-.06-.51-.13-1-.21-1.52a27.86,27.86,0,0,0-.67-3c-.06-.22-.38-.12-.34.1Z"/><path class="cls-4" d="M97.36,161.67c.47,2.57.57,5.17.88,7.76a.34.34,0,0,0,.67,0,25.27,25.27,0,0,0-1-7.92c-.09-.39-.66-.22-.59.16Z"/><path class="cls-4" d="M120.28,161.38a24.72,24.72,0,0,1,.46,2.82c.05.47.07.94.1,1.4A6.72,6.72,0,0,0,121,167a.27.27,0,0,0,.51,0,6.17,6.17,0,0,0,.09-2.93,13.6,13.6,0,0,0-.7-2.88.33.33,0,0,0-.63.17Z"/><path class="cls-4" d="M97.94,148.06a36,36,0,0,1,1.09,4.2,30.58,30.58,0,0,1,.38,4.38.35.35,0,0,0,.7,0,15.47,15.47,0,0,0-.33-4.5,14.27,14.27,0,0,0-1.53-4.21.17.17,0,0,0-.31.13Z"/><path class="cls-4" d="M134.56,155.53a12.93,12.93,0,0,1,.74,2.36,18,18,0,0,1,.31,2.42.36.36,0,0,0,.72,0,10.25,10.25,0,0,0-1.39-5c-.14-.25-.49,0-.38.22Z"/><path class="cls-4" d="M88.15,158.37a14.94,14.94,0,0,0-.57,7.67.32.32,0,0,0,.62-.08c0-1.24-.1-2.48-.06-3.72a29.82,29.82,0,0,1,.34-3.78.17.17,0,0,0-.33-.09Z"/><path class="cls-4" d="M83.59,165.51a14.69,14.69,0,0,0-.59,4.92,6.29,6.29,0,0,0,.21,1.68.37.37,0,0,0,.72-.1,14.22,14.22,0,0,0-.13-1.58q-.06-.83-.06-1.65a31.27,31.27,0,0,1,.21-3.22c0-.21-.3-.23-.36-.05Z"/><path class="cls-4" d="M92.91,165.56c.1,1.06.2,2.14.2,3.22,0,.53,0,1.06,0,1.59a15.33,15.33,0,0,0-.14,1.64.37.37,0,0,0,.72.1,5.91,5.91,0,0,0,.21-1.68,15.14,15.14,0,0,0,0-1.65,13.37,13.37,0,0,0-.59-3.27c-.06-.18-.37-.17-.35.05Z"/><path class="cls-5" d="M115.61,140.83a30.13,30.13,0,0,1,11.51-1.7,32.13,32.13,0,0,0-16.85-6.89H66.58a32.13,32.13,0,0,0-16.85,6.89,30.13,30.13,0,0,1,11.51,1.7c9.31,3.5,27.16,3.39,27.19,3.39S106.3,144.33,115.61,140.83Z"/><path class="cls-4" d="M143,158.69a51.26,51.26,0,0,0-13.53-18.63,34.37,34.37,0,0,0-17-8.3,48,48,0,0,0-7.59-.27H75c-2.75,0-5.52-.09-8.28,0-5.59.19-11.28,2.68-15.81,5.84a50.6,50.6,0,0,0-16.77,20.78c-.09.2-.17.39-.26.58-.36.9,1.09,1.29,1.45.4-.1.26.08-.18.15-.33q.3-.67.63-1.32,1.11-2.25,2.42-4.38a51.14,51.14,0,0,1,9.94-11.94,32.59,32.59,0,0,1,17.12-8,54,54,0,0,1,6.85-.11h29c2.85,0,5.71-.06,8.55,0,5.23.11,10.58,2.5,14.84,5.39,7.26,4.93,12.92,12.43,16.54,20.38.07.14.26.6.15.33.36.88,1.82.5,1.45-.4Z"/><path class="cls-3" d="M145.14,73.57C135.82,37,100.78,29.83,88.43,29.84S41,37,31.71,73.57c-4.5,17.65-6.88,38.75-6.32,41.94s2.44,2.44,3.38,1.32.43,4.09.23,8.22,4.52,3.75,6.11,3.07,1.29,0,.91.72-1.4,1.93.62,2.41,6.34-.87,6.44-.15-1.54,1.92.38,2.31,9.67-1.62,17.78,1.42c9.31,3.5,27.16,3.39,27.19,3.39s17.87.11,27.18-3.39c8.11-3,15.86-1,17.78-1.42s.29-1.59.38-2.31,4.42.63,6.44.15,1-1.73.62-2.41-.67-1.39.92-.72,6.29,1.06,6.1-3.07-.7-9.35.23-8.22,2.82,1.87,3.38-1.32S149.64,91.22,145.14,73.57Z"/><path class="cls-5" d="M145.14,73.57A55.18,55.18,0,0,0,129,46a55,55,0,0,1,11.8,23.46c4.15,17.08,6.36,37.49,5.84,40.57s-2.26,2.36-3.13,1.27-.39,4-.21,8-4.18,3.63-5.64,3-1.2,0-.84.7,1.28,1.86-.58,2.33-5.86-.84-6-.14,1.42,1.86-.35,2.23-8.94-1.57-16.43,1.37c-8.6,3.38-25.09,3.28-25.11,3.28s-16.52.1-25.12-3.28c-7.49-2.94-14.65-1-16.42-1.37s-.27-1.54-.36-2.23-4.08.6-6,.14-.93-1.68-.57-2.33.62-1.35-.85-.7-5.81,1-5.63-3,.64-9-.22-8-2.6,1.82-3.12-1.27S31.87,86.51,36,69.43A55,55,0,0,1,47.82,46a55.18,55.18,0,0,0-16.11,27.6c-4.5,17.65-6.88,38.75-6.32,41.94s2.44,2.44,3.38,1.32.43,4.09.23,8.22,4.52,3.75,6.11,3.07,1.29,0,.91.72-1.4,1.93.62,2.41,6.34-.87,6.44-.15-1.54,1.92.38,2.31,9.67-1.62,17.78,1.42c9.31,3.5,27.16,3.39,27.19,3.39s17.87.11,27.18-3.39c8.11-3,15.86-1,17.78-1.42s.29-1.59.38-2.31,4.42.63,6.44.15,1-1.73.62-2.41-.67-1.39.92-.72,6.29,1.06,6.1-3.07-.7-9.35.23-8.22,2.82,1.87,3.38-1.32S149.64,91.22,145.14,73.57Z"/><path class="cls-4" d="M27.85,114.74c.19-.71.31-1.43.53-2.13s.47-1.3.74-1.94A42.46,42.46,0,0,1,31,106.78c.37-.7-.72-1.32-1.05-.61a44.91,44.91,0,0,0-1.79,4.16,14.45,14.45,0,0,0-.56,2.15,7.76,7.76,0,0,0-.17,2.2c0,.21.33.29.39.06Z"/><path class="cls-4" d="M30.79,114.81c.47-1,.93-1.93,1.47-2.86.27-.45.55-.91.86-1.34s.57-.93.85-1.4a.4.4,0,0,0-.62-.48A7.25,7.25,0,0,0,32.26,110a16.48,16.48,0,0,0-.83,1.48,12.24,12.24,0,0,0-1.11,3.14c-.05.27.33.48.47.2Z"/><path class="cls-4" d="M31.34,125.38a51.18,51.18,0,0,1,2-7.4,35.26,35.26,0,0,1,1.52-3.58c.55-1.13,1.25-2.2,1.72-3.38.18-.46-.49-.8-.81-.47a12.67,12.67,0,0,0-2.05,3.33,27.38,27.38,0,0,0-1.44,3.67,22.29,22.29,0,0,0-1.06,7.81.06.06,0,0,0,.12,0Z"/><path class="cls-4" d="M33.94,124.77a32.06,32.06,0,0,1,2.77-4.23A25.84,25.84,0,0,1,40.32,117c.42-.35-.12-1-.58-.76a14.5,14.5,0,0,0-3.87,3.66,12.45,12.45,0,0,0-2.28,4.75.19.19,0,0,0,.35.14Z"/><path class="cls-4" d="M37.84,126.37a36.67,36.67,0,0,1,3.61-3.2,22.22,22.22,0,0,1,4.22-2.33c.52-.23.15-1.1-.39-.92a15.36,15.36,0,0,0-4.48,2.39A12.35,12.35,0,0,0,37.36,126a.31.31,0,0,0,.48.37Z"/><path class="cls-4" d="M38.91,129.38a9.53,9.53,0,0,1,3.53-2c1.45-.49,3-.66,4.43-1.16.43-.16.39-.84-.11-.83a13.71,13.71,0,0,0-4.8,1,10.16,10.16,0,0,0-3.62,2.37.4.4,0,0,0,.57.57Z"/><path class="cls-4" d="M44.44,132a18.08,18.08,0,0,1,5.92-1.39,16.89,16.89,0,0,1,3,.11c1,.13,2,.42,2.95.5.4,0,.5-.53.2-.72a7.24,7.24,0,0,0-3-.86,14.18,14.18,0,0,0-3.32-.07,14,14,0,0,0-6,1.94c-.25.15-.08.61.21.49Z"/><path class="cls-4" d="M149.39,114.68a7.28,7.28,0,0,0-.16-2.13,14.15,14.15,0,0,0-.56-2.22,45,45,0,0,0-1.8-4.16c-.33-.71-1.42-.09-1.05.61a42.46,42.46,0,0,1,1.91,3.89c.27.64.53,1.27.74,1.94s.34,1.42.53,2.13c.06.23.37.16.39-.06Z"/><path class="cls-4" d="M146.53,114.61a12.24,12.24,0,0,0-1.11-3.14c-.24-.49-.52-1-.8-1.43a7.33,7.33,0,0,0-1.11-1.31.4.4,0,0,0-.63.48c.28.46.52.92.83,1.36s.6.91.88,1.38c.55.93,1,1.9,1.47,2.86.14.28.52.07.47-.2Z"/><path class="cls-4" d="M145.63,125.36a22.29,22.29,0,0,0-1.06-7.81,27.38,27.38,0,0,0-1.44-3.67,12.67,12.67,0,0,0-2-3.33c-.31-.33-1,0-.8.47.45,1.14,1.12,2.17,1.66,3.27a34.34,34.34,0,0,1,1.57,3.69,52.53,52.53,0,0,1,2,7.4c0,.07.11.05.11,0Z"/><path class="cls-4" d="M143.26,124.63a12.31,12.31,0,0,0-2.28-4.75,14.35,14.35,0,0,0-3.87-3.66c-.45-.28-1,.4-.58.76a25.31,25.31,0,0,1,3.61,3.56,33.17,33.17,0,0,1,2.78,4.23.19.19,0,0,0,.34-.14Z"/><path class="cls-4" d="M139.49,126a12.45,12.45,0,0,0-3.43-3.69,15.41,15.41,0,0,0-4.49-2.39c-.53-.18-.92.69-.39.92a22.22,22.22,0,0,1,4.22,2.33,36.67,36.67,0,0,1,3.61,3.2.31.31,0,0,0,.48-.37Z"/><path class="cls-4" d="M138.51,128.81a10.07,10.07,0,0,0-3.62-2.37,13.66,13.66,0,0,0-4.79-1,.43.43,0,0,0-.12.83c1.45.5,3,.67,4.43,1.16a9.57,9.57,0,0,1,3.54,2,.4.4,0,0,0,.56-.57Z"/><path class="cls-4" d="M132.62,131.54a14,14,0,0,0-6-1.94,15.08,15.08,0,0,0-3.22.05,7.41,7.41,0,0,0-3.05.88c-.3.19-.2.75.2.72,1-.08,2-.37,3-.5a16.92,16.92,0,0,1,3-.11,18,18,0,0,1,5.92,1.39c.29.12.46-.34.21-.49Z"/><path class="cls-4" d="M145.87,73.37A58.42,58.42,0,0,0,135,51.28a56.25,56.25,0,0,0-15.95-13.51A64.2,64.2,0,0,0,89.31,29.1c-9.78-.24-20,2.72-28.61,7.09A56.56,56.56,0,0,0,32.43,68.51a118.5,118.5,0,0,0-3.71,14.85Q27.18,91,26.08,98.66c-.56,3.92-1,7.86-1.35,11.8-.16,2.13-.66,5.06.54,7a2.19,2.19,0,0,0,3.15.67,2.06,2.06,0,0,0,.61-.48c.23-.34.5-.2-.15-.4-.82-.26-.25-.14-.35.16a3.19,3.19,0,0,0,0,1c0,.59,0,1.19-.05,1.78-.14,3.24-1.39,8.2,3,9a7.51,7.51,0,0,0,3.73-.31l.75-.26-.22-.25c-.14-.31-.24-.34-.3-.08a2.78,2.78,0,0,0-.42.73,2.1,2.1,0,0,0-.27,1.75c.59,1.57,3,1.4,4.31,1.26.86-.08,1.71-.23,2.57-.33,0,0,1,0,1-.05l-.35-.4-.1.19a1.71,1.71,0,0,0-.27.56c-1.23,3.32,5.59,2,7,1.92a33.45,33.45,0,0,1,7.93.48c2.37.46,4.57,1.41,6.88,2,7.16,1.93,14.8,2.37,22.19,2.52,3.74.08,7.48,0,11.22-.26a101.21,101.21,0,0,0,11.91-1.37c4.66-.86,9-2.91,13.74-3.32a44.22,44.22,0,0,1,7,0c1.27.09,2.87.46,4.12,0a1.53,1.53,0,0,0,1.13-1.3,2.19,2.19,0,0,0-.25-.93,1.68,1.68,0,0,0-.19-.38c-.06-.26-.15-.26-.27,0s-.25.24,0,.2a3.9,3.9,0,0,0,1,.07c.45,0,.89.12,1.34.18a14.92,14.92,0,0,0,2.83.2c1.37-.08,3.08-.78,2.6-2.45-.06-.18-.59-1.49-.79-1.53l-.44.5.3.09a3.32,3.32,0,0,0,.59.22,5.19,5.19,0,0,0,.94.24c3,.54,6-.72,5.91-4.11,0-2.27-.35-4.54-.31-6.82a4.07,4.07,0,0,0,.06-1c-.12-.28-.83-.19-.73.18,0,.11.26.27.34.34a3,3,0,0,0,1.6.76c2.72.27,2.78-3.54,2.72-5.41a168.82,168.82,0,0,0-3.11-24.33c-.93-5.18-2-10.32-3.3-15.42a.75.75,0,0,0-1.45.4,241.21,241.21,0,0,1,5.45,29.36c.4,3.25.78,6.53.9,9.81a14.28,14.28,0,0,1,0,2.37c-.09.62-.32,1.82-1.14,1.71-.59-.09-.82-.74-1.3-1-1.21-.62-1.47,1-1.5,1.8-.1,2.2.16,4.43.27,6.62.1,1.86-.49,3.13-2.48,3.32a5.92,5.92,0,0,1-1.78-.12,8.35,8.35,0,0,0-2-.55c-1.54,0-.92,1.59-.46,2.41.14.26.37.52.21.77s-1,.3-1.36.31a18.59,18.59,0,0,1-2.89-.26c-.87-.12-2.83-.67-3.25.49-.2.54.15,1,.31,1.45s.5.29-.25.41a3.84,3.84,0,0,1-.83,0c-4.16-.13-8.15-.58-12.3.16-2.38.42-4.58,1.34-6.9,2a50.49,50.49,0,0,1-5.71,1.24,118.37,118.37,0,0,1-18.62,1.38c-4.39,0-8.78-.2-13.14-.61a67.78,67.78,0,0,1-11.76-2c-2.21-.62-4.32-1.52-6.59-2a34.37,34.37,0,0,0-7.44-.56c-1.77.05-3.53.27-5.31.32a4,4,0,0,1-.69,0h-.19c-1-.15-.32,0-.3-.21.06-.6.67-1,.42-1.65-.41-1.13-2.26-.62-3.11-.51a21.51,21.51,0,0,1-2.76.28,3.84,3.84,0,0,1-1.07-.08c-.77-.2-.71-.34-.4-.92.43-.81,1.21-2.45-.42-2.49a6.83,6.83,0,0,0-1.8.51,5.88,5.88,0,0,1-2,.16c-1.87-.18-2.57-1.32-2.49-3.12.1-2.22.37-4.46.29-6.69,0-.78-.18-2.47-1.42-2-.46.19-.68.71-1.14.92-1,.44-1.28-.88-1.39-1.61a28.63,28.63,0,0,1,.25-6.38A230.34,230.34,0,0,1,30.6,81.66c1.85-8.72,4.19-17.19,9-24.78A53.35,53.35,0,0,1,54.28,41.74a64.07,64.07,0,0,1,30.37-11c8.71-.78,17.68,1.24,25.74,4.45A55.93,55.93,0,0,1,140.13,62a60.45,60.45,0,0,1,4.29,11.74A.75.75,0,0,0,145.87,73.37Z"/><path class="cls-4" d="M59.6,37.61s-2.67-4.69-2.23-6,6.55,1.31,6.55,1.31-1.48-4.28-.79-5.42,5.95,2.34,5.95,2.34-3-6.88-1-11,8.91,7,8.91,7-.52-4.28.44-4.89,4.28,3.23,4.28,3.23A24.57,24.57,0,0,1,88.91,11.6c5.94-5.33,11.19-5.33,7.52,14.24,0,0,6-6.2,8.38-5.68s0,8.48,0,8.48,5-3.94,6.73-3-.7,5.53-.7,5.53,5.43-2,6.6.58,0,5.93,0,5.93-9.83,1.41-13.76,8.32-5.42,10.31-6.12,9.61S95.81,53.28,95,54.15s-2.89,3.41-3.76,3.23-1.49-2.09-1.92-2-1.4,2.12-1.71,2-1.61-2.19-2-2.19-1.05,2.21-1.58,2.2-2.62-3.69-3.58-3.07-1.92,1.92-2.71,1.83S75.46,41.94,59.6,37.61Z"/><path class="cls-3" d="M93,14A72.94,72.94,0,0,0,86.3,32.59a54.39,54.39,0,0,0-1.17,9.93,42.84,42.84,0,0,0,.16,4.94,21.59,21.59,0,0,0,.82,5c.16.44.92.41.88-.12-.12-1.63-.54-3.24-.69-4.88s-.22-3.29-.21-4.94a53.54,53.54,0,0,1,1.08-10.17,104,104,0,0,1,6-18.31A.08.08,0,0,0,93,14Z"/><path class="cls-3" d="M95.09,28.26a45.42,45.42,0,0,0-3.45,11.39A40,40,0,0,0,91.1,51.3c.07.49.84.35.84-.12,0-1.94-.13-3.88,0-5.83a50.68,50.68,0,0,1,.61-5.89,60.65,60.65,0,0,1,2.94-11c.07-.2-.27-.35-.36-.15Z"/><path class="cls-3" d="M103,26.09a45.4,45.4,0,0,0-6.34,12,50.75,50.75,0,0,0-1.84,6.62c-.39,1.93-1.09,4.41-.74,6.36.06.32.5.26.59,0a17.35,17.35,0,0,0,.51-3.38c.14-1,.31-2,.52-3a54.85,54.85,0,0,1,1.71-6.43,62.89,62.89,0,0,1,5.66-12.17c0-.05,0-.08-.07,0Z"/><path class="cls-3" d="M108.18,30.79a42.5,42.5,0,0,0-6.61,9.94,47.39,47.39,0,0,0-2.17,5.39c-.32.93-.6,1.86-.85,2.81-.2.74-.65,1.71-.28,2.43a.24.24,0,0,0,.37,0c.6-.47.62-1.51.81-2.22.23-.89.49-1.78.77-2.66a48.39,48.39,0,0,1,2.24-5.67,59.84,59.84,0,0,1,5.89-9.93c.08-.1-.09-.22-.17-.13Z"/><path class="cls-3" d="M114.59,33.8a25.24,25.24,0,0,0-4.41,2.64,14.36,14.36,0,0,0-3.63,3.45c-.1.16.12.4.28.27a21.35,21.35,0,0,0,1.8-1.63c.61-.57,1.24-1.11,1.9-1.63a31.36,31.36,0,0,1,4.25-2.78c.21-.11,0-.42-.19-.32Z"/><path class="cls-3" d="M79.36,25.13c.81,4.29,1.66,8.6,2.28,12.93.32,2.24.57,4.5.75,6.76.15,2-.08,4.31.44,6.26a.29.29,0,0,0,.56,0c.43-1.94,0-4.3-.15-6.26q-.26-3.27-.71-6.51a66.39,66.39,0,0,0-3.13-13.2s-.05,0,0,0Z"/><path class="cls-3" d="M70.12,22.78c3,4,4.84,8.85,6.35,13.54a72.51,72.51,0,0,1,2,7.39c.55,2.64.61,5.36,1.18,8,.05.24.47.26.51,0a23.41,23.41,0,0,0-.67-7.54,66.17,66.17,0,0,0-2.24-8.28c-1.62-4.82-3.61-9.33-7-13.14,0,0-.09,0-.06.05Z"/><path class="cls-3" d="M65.42,31.15c2,2.43,3.91,4.93,5.79,7.44s3.47,5.07,5.26,7.57a.31.31,0,0,0,.54-.31A54.69,54.69,0,0,0,71.72,38a59.08,59.08,0,0,0-6.23-6.9s-.1,0-.07.07Z"/><path class="cls-6" d="M59.37,77.32C47.68,77,45.46,91.09,49.45,97.45c2,3.19,4.5,5.4,9.92,5.4,5.25,0,7.92-2.21,9.92-5.4C73.29,91.09,71.07,77,59.37,77.32Z"/><path class="cls-4" d="M71.31,85.89a12.61,12.61,0,0,0-5.62-7.83A13.71,13.71,0,0,0,55.5,77c-5.55,1.58-8.39,7.14-8.61,12.59a14.52,14.52,0,0,0,1.92,8.21c.5.82,1.8.07,1.29-.76-2.34-3.8-2.26-9.19-.36-13.15a10.13,10.13,0,0,1,4.87-5,12.53,12.53,0,0,1,8.9-.25c3.36,1.22,5.44,4.25,6.35,7.6a.75.75,0,0,0,1.45-.4Z"/><ellipse class="cls-4" cx="62.42" cy="90.5" rx="7.4" ry="9.15"/><path class="cls-6" d="M117.48,77.32c11.7-.3,13.92,13.77,9.92,20.13-2,3.19-4.5,5.4-9.92,5.4-5.25,0-7.92-2.21-9.92-5.4C103.56,91.09,105.78,77,117.48,77.32Z"/><path class="cls-4" d="M107,86.29a11,11,0,0,1,5.17-7.07,12.25,12.25,0,0,1,9.23-.61c4.74,1.58,7,6.63,7.09,11.32a13.08,13.08,0,0,1-1.73,7.14c-.51.83.79,1.58,1.3.76,2.69-4.38,2.51-10.56.18-15a11.39,11.39,0,0,0-5.81-5.39,13.89,13.89,0,0,0-10.11.1,12.31,12.31,0,0,0-6.77,8.39.75.75,0,0,0,1.45.4Z"/><ellipse class="cls-4" cx="114.44" cy="90.5" rx="7.4" ry="9.15"/><path class="cls-7" d="M47.82,111.23c-11.28-2.58-7.67-10.29,0-8.46C58.43,105.31,57,113.35,47.82,111.23Z"/><path class="cls-7" d="M129,111.23c11.27-2.58,7.67-10.29,0-8.46C118.42,105.31,119.81,113.35,129,111.23Z"/><path class="cls-4" d="M54.23,73.91a10.36,10.36,0,0,1,7.82-.32c2.25.8,3.49-1,1.85-2.28-1.9-1.48-6.64-2.34-10-.71s-3.1,2.74-2.83,3.38S52.37,74.7,54.23,73.91Z"/><path class="cls-4" d="M122.62,73.91a10.36,10.36,0,0,0-7.82-.32c-2.25.8-3.49-1-1.84-2.28,1.89-1.48,6.64-2.34,10-.71S126,73.34,125.74,74,124.48,74.7,122.62,73.91Z"/><path class="cls-8" d="M103.52,108.33s8.31,1.7,9.71.47,3.4-3.45,3.4-3.45,1.4,7.49-.3,10.47-7.31,4.39-13.57,3.86Z"/><path class="cls-4" d="M116.8,114.2a1.61,1.61,0,0,0,.15-.53,3.62,3.62,0,0,0,0-.57,4.46,4.46,0,0,0-.19-1.15,4.06,4.06,0,0,0-1.12-2,.23.23,0,0,0-.36.28,15.37,15.37,0,0,1,.9,1.93,8.46,8.46,0,0,1,.26,1,4.82,4.82,0,0,1,.11.52,3,3,0,0,0,.14.51s.07,0,.09,0Z"/><path class="cls-4" d="M115.43,117.11a4.77,4.77,0,0,0,0-2.87,9.42,9.42,0,0,0-1.15-2.69.25.25,0,0,0-.45.19c.24.88.65,1.71.9,2.59a9.65,9.65,0,0,1,.35,2.73.19.19,0,0,0,.37,0Z"/><path class="cls-4" d="M109,109.24a7.49,7.49,0,0,1,1.51,2.75c.17.55.34,1.09.47,1.64a7,7,0,0,0,.51,1.63c.07.15.28.06.29-.08a5.83,5.83,0,0,0-.23-1.76,10.65,10.65,0,0,0-.55-1.74,7.73,7.73,0,0,0-1.78-2.66c-.14-.14-.35.07-.22.22Z"/><path class="cls-4" d="M107.53,109.08a17.61,17.61,0,0,1,1,2.19c.14.36.27.72.38,1.1a4.18,4.18,0,0,0,.4,1.14.19.19,0,0,0,.35-.09,2.76,2.76,0,0,0-.23-1.2c-.13-.4-.29-.79-.46-1.18a10.81,10.81,0,0,0-1.3-2.1c-.09-.1-.25,0-.19.14Z"/><path class="cls-4" d="M103.32,109.06a43.3,43.3,0,0,0,7.08.93,4.94,4.94,0,0,0,3.43-.72,34.39,34.39,0,0,0,3.33-3.39l-1.26-.33a28.18,28.18,0,0,1,.48,6.92,5.64,5.64,0,0,1-1.38,3.85,9.39,9.39,0,0,1-4.55,2.18,24.82,24.82,0,0,1-7.69.43l.75.75.76-11.35c.06-1-1.44-1-1.5,0L102,119.68a.76.76,0,0,0,.75.75c4.18.34,9.42.15,12.84-2.63,2.69-2.2,2.47-6.17,2.19-9.3-.1-1.12-.24-2.24-.44-3.35a.76.76,0,0,0-1.26-.33c-1,1.06-1.93,2.11-3,3.08a1.44,1.44,0,0,1-1.1.55,11,11,0,0,1-1.9,0,41.77,41.77,0,0,1-6.39-.87C102.78,107.42,102.37,108.87,103.32,109.06Z"/><path class="cls-8" d="M73.33,108.33s-8.31,1.7-9.71.47-3.39-3.45-3.39-3.45-1.41,7.49.29,10.47,7.31,4.39,13.57,3.86Z"/><path class="cls-4" d="M60.14,114.2a4.28,4.28,0,0,0,.15-.51c0-.17.06-.35.1-.52.08-.35.15-.69.26-1a16.92,16.92,0,0,1,.9-1.93.23.23,0,0,0-.35-.28,4,4,0,0,0-1.13,2,5.26,5.26,0,0,0-.19,1.11c0,.2,0,.39,0,.58a2.12,2.12,0,0,0,.16.56s.08,0,.09,0Z"/><path class="cls-4" d="M61.79,117.06a9.65,9.65,0,0,1,.35-2.73c.25-.88.66-1.71.9-2.59a.24.24,0,0,0-.44-.19,9.17,9.17,0,0,0-1.16,2.69,4.77,4.77,0,0,0,0,2.87.19.19,0,0,0,.37,0Z"/><path class="cls-4" d="M67.59,109a7.73,7.73,0,0,0-1.78,2.66,12.18,12.18,0,0,0-.54,1.68,6.6,6.6,0,0,0-.24,1.82c0,.14.22.23.29.08a7,7,0,0,0,.5-1.57c.13-.57.3-1.14.48-1.7a7.49,7.49,0,0,1,1.51-2.75.16.16,0,0,0-.22-.22Z"/><path class="cls-4" d="M69.14,108.94a9.92,9.92,0,0,0-1.3,2.1c-.17.38-.32.76-.46,1.14a2.82,2.82,0,0,0-.23,1.24.19.19,0,0,0,.35.09,5,5,0,0,0,.4-1.14,10.15,10.15,0,0,1,.37-1.1,17.61,17.61,0,0,1,1-2.19c.06-.11-.1-.25-.18-.14Z"/><path class="cls-4" d="M73.13,107.61a41.77,41.77,0,0,1-6.39.87,10.83,10.83,0,0,1-1.89,0,1.41,1.41,0,0,1-1-.48c-1.07-1-2.08-2.06-3.05-3.15a.76.76,0,0,0-1.26.33,27.79,27.79,0,0,0-.47,8,6.72,6.72,0,0,0,1.76,4.25,10.7,10.7,0,0,0,5,2.52,25.67,25.67,0,0,0,8.29.53.75.75,0,0,0,.75-.75l-.76-11.35c-.06-1-1.56-1-1.5,0l.76,11.35.75-.75a25.85,25.85,0,0,1-6.86-.25,11.35,11.35,0,0,1-4.92-2c-2.41-1.89-2-5.67-1.73-8.38.08-.94.2-1.88.37-2.8l-1.25.33A38.05,38.05,0,0,0,63,109.22a4.93,4.93,0,0,0,3.49.77,43.3,43.3,0,0,0,7.08-.93C74.48,108.87,74.08,107.42,73.13,107.61Z"/><path class="cls-7" d="M103.05,103.85c-1.23-2.54-6.14-3.2-10.47-5.4-2.45-1.24-3.37-1.85-4.15-1.85s-1.7.61-4.16,1.85c-4.33,2.2-9.24,2.86-10.47,5.4-1.11,2.29-5.32,11.45-3.8,15.42s11.79,5.8,18.43,5.8,16.9-1.82,18.42-5.8S104.16,106.14,103.05,103.85Z"/><g class="cls-9"><path class="cls-6" d="M76.61,105.5c1.76-.93,3.54-1.82,5.35-2.65l2.82-1.3c1.09-.51,2.16-1.18,3.41-1a25.6,25.6,0,0,1,5.77,2c1.94.79,3.8,1.74,5.73,2.55.57.24.91-.68.41-1a40.24,40.24,0,0,0-6-2.82c-1.07-.43-2.16-.83-3.25-1.21a9.42,9.42,0,0,0-3.16-.79,5.92,5.92,0,0,0-2.47.82l-3.15,1.6a23,23,0,0,0-5.72,3.44.23.23,0,0,0,.28.37Z"/></g><path class="cls-10" d="M88.43,119.58c-6.55,0-16.61-1.77-18.35-5.63a10,10,0,0,0-.08,5.32c1.52,4,11.79,5.8,18.43,5.8s16.9-1.82,18.42-5.8a9.92,9.92,0,0,0-.08-5.32C105,117.81,95,119.58,88.43,119.58Z"/><path class="cls-4" d="M103.7,103.47c-.86-1.59-2.58-2.38-4.19-3-2.4-1-4.85-1.75-7.16-2.94-1.19-.61-2.65-1.71-4.06-1.63-1.65.09-3.35,1.45-4.78,2.14-2.16,1-4.47,1.7-6.68,2.65a6.86,6.86,0,0,0-3.8,3.07,46.91,46.91,0,0,0-3.5,9.29c-.72,2.88-1.27,6.37,1.25,8.51,2.81,2.38,7,3.19,10.52,3.72a46.29,46.29,0,0,0,12,.3c3.81-.41,7.92-1.1,11.3-3a6.15,6.15,0,0,0,3.06-3.27,10.66,10.66,0,0,0-.11-5.35,46.49,46.49,0,0,0-3.84-10.45c-.42-.87-1.71-.11-1.3.76a51.88,51.88,0,0,1,3.15,8c.7,2.39,1.83,6.06-.28,8-2.39,2.24-6.33,2.94-9.42,3.46a44.09,44.09,0,0,1-10.76.49,33.89,33.89,0,0,1-10.82-2.32A7.51,7.51,0,0,1,71,119.59a5.67,5.67,0,0,1-.49-3.91,35,35,0,0,1,3-9.39,8.75,8.75,0,0,1,1.6-2.92c1.41-1.31,3.56-1.85,5.32-2.5a63.73,63.73,0,0,0,6.58-3,3.07,3.07,0,0,1,1.57-.53,5.46,5.46,0,0,1,1.83.81,56.25,56.25,0,0,0,6.6,2.91c1.81.66,4.41,1.31,5.4,3.15C102.86,105.08,104.16,104.32,103.7,103.47Z"/><path class="cls-4" d="M83.8,103.85s-8.6,3.08-7.6,5.42S83.69,107.73,83.8,103.85Z"/><path class="cls-4" d="M93.05,103.85s8.6,3.08,7.6,5.42S93.17,107.73,93.05,103.85Z"/><path class="cls-3" d="M49,46.25a15.82,15.82,0,0,1-7.3,0c-3.65-1-7.93-5.52-9.27-10.69a18,18,0,0,1,2.85-15.41c3.48-4.72,10-6.14,11.32-2S51.91,37.43,63,38Z"/><path class="cls-4" d="M48.75,45.53a12.5,12.5,0,0,1-8.08-.44,14.68,14.68,0,0,1-6.37-6.62c-3.09-6-2.21-14.28,2.61-19.13,1.69-1.69,4.49-3.41,7-2.76,1.74.46,2,2.16,2.5,3.65a43.93,43.93,0,0,0,4.7,10.63c2.72,4.22,6.67,7.54,11.86,7.86,1,.06,1-1.44,0-1.5-5.28-.32-9-4.25-11.47-8.61a41.14,41.14,0,0,1-2.78-6.21c-.55-1.53-.94-3.14-1.53-4.66-2.13-5.53-9.51-1.7-12,1.32a18.77,18.77,0,0,0-2.4,19.64,16.37,16.37,0,0,0,7.17,7.69,14,14,0,0,0,9.24.58.75.75,0,0,0-.4-1.44Z"/><path class="cls-11" d="M57.19,39.61A14.28,14.28,0,0,1,47,32.22c-3.65-6.68-3.47-10.07-5.17-10.6S35,27.23,37,34.54s7.18,10.28,14,9.28"/><path class="cls-4" d="M57.19,38.86c.08,0,.15,0,0,0l-.58-.12a13.36,13.36,0,0,1-1.86-.58,13.78,13.78,0,0,1-5.24-3.72,26.15,26.15,0,0,1-4.28-7.93A23.24,23.24,0,0,0,43.39,22c-2-3.13-5.17,1.16-6.11,3a14.56,14.56,0,0,0,1,14.47c2.9,4.39,7.82,5.77,12.84,5.07,1-.13.54-1.57-.4-1.44-4.15.57-8.39-.5-10.92-4A13.09,13.09,0,0,1,38.76,25.4a9.81,9.81,0,0,1,1.5-2.12c.28-.29.87-.94,1.33-.94.66,0,1.07,1.57,1.26,2.09,1.56,4.29,3.18,9,6.62,12.15a14.2,14.2,0,0,0,7.72,3.78c1,.11,1-1.39,0-1.5Z"/><path class="cls-12" d="M35.51,19.81c-.09.11-.19.22-.28.34a18,18,0,0,0-2.85,15.41c1.34,5.17,5.62,9.71,9.27,10.69a15.23,15.23,0,0,0,5.94.26C32.45,41.77,33.51,27.8,35.51,19.81Z"/><path class="cls-3" d="M127.9,46.25a15.82,15.82,0,0,0,7.3,0c3.66-1,7.93-5.52,9.27-10.69a18,18,0,0,0-2.85-15.41c-3.48-4.72-10-6.14-11.31-2S124.94,37.43,113.89,38Z"/><path class="cls-4" d="M127.7,47a14.62,14.62,0,0,0,8.24-.16,14.63,14.63,0,0,0,6.81-5.75,18.73,18.73,0,0,0,.47-19.85,13.05,13.05,0,0,0-6.61-5.76c-2-.72-4.59-.79-6.13.92-1.07,1.2-1.36,3.14-1.85,4.63a47.44,47.44,0,0,1-2.41,6c-2.45,5-6.36,9.89-12.33,10.25-1,.06-1,1.56,0,1.5,9.12-.55,13.69-9.8,16.22-17.42.42-1.28.67-3.3,1.76-4.19,1.81-1.49,4.73-.26,6.39.85,5.67,3.77,7.22,12,5.27,18.15A15.64,15.64,0,0,1,137,44.65a12.07,12.07,0,0,1-8.91.88.75.75,0,0,0-.4,1.44Z"/><path class="cls-11" d="M119.67,39.61a14.27,14.27,0,0,0,10.15-7.39c3.65-6.68,3.48-10.07,5.17-10.6s6.86,5.61,4.9,12.92-7.19,10.28-14,9.28"/><path class="cls-4" d="M119.67,40.36a13.69,13.69,0,0,0,6.49-2.77c3.85-2.89,5.8-7.51,7.39-11.91.3-.81.63-2.74,1.46-3.24s1.9,1.16,2.3,1.69a12.82,12.82,0,0,1,.6,13.49c-2.37,4.47-6.94,6.15-11.79,5.48-1-.13-1.36,1.31-.4,1.44,4.35.61,8.85-.26,11.83-3.73a14.72,14.72,0,0,0,2.71-14.22c-.64-1.77-3.61-7.6-6.28-5.23-1,.86-1.33,2.4-1.75,3.58a39.93,39.93,0,0,1-3.5,7.67,14,14,0,0,1-5.93,5.26,13.26,13.26,0,0,1-2.29.81l-.71.16-.13,0c-1,.11-1,1.61,0,1.5Z"/><path class="cls-12" d="M141.34,19.81c.09.11.19.22.28.34a18,18,0,0,1,2.85,15.41c-1.34,5.17-5.61,9.71-9.27,10.69a15.23,15.23,0,0,1-5.94.26C144.4,41.77,143.35,27.8,141.34,19.81Z"/></g></g></g></svg>