<svg xmlns="http://www.w3.org/2000/svg" viewBox="0 0 172.58 187.08"><defs><style>.cls-1{isolation:isolate;}.cls-2{fill:#b8dcff;}.cls-3,.cls-6{fill:#f6764d;}.cls-4,.cls-9{fill:#ffdda3;}.cls-5{fill:#d85632;}.cls-6{opacity:0.4;}.cls-6,.cls-8,.cls-9{mix-blend-mode:multiply;}.cls-7{fill:#8a312d;}.cls-8{opacity:0.7;}.cls-9{opacity:0.5;}.cls-10{fill:#fff;}.cls-11{fill:#ff8285;}.cls-12{opacity:0.3;mix-blend-mode:overlay;}</style></defs><g class="cls-1"><g id="Layer_2" data-name="Layer 2"><g id="OBJECTS"><path class="cls-2" d="M100.08,179.83c24.56-5,50.05-16.82,60.59-30.74s-14-13.5-10-24.24S174.6,94.26,155.26,58,76.05-6.57,26.47,41.94C-30.89,98.06,10.1,198.28,100.08,179.83Z"/><path class="cls-2" d="M171.92,129.24c4.18-10-12.81-12.6-17.55-5.27S167.18,140.63,171.92,129.24Z"/><path class="cls-2" d="M167.13,116.25c6.72-4.55,1.46-12.59-5.4-6.58S160.42,120.81,167.13,116.25Z"/><path class="cls-3" d="M108.15,145.51H64.46c-21.84,2-32,26.66-32,26.66,17.13,15.23,53.81,14.91,53.81,14.91s36.67.32,53.8-14.91C140.11,172.17,130,147.52,108.15,145.51Z"/><path class="cls-4" d="M102.48,156.68c-1.55-2.91-1.15-7.27-.4-10.81H70.53c.75,3.54,1.15,7.9-.4,10.81-2.77,5.21-13.37,12.39-13.49,26.79a135.06,135.06,0,0,0,29.67,3.61A135,135,0,0,0,116,183.47C115.85,169.07,105.25,161.89,102.48,156.68Z"/><path class="cls-5" d="M49.75,155.74c-2.35,2.69-.33,6.22,2.36,3.27S52.89,152.15,49.75,155.74Z"/><path class="cls-5" d="M53,164.09c1.24-1.91-.59-3.67-1.9-1.84C49.12,165,51.73,166,53,164.09Z"/><path class="cls-5" d="M45.74,162.89c-2.23,2.75-1,6.48,1.44,3.47S48,160.14,45.74,162.89Z"/><path class="cls-5" d="M38.69,161.65c.32,1.72,2.06,2.39,4.78.44,3.72-2.66,3.6-6.71,1.73-7.66A49.2,49.2,0,0,0,38.69,161.65Z"/><path class="cls-5" d="M117.86,170.09c-3.69.3-3.61-3.78-.77-3.26S119.92,169.91,117.86,170.09Z"/><path class="cls-5" d="M120.52,164.42c-2.15,0-1.69,2.49.57,2.36S122.66,164.42,120.52,164.42Z"/><path class="cls-5" d="M123,172.58c-3.88-1.83-2.06-6,1.28-3.84S126.51,174.24,123,172.58Z"/><path class="cls-6" d="M64.46,145.51A31,31,0,0,0,51.07,150c16.39,7.16,35.2,7.47,35.2,7.47s18.84-.31,35.24-7.49a31.11,31.11,0,0,0-13.36-4.5Z"/><path class="cls-7" d="M140.8,171.92a51.18,51.18,0,0,0-13.52-18.64,34.42,34.42,0,0,0-17-8.3,48.09,48.09,0,0,0-7.59-.27H72.86c-2.76,0-5.53-.09-8.28,0-5.6.19-11.29,2.69-15.82,5.84A50.76,50.76,0,0,0,32,171.33c-.09.2-.17.39-.25.59-.37.89,1.08,1.28,1.45.39-.11.26.08-.18.15-.33.2-.45.41-.88.62-1.32.74-1.5,1.56-3,2.43-4.38a51.09,51.09,0,0,1,9.93-11.94,32.66,32.66,0,0,1,17.12-8,54.14,54.14,0,0,1,6.86-.11h29c2.85,0,5.7-.06,8.55,0,5.23.12,10.58,2.5,14.84,5.39,7.25,4.93,12.92,12.44,16.54,20.38.06.14.26.6.15.33.36.88,1.81.5,1.44-.39Z"/><path class="cls-7" d="M73,47.2s-7.53-4.31-11.77-10.74c0,0,7.42-5.81,7.24-13.19S64.92,13.69,62.51,16s2.55,11.24-4.63,15.17c0,0-9.41-10.55-12.26-24.28C43.4-3.72,38.53-.47,38.91,5.82a32.24,32.24,0,0,0,5.65,16.35s-1,3.92-5.21-.63-5.47.16-2.32,4.4,7.65,5.65,11,3.61c0,0,9.34,15,18.86,19.37Z"/><g class="cls-8"><path class="cls-7" d="M46.08,26.32a9.28,9.28,0,0,1-2.41.14,6.14,6.14,0,0,1-2.31-.74,11.59,11.59,0,0,1-1.92-1.34A4.89,4.89,0,0,1,38,22.63a.19.19,0,0,0-.36.09,3.27,3.27,0,0,0,1.21,2.07,10.68,10.68,0,0,0,2.25,1.65,6.13,6.13,0,0,0,2.57.76,3.66,3.66,0,0,0,1.4-.15,2.45,2.45,0,0,0,1-.65,0,0,0,0,0,0-.08Z"/><path class="cls-7" d="M48.25,19.54a71.85,71.85,0,0,1-3.33-8.08C44,8.77,43.34,6,42.53,3.28c0-.11-.21-.09-.2,0,.12,5.79,2.62,11.56,5.8,16.3a.07.07,0,0,0,.12-.07Z"/><path class="cls-7" d="M54.81,34.43a43.52,43.52,0,0,1-7.24-10.66A57,57,0,0,1,42.2,10.83c0-.17-.29-.1-.26.07a48.86,48.86,0,0,0,5,13.22c2,3.88,4.21,7.71,7.66,10.49a.12.12,0,0,0,.17-.18Z"/><path class="cls-7" d="M60.13,31.92a13,13,0,0,0,3.48-11.1c0-.26-.46-.2-.46.07a21.77,21.77,0,0,1-.61,5.74,16.88,16.88,0,0,1-2.48,5.23s0,.1.07.06Z"/><path class="cls-7" d="M64.34,28.8a8.91,8.91,0,0,1,.59-1.35,9.5,9.5,0,0,0,.48-1.39,15.14,15.14,0,0,0,.41-2.6A11.66,11.66,0,0,0,65,18.1c-.11-.24-.47-.07-.41.17a21.19,21.19,0,0,1,.69,5.19A15.19,15.19,0,0,1,65,26.14c-.08.42-.16.84-.26,1.26a4.38,4.38,0,0,1-.48,1.37c0,.05.07.11.09,0Z"/><path class="cls-7" d="M60.89,39.23c-1.71-2-3.43-4.1-5-6.22s-2.92-4.27-4.29-6.5c-.11-.17-.42-.06-.35.15a24.91,24.91,0,0,0,4.08,6.65,78.14,78.14,0,0,0,5.51,6c.06.06.14,0,.09-.09Z"/></g><path class="cls-7" d="M99.59,47.2s7.54-4.31,11.78-10.74c0,0-7.42-5.81-7.24-13.19s3.53-9.58,5.93-7.23-2.54,11.24,4.64,15.17c0,0,9.4-10.55,12.26-24.28,2.21-10.65,7.08-7.4,6.7-1.11A32.14,32.14,0,0,1,128,22.17s1,3.92,5.21-.63,5.47.16,2.33,4.4-7.65,5.65-11,3.61c0,0-9.35,15-18.86,19.37Z"/><g class="cls-8"><path class="cls-7" d="M126.46,26.4a2.37,2.37,0,0,0,1,.63,3.67,3.67,0,0,0,1.39.17,6.18,6.18,0,0,0,2.65-.76,11.15,11.15,0,0,0,2.2-1.6,3.43,3.43,0,0,0,1.26-2.12.19.19,0,0,0-.36-.09,4.83,4.83,0,0,1-1.4,1.71,11.17,11.17,0,0,1-2,1.38,6.3,6.3,0,0,1-2.23.73,8.67,8.67,0,0,1-2.49-.13,0,0,0,0,0,0,.08Z"/><path class="cls-7" d="M124.45,19.61c3.18-4.74,5.68-10.51,5.8-16.3a.1.1,0,0,0-.2,0c-.82,2.72-1.45,5.49-2.39,8.18a73.77,73.77,0,0,1-3.33,8.08.07.07,0,0,0,.12.07Z"/><path class="cls-7" d="M117.94,34.61c3.45-2.78,5.65-6.61,7.66-10.49a48.86,48.86,0,0,0,5-13.22c0-.17-.22-.24-.26-.07A57,57,0,0,1,125,23.77a43.56,43.56,0,0,1-7.25,10.66c-.11.12.06.28.18.18Z"/><path class="cls-7" d="M112.52,31.86A16.66,16.66,0,0,1,110,26.63a21.77,21.77,0,0,1-.61-5.74c0-.26-.41-.33-.46-.07-.83,3.93.8,8.23,3.48,11.1,0,0,.1,0,.07-.06Z"/><path class="cls-7" d="M108.33,28.77a4.38,4.38,0,0,1-.48-1.37c-.1-.42-.18-.84-.27-1.26a16.17,16.17,0,0,1-.3-2.68,21.19,21.19,0,0,1,.69-5.19c.06-.23-.31-.42-.41-.17a11.42,11.42,0,0,0-.8,5.36,14.22,14.22,0,0,0,.41,2.6,9.5,9.5,0,0,0,.48,1.39,8.91,8.91,0,0,1,.59,1.35c0,.08.13,0,.09,0Z"/><path class="cls-7" d="M111.78,39.32c1.91-1.94,3.8-3.89,5.51-6a24.88,24.88,0,0,0,4.07-6.65c.08-.21-.23-.32-.34-.15-1.37,2.23-2.72,4.41-4.3,6.5s-3.33,4.17-5,6.22c0,.06,0,.15.09.09Z"/></g><path class="cls-4" d="M120.2,52.85c-18.45-13-49.37-13-67.82,0-27.51,19.37-30.21,57-22,73.37,12.29,24.56,55.93,25.28,55.93,25.28s43.64-.72,55.92-25.28C150.4,109.84,147.71,72.22,120.2,52.85Z"/><path class="cls-9" d="M142.21,119.67c-12.28,24.56-55.92,25.27-55.92,25.27s-43.64-.71-55.92-25.27c-2.22-4.43-3.63-10.43-4-17.19-.46,9.41,1.06,17.92,4,23.74,12.28,24.56,55.92,25.28,55.92,25.28s43.64-.72,55.92-25.28c2.91-5.82,4.44-14.33,4-23.74C145.84,109.24,144.43,115.24,142.21,119.67Z"/><path class="cls-3" d="M144.87,92C142,77.7,134.4,62.85,120.2,52.85c-18.45-13-49.37-13-67.82,0C38.18,62.85,30.6,77.7,27.71,92c3-7.5,10-18.58,25.14-19.81C76,70.33,83.32,105,83.67,111.24h5.24c.34-6.27,7.68-40.91,30.82-39C134.9,73.42,141.87,84.5,144.87,92Z"/><path class="cls-5" d="M88.82,46.46c-8.17-3.12-16,2.59-6.53,8.18C93.52,61.23,104,52.23,88.82,46.46Z"/><path class="cls-5" d="M72,50.58c-5.34-.45-6.79,5.7.7,5.45S75.82,50.89,72,50.58Z"/><path class="cls-5" d="M79.12,61.93c-4.31-1.19-2.09-4.88,1.08-3.55S82.35,62.82,79.12,61.93Z"/><path class="cls-5" d="M91.3,65.16c-4.83-.43-6.16-5.51,1.52-4.12S98.4,65.8,91.3,65.16Z"/><path class="cls-5" d="M102.6,55.51c-3.69-.76-4.51,2.2-.51,2.91C105.67,59.06,106,56.22,102.6,55.51Z"/><path class="cls-5" d="M103.62,53.08C97,51.33,98.8,46.24,105,48S110.46,54.9,103.62,53.08Z"/><path class="cls-7" d="M120.58,52.2c-13.08-9.13-30.45-11.47-45.94-8.87a55.8,55.8,0,0,0-22,8.4A58.65,58.65,0,0,0,36.77,67.87a68.85,68.85,0,0,0-11.21,39.07,50.32,50.32,0,0,0,2.75,16.37A32.82,32.82,0,0,0,38,137c9,7.66,20.91,11.44,32.37,13.53a81.71,81.71,0,0,0,16.28,1.76,103.24,103.24,0,0,0,23.19-3.45c11.43-3,23.37-8.18,30.5-18,6.68-9.24,7.5-21.92,6.23-32.88-1.65-14.15-7.46-27.91-17.36-38.26a59.82,59.82,0,0,0-8.63-7.42c-.79-.55-1.54.75-.76,1.3,12,8.5,20.08,21.39,23.63,35.57,2.76,11.05,3.33,23.76-.89,34.54-4.33,11-15.12,17.67-25.82,21.5a102.67,102.67,0,0,1-27.49,5.49,61.51,61.51,0,0,1-11.34-.5c-10.63-1.25-21.47-3.8-30.95-8.9A39.29,39.29,0,0,1,33.54,130a34.09,34.09,0,0,1-5.68-14.32c-2.17-12.4-.15-25.76,4.86-37.25,5.94-13.6,16.73-25.25,30.77-30.56a65.58,65.58,0,0,1,46.58.38,48,48,0,0,1,9.75,5.25C120.62,54.05,121.37,52.75,120.58,52.2Z"/><path class="cls-10" d="M57.24,91.59c-11.7-.29-13.92,13.77-9.92,20.14,2,3.18,4.49,5.39,9.92,5.39,5.24,0,7.92-2.21,9.92-5.39C71.15,105.36,68.93,91.3,57.24,91.59Z"/><path class="cls-7" d="M69.17,100.16a12.61,12.61,0,0,0-5.62-7.83,13.7,13.7,0,0,0-10.19-1c-5.54,1.58-8.39,7.13-8.61,12.58a14.68,14.68,0,0,0,1.92,8.21c.5.83,1.8.07,1.29-.75-2.33-3.81-2.26-9.19-.36-13.16a10.06,10.06,0,0,1,4.87-5,12.47,12.47,0,0,1,8.9-.26c3.36,1.22,5.45,4.26,6.36,7.6a.75.75,0,0,0,1.44-.4Z"/><ellipse class="cls-7" cx="60.28" cy="104.77" rx="7.4" ry="9.15"/><path class="cls-10" d="M115.34,91.59c11.7-.29,13.92,13.77,9.92,20.14-2,3.18-4.5,5.39-9.92,5.39-5.24,0-7.92-2.21-9.92-5.39C101.43,105.36,103.65,91.3,115.34,91.59Z"/><path class="cls-7" d="M104.85,100.56A11,11,0,0,1,110,93.49a12.3,12.3,0,0,1,9.23-.6c4.74,1.57,7,6.62,7.09,11.31a13.13,13.13,0,0,1-1.73,7.15c-.5.82.79,1.58,1.3.75,2.69-4.38,2.51-10.55.18-15a11.39,11.39,0,0,0-5.81-5.39,13.94,13.94,0,0,0-10.11.1,12.31,12.31,0,0,0-6.77,8.39.75.75,0,0,0,1.45.4Z"/><ellipse class="cls-7" cx="112.3" cy="104.77" rx="7.4" ry="9.15"/><path class="cls-11" d="M45.68,125.51c-11.28-2.59-7.67-10.3,0-8.46C56.29,119.58,54.9,127.62,45.68,125.51Z"/><path class="cls-11" d="M126.9,125.51c11.27-2.59,7.67-10.3,0-8.46C116.28,119.58,117.67,127.62,126.9,125.51Z"/><path class="cls-7" d="M52.09,90.18a10.39,10.39,0,0,1,7.83-.32c2.24.81,3.48-1,1.84-2.28-1.89-1.48-6.64-2.34-10-.71S48.71,89.61,49,90.25,50.23,91,52.09,90.18Z"/><path class="cls-7" d="M120.48,90.18a10.36,10.36,0,0,0-7.82-.32c-2.24.81-3.49-1-1.84-2.28,1.89-1.48,6.64-2.34,10-.71s3.09,2.74,2.83,3.38S122.35,91,120.48,90.18Z"/><path class="cls-7" d="M85.54,113.92v11.43a.75.75,0,0,0,1.5,0V113.92a.75.75,0,0,0-1.5,0Z"/><path class="cls-7" d="M72,121a8.63,8.63,0,0,1,1.34.18c.13,0,.05-.15.07.06s.07.34.1.5a14.48,14.48,0,0,0,.85,3.16,6.58,6.58,0,0,0,8.1,3.9,9.3,9.3,0,0,0,4.35-2.88c.62-.74-.44-1.8-1.06-1.06-2,2.35-5.79,3.9-8.44,1.69a6.44,6.44,0,0,1-1.91-3.17c-.25-.83-.32-1.7-.54-2.54-.33-1.2-1.8-1.36-2.86-1.34a.75.75,0,0,0,0,1.5Z"/><path class="cls-7" d="M100.57,119.46c-1,0-2.43.11-2.81,1.18-.26.72-.29,1.53-.48,2.27a7.19,7.19,0,0,1-1.63,3.23,5,5,0,0,1-4.56,1.32,7.76,7.76,0,0,1-4.27-2.64c-.62-.74-1.68.32-1.06,1.06,2.18,2.6,6,4.06,9.18,2.58,2.54-1.16,3.6-3.88,4.07-6.46,0-.2.07-.4.1-.6a1.74,1.74,0,0,0,0-.22c0-.18.07-.05,0,0a3,3,0,0,1,1.43-.22c1,0,1-1.47,0-1.5Z"/><path class="cls-7" d="M91.23,107.69c-1.7-1.23-8.55-1.23-10.25,0-1.42,1-2.52,3.13-.94,5.93s10.56,2.8,12.13,0S92.65,108.72,91.23,107.69Z"/><g class="cls-12"><path class="cls-10" d="M81.05,111.54c-.21-2.07,2-2.86,3.71-3a11,11,0,0,1,2.86.14c1,.17,1.84.58,2.78.77.25,0,.53-.28.28-.48a6.88,6.88,0,0,0-3.18-1.13,11.11,11.11,0,0,0-3.5,0,4.6,4.6,0,0,0-2.75,1.25,2.37,2.37,0,0,0-.51,2.54.17.17,0,0,0,.31-.09Z"/></g><path class="cls-3" d="M56.67,53.2s-8.07,4-16.18-6.52S23.88,26.11,16.76,27.09,10.23,73.57,40.69,66.65Z"/><path class="cls-4" d="M48,58.94s-5.89,2.8-14-7.41c-6.33-7.91-5.28-12.84-14.44-18.3,0,0-4.9,13.1,4.15,23.93,9.26,11.07,20.54,6.52,20.54,6.52"/><path class="cls-7" d="M47.63,58.29c.24-.11-.3.09-.47.13a6.09,6.09,0,0,1-1.65.11,11.71,11.71,0,0,1-6.18-2.65,31.49,31.49,0,0,1-7.58-8.83c-1.44-2.38-2.57-4.93-4.08-7.26a23.39,23.39,0,0,0-7.76-7.21.75.75,0,0,0-1.1.45A26.16,26.16,0,0,0,19,50.43c3,8.19,10.59,14.91,19.57,14.93a16.23,16.23,0,0,0,5.9-1c.88-.36.5-1.81-.4-1.45-4.37,1.74-9.8,1-13.82-1.26-7.95-4.41-11.89-13.54-11.14-22.37a22.41,22.41,0,0,1,1.19-5.9l-1.1.44a21.78,21.78,0,0,1,7.44,7c1.62,2.57,2.84,5.36,4.5,7.92,3.12,4.82,8,10.66,14.18,11.19a6.26,6.26,0,0,0,3.12-.42c.87-.41.11-1.71-.76-1.3Z"/><path class="cls-5" d="M33.11,44.19c-2.63-1.4-1.5-4,.5-2.43S35.39,45.4,33.11,44.19Z"/><path class="cls-5" d="M46.07,51.89a21.62,21.62,0,0,1-5.58-5.21c-.3-.4-.61-.79-.91-1.18-3.1-.28-6.72,1.14-3.54,5C39.07,54.26,44.3,54.11,46.07,51.89Z"/><path class="cls-7" d="M54.14,53.11c-4.89.54-9.14-2.28-12.21-5.86C37.33,41.9,33.38,36.07,28,31.38a23.87,23.87,0,0,0-6.43-4.27,8.52,8.52,0,0,0-5.37-.66c-1.44.44-2.22,2-2.72,3.31C11.74,34.43,12,40,12.78,44.87c.93,6.05,3.12,12.21,7.26,16.82,5.38,6,13.22,7.38,20.85,5.68.94-.21.54-1.65-.4-1.44-6.52,1.45-13.32.58-18.3-4.18-4.25-4.07-6.54-9.84-7.66-15.52-.93-4.78-1.27-10.11.05-14.86.33-1.19.9-2.83,1.87-3.38s2.82-.11,3.92.25A20.16,20.16,0,0,1,27,32.44a72.64,72.64,0,0,1,7.54,8c2.45,2.93,4.61,6.16,7.25,8.92,3.21,3.36,7.6,5.82,12.37,5.3,1-.11,1-1.61,0-1.5Z"/><path class="cls-3" d="M115.9,53.2s8.07,3.95,16.18-6.53S148.7,26.1,155.82,27.09s6.52,46.48-23.93,39.56Z"/><path class="cls-5" d="M155.26,34.52c-5.08,2.72-1.61,9.41,1,6.51S158.49,32.8,155.26,34.52Z"/><path class="cls-5" d="M143.7,47.64c3.48,0,8.5-3.23,1.74-5.16S137.64,47.74,143.7,47.64Z"/><path class="cls-5" d="M155.17,27c-4.18-.19-8.79,3.23-13.51,8.18.53,3.66,3.65,6.26,8.42,2.83C153.86,35.32,155.69,30.3,155.17,27Z"/><path class="cls-4" d="M124.57,58.93s5.88,2.81,14-7.4c6.33-7.92,5.28-12.84,14.44-18.31,0,0,4.9,13.11-4.16,23.93-9.25,11.08-20.53,6.53-20.53,6.53"/><path class="cls-7" d="M124.19,59.58c2.73,1.28,6.26-.08,8.59-1.56a29.06,29.06,0,0,0,7.9-8c1.82-2.6,3.16-5.45,4.74-8.18a22,22,0,0,1,8-8l-1.11-.45a24.93,24.93,0,0,1,.16,15.74c-2.59,8.08-10,14.84-18.77,14.69a14.81,14.81,0,0,1-5.15-.89c-.9-.36-1.29,1.09-.4,1.44,4.78,1.91,10.76,1,15.12-1.49,8.16-4.62,12.41-14,11.77-23.18A24,24,0,0,0,153.77,33a.77.77,0,0,0-1.1-.45,23.77,23.77,0,0,0-7.13,6.3,74.63,74.63,0,0,0-4.06,7.06,35,35,0,0,1-7.09,9,13.47,13.47,0,0,1-6.7,3.53,6.43,6.43,0,0,1-2.1,0c-.19,0-.38-.09-.57-.14s-.17-.07-.07,0c-.87-.41-1.64.88-.76,1.29Z"/><path class="cls-7" d="M118.44,54.6A14.28,14.28,0,0,0,129,51c2.6-2.16,4.51-5,6.6-7.62s4.31-5.28,6.67-7.74A37,37,0,0,1,149,29.86a10.65,10.65,0,0,1,6.32-2.07c1.22.09,1.82,1.08,2.32,2.37,1.67,4.3,1.43,9.54.78,14-.82,5.69-2.76,11.56-6.53,16-5,5.91-12.41,7.38-19.78,5.74-.94-.21-1.34,1.24-.39,1.45,6.84,1.53,14,.66,19.33-4.16,4.6-4.15,7.16-10.23,8.39-16.2,1.06-5.13,1.45-10.86.06-16-.41-1.48-1-3.26-2.35-4.18a4.32,4.32,0,0,0-2.91-.55A13.85,13.85,0,0,0,147.63,29c-6.18,4.23-10.93,10.56-15.48,16.42-3.36,4.33-7.83,8.38-13.71,7.73-1-.1-1,1.4,0,1.5Z"/></g></g></g></svg>