<svg xmlns="http://www.w3.org/2000/svg" viewBox="0 0 176.01 168.55"><defs><style>.cls-1{isolation:isolate;}.cls-2{fill:#c2f0c8;}.cls-3{fill:#3f3c6b;}.cls-4{fill:#232345;}.cls-5{fill:#eaebff;}.cls-6{fill:#fff;}.cls-7,.cls-8,.cls-9{fill:#4b496b;}.cls-7{opacity:0.3;}.cls-7,.cls-9{mix-blend-mode:multiply;}.cls-9{opacity:0.2;}.cls-10{fill:#ffb6c3;}.cls-11{fill:#6d6a9c;}.cls-12{opacity:0.8;mix-blend-mode:overlay;}</style></defs><g class="cls-1"><g id="Layer_2" data-name="Layer 2"><g id="OBJECTS"><path class="cls-2" d="M62.49,3.71C38.17,9.81,17.86,28,9.1,43.09S24.59,54.79,22,65.93s-20,37.27,3.55,70.9,90.35,42.38,129.79-3.69C207.49,72.19,155.31-19.59,62.49,3.71Z"/><path class="cls-2" d="M.33,64.15C-2.59,74.62,14.59,75.1,18.4,67.26S3.66,52.27.33,64.15Z"/><path class="cls-2" d="M6.66,76.46c-6.11,5.34.09,12.68,6.17,5.88S12.78,71.13,6.66,76.46Z"/><path class="cls-3" d="M109.44,127H65.75c-21.84,2-32,26.65-32,26.65,17.13,15.23,53.8,14.91,53.8,14.91s36.68.32,53.81-14.91C141.4,153.64,131.28,129,109.44,127Z"/><path class="cls-4" d="M50,136.72a13.11,13.11,0,0,0-4.73,4.57c-.25.43.37.77.65.38a21,21,0,0,1,4.36-4.47c.27-.21,0-.66-.28-.48Z"/><path class="cls-4" d="M48.68,140.38a10,10,0,0,0-3.63,4.83c-.14.43.54.73.74.31A14.86,14.86,0,0,1,47.21,143,12.22,12.22,0,0,1,49.14,141c.32-.27-.11-.85-.46-.59Z"/><path class="cls-4" d="M52.31,139.09a15,15,0,0,0-3.49,4.66.33.33,0,0,0,.56.33,30.61,30.61,0,0,1,3.44-4.48.36.36,0,0,0-.51-.51Z"/><path class="cls-4" d="M63.45,155.13a18.19,18.19,0,0,0-2.17,2.62,8.25,8.25,0,0,0-1.43,3,.24.24,0,0,0,.44.19c.64-.88,1.11-1.86,1.71-2.76a16.37,16.37,0,0,1,2-2.5.42.42,0,0,0-.59-.59Z"/><path class="cls-4" d="M59.76,157A30.24,30.24,0,0,0,57,161.56a.35.35,0,0,0,.61.36c1-1.51,1.83-3,2.85-4.52a.4.4,0,0,0-.7-.4Z"/><path class="cls-4" d="M112.26,143.14a14.21,14.21,0,0,1,1.85,2.24,19.47,19.47,0,0,1,1.36,2.6c.22.48,1,.14.84-.35a11.76,11.76,0,0,0-3.51-5c-.37-.32-.9.19-.54.54Z"/><path class="cls-4" d="M115.68,144.11a32.31,32.31,0,0,1,2.36,4.42.49.49,0,1,0,.84-.49,31.7,31.7,0,0,0-2.5-4.34c-.29-.42-1,0-.7.41Z"/><path class="cls-4" d="M116.26,141.06a17.83,17.83,0,0,1,2.86,3.61.47.47,0,0,0,.81-.47,15.6,15.6,0,0,0-3.09-3.73c-.39-.35-1,.22-.58.59Z"/><path class="cls-4" d="M134.31,147.31a36.5,36.5,0,0,1,3.22,5.19c.29.55,1.09.07.82-.48a27.84,27.84,0,0,0-3.41-5.19c-.29-.34-.9.12-.63.48Z"/><path class="cls-4" d="M134.31,150.81a22.76,22.76,0,0,1,1.32,2c.4.7.74,1.44,1.16,2.13a.48.48,0,0,0,.88-.37,10.4,10.4,0,0,0-1.21-2.25,24.94,24.94,0,0,0-1.52-2c-.29-.35-.91.12-.63.49Z"/><path class="cls-5" d="M106.24,152.63s9.45,1.42,7.4-3.53-7.4-8.84-7.4-8.84,8.51,1.78,2.86-5c-2.27-2.75-6.18-5.41-10-7.62H76.14c-3.87,2.21-7.78,4.87-10,7.62-5.66,6.83,2.86,5,2.86,5s-5.34,3.9-7.4,8.84,7.4,3.53,7.4,3.53-6,5.73-8.15,13a136.42,136.42,0,0,0,26.79,2.93,136.42,136.42,0,0,0,26.79-2.93C112.26,158.36,106.24,152.63,106.24,152.63Z"/><path class="cls-6" d="M101.09,150.79a40.12,40.12,0,0,1,2.39,3.41,33.22,33.22,0,0,0,2.15,3.53c.26.33.72,0,.65-.38a9.93,9.93,0,0,0-2-3.74A18.35,18.35,0,0,0,103,152c-.5-.53-1-1-1.58-1.51a.23.23,0,0,0-.32.32Z"/><path class="cls-6" d="M101.58,154.71a18,18,0,0,1,1.43,2.67c.39.93.64,1.91,1.06,2.82.19.4.82.19.82-.22a6.72,6.72,0,0,0-1-3.06,10.69,10.69,0,0,0-1.94-2.5c-.18-.18-.52.06-.37.29Z"/><path class="cls-6" d="M97.92,152.34c.55.79,1.08,1.6,1.57,2.42s.93,1.72,1.44,2.54a.5.5,0,0,0,.91-.38,8.72,8.72,0,0,0-1.43-2.69,13.32,13.32,0,0,0-1-1.16,9.31,9.31,0,0,0-1.15-1c-.2-.16-.57,0-.39.3Z"/><path class="cls-6" d="M73.83,138.89a6.66,6.66,0,0,0-2.81,1.8,14.54,14.54,0,0,0-1.14,1.21,4.56,4.56,0,0,0-1,1.49.38.38,0,0,0,.63.37,7.92,7.92,0,0,0,1-1.24c.32-.41.67-.8,1-1.18s.73-.71,1.11-1.05a4.27,4.27,0,0,1,1.3-.88c.32-.12.21-.62-.14-.52Z"/><path class="cls-6" d="M72.87,141.25a12.1,12.1,0,0,0-2.4,2.34,15.54,15.54,0,0,0-1,1.38c-.15.25-.28.5-.41.76a2.08,2.08,0,0,0-.2.85.31.31,0,0,0,.52.21,5.23,5.23,0,0,0,.85-1.32,13.79,13.79,0,0,1,.85-1.38,18.48,18.48,0,0,1,2-2.45c.2-.19-.07-.57-.3-.39Z"/><path class="cls-6" d="M75.74,140.19a9.74,9.74,0,0,0-2.22,2.08A7.34,7.34,0,0,0,72,144.94c-.12.42.41.57.64.27a6.22,6.22,0,0,0,.43-.58c.14-.2.26-.41.39-.61.26-.41.52-.81.81-1.19a27.47,27.47,0,0,1,1.91-2.12c.26-.26-.07-.74-.41-.52Z"/><path class="cls-6" d="M79.54,155.89a17.92,17.92,0,0,0-.83,3c-.09.5-.18,1-.25,1.5a3.54,3.54,0,0,0,0,1.52.28.28,0,0,0,.5.06,4.37,4.37,0,0,0,.33-1.47c.06-.49.12-1,.2-1.45.17-1,.38-2,.59-3a.3.3,0,0,0-.57-.16Z"/><path class="cls-6" d="M80.56,158.35a16.3,16.3,0,0,0-.41,3.19,9.31,9.31,0,0,0,.28,3.2.43.43,0,0,0,.84-.11c.07-1-.08-2.06-.09-3.09s0-2.06.11-3.09a.37.37,0,0,0-.73-.1Z"/><path class="cls-6" d="M82.62,156.07a12.21,12.21,0,0,0-.18,3c0,.5.07,1,.13,1.5a5.52,5.52,0,0,0,.12.8,3.15,3.15,0,0,0,.3.71c.18.35.65.14.68-.19a3.29,3.29,0,0,0,0-.77c0-.23-.08-.46-.12-.69-.09-.49-.16-1-.22-1.48-.11-1-.26-1.93-.41-2.9,0-.16-.31-.16-.33,0Z"/><path class="cls-7" d="M114.31,136.19c2.21,3.52,7.65-1.6,7.65-1.6,1.06,1.74,3,1,4.76-.38A32.24,32.24,0,0,0,109.44,127H65.75a32.3,32.3,0,0,0-17.31,7.25c1.76,1.33,3.66,2.08,4.72.35,0,0,5.44,5.12,7.64,1.6,0,0,9.35,4.57,26.76,4.78C105,140.76,114.31,136.19,114.31,136.19Z"/><path class="cls-4" d="M142.09,153.39a51.3,51.3,0,0,0-13.52-18.64,34.35,34.35,0,0,0-17-8.29,47.92,47.92,0,0,0-7.58-.27H74.14c-2.75,0-5.52-.1-8.27,0-5.6.18-11.29,2.68-15.82,5.83a50.56,50.56,0,0,0-16.77,20.79c-.09.19-.17.38-.25.58-.37.89,1.08,1.28,1.44.4-.1.25.08-.18.15-.34q.3-.66.63-1.32,1.11-2.24,2.43-4.37a50.9,50.9,0,0,1,9.93-11.95,32.74,32.74,0,0,1,17.12-8,54.11,54.11,0,0,1,6.86-.1h29c2.84,0,5.7-.07,8.54,0,5.23.11,10.59,2.49,14.85,5.38,7.25,4.93,12.92,12.44,16.53,20.38.07.15.26.61.15.34.37.88,1.82.49,1.45-.4Z"/><path class="cls-8" d="M121.47,34.33c-18.45-13-49.37-13-67.82,0-27.51,19.36-30.21,57-22,73.36C43.92,132.26,87.56,133,87.56,133s43.64-.71,55.92-25.28C151.67,91.31,149,53.69,121.47,34.33Z"/><path class="cls-5" d="M147.55,90c-5.6-7-14.69-7.73-30.67,3.19-12,8.21-29.32,5-29.32,5s-17.3,3.17-29.32-5C42.26,82.28,33.17,83.05,27.57,90s-5.8,14.76-1.38,12c0,0-2.64,10.49,3.67,8.44,0,0,2.79,11.42,7.33,7.62,0,0,4.92,9.47,7.25,5.2,0,0,6.4,8.13,8.72,4.34,0,0,5.44,5.12,7.64,1.6,0,0,9.35,4.57,26.76,4.78,17.41-.21,26.75-4.78,26.75-4.78,2.21,3.52,7.65-1.6,7.65-1.6,2.32,3.79,8.72-4.34,8.72-4.34,2.32,4.27,7.24-5.2,7.24-5.2,4.55,3.8,7.34-7.62,7.34-7.62,6.31,2,3.67-8.44,3.67-8.44C153.35,104.77,153.15,97,147.55,90Z"/><path class="cls-6" d="M33.7,88.41a16.9,16.9,0,0,0-5.32,4,11.06,11.06,0,0,0-1.67,2.7,5.84,5.84,0,0,0-.65,3.14c.07.4.62.32.74,0a13.45,13.45,0,0,0,.31-1.4,9.66,9.66,0,0,1,.5-1.49,12.1,12.1,0,0,1,1.59-2.59,21.66,21.66,0,0,1,4.65-4.1.15.15,0,0,0-.15-.27Z"/><path class="cls-6" d="M32.47,92.86a15.79,15.79,0,0,0-3.75,6.48,16.5,16.5,0,0,0-.64,3.68,13.67,13.67,0,0,0,0,1.92,3.29,3.29,0,0,0,.37,1.76.35.35,0,0,0,.63-.08,4.37,4.37,0,0,0,0-1.57c0-.6-.05-1.21,0-1.81a15.43,15.43,0,0,1,.55-3.57,16.64,16.64,0,0,1,3.33-6.4c.24-.28-.15-.68-.41-.41Z"/><path class="cls-6" d="M33.09,98.23a19,19,0,0,0-1.31,8.88,21.18,21.18,0,0,0,.84,4.25,9.29,9.29,0,0,0,1.93,4,.39.39,0,0,0,.65-.38c-.3-1.34-1.06-2.57-1.47-3.89a20.23,20.23,0,0,1-.84-4.22,22.66,22.66,0,0,1,.83-8.43c.13-.41-.48-.55-.63-.17Z"/><path class="cls-6" d="M36.88,107a18,18,0,0,0,1.52,6.9,24.32,24.32,0,0,0,3.44,6.21.34.34,0,0,0,.56-.33c-.78-2.11-2.09-4-3-6A21,21,0,0,1,37.47,107c0-.37-.6-.39-.59,0Z"/><path class="cls-6" d="M42.39,112.87a24.31,24.31,0,0,0,3.19,6.92,31.85,31.85,0,0,0,2.22,3,10.83,10.83,0,0,0,2.84,2.6c.26.15.62-.16.43-.43a29.65,29.65,0,0,0-2.31-2.7,28.34,28.34,0,0,1-2.26-3,38.19,38.19,0,0,1-3.45-6.58c-.16-.39-.79-.25-.66.19Z"/><path class="cls-6" d="M141.26,88.68a21.47,21.47,0,0,1,4.66,4.1,11.86,11.86,0,0,1,1.55,2.52,8.37,8.37,0,0,1,.52,1.48,14.43,14.43,0,0,0,.33,1.48c.12.32.66.4.74,0a5.71,5.71,0,0,0-.63-3.08,11,11,0,0,0-1.7-2.76,16.86,16.86,0,0,0-5.31-4,.16.16,0,0,0-.16.27Z"/><path class="cls-6" d="M142.24,93.27a16.91,16.91,0,0,1,3.33,6.4,16,16,0,0,1,.52,5.27,4.75,4.75,0,0,0,0,1.68.35.35,0,0,0,.63.08,3.2,3.2,0,0,0,.36-1.65,17.57,17.57,0,0,0,0-1.92,16.8,16.8,0,0,0-.65-3.79,15.9,15.9,0,0,0-3.75-6.48c-.26-.27-.65.13-.41.41Z"/><path class="cls-6" d="M141.4,98.4a22.87,22.87,0,0,1,.83,8.43,20.9,20.9,0,0,1-.84,4.22c-.42,1.32-1.18,2.55-1.47,3.89a.39.39,0,0,0,.65.38,9.07,9.07,0,0,0,1.89-3.83,21,21,0,0,0,.87-4.38,19,19,0,0,0-1.3-8.88c-.16-.38-.76-.24-.63.17Z"/><path class="cls-6" d="M137.65,107a21,21,0,0,1-1.91,6.74c-.93,2-2.24,3.93-3,6a.34.34,0,0,0,.56.33,24.35,24.35,0,0,0,3.45-6.21,18.22,18.22,0,0,0,1.52-6.9c0-.39-.56-.37-.59,0Z"/><path class="cls-6" d="M132.07,112.68a38.9,38.9,0,0,1-3.45,6.58,29.25,29.25,0,0,1-2.19,2.89,35,35,0,0,0-2.39,2.78c-.19.27.18.58.44.43a10.59,10.59,0,0,0,2.77-2.53,29.47,29.47,0,0,0,2.29-3,24.58,24.58,0,0,0,3.19-6.92c.12-.44-.5-.58-.66-.19Z"/><path class="cls-9" d="M149.43,92.7c1.42,4.11.56,7-2.32,5.14,0,0,2.56,10.18-3.57,8.19,0,0-2.7,11.08-7.11,7.39,0,0-4.78,9.19-7,5,0,0-6.22,7.9-8.47,4.22,0,0-5.28,5-7.41,1.55,0,0-9.07,4.44-26,4.64-16.89-.2-26-4.64-26-4.64-2.14,3.42-7.42-1.55-7.42-1.55-2.25,3.68-8.46-4.22-8.46-4.22-2.25,4.15-7-5-7-5-4.41,3.69-7.11-7.39-7.11-7.39C25.45,108,28,97.84,28,97.84c-2.89,1.82-3.74-1-2.32-5.15-3.69,6.1-3.35,11.72.5,9.3,0,0-2.64,10.49,3.67,8.44,0,0,2.79,11.42,7.33,7.62,0,0,4.92,9.47,7.25,5.2,0,0,6.4,8.13,8.72,4.34,0,0,5.44,5.12,7.64,1.6,0,0,9.35,4.57,26.76,4.78,17.41-.21,26.75-4.78,26.75-4.78,2.21,3.52,7.65-1.6,7.65-1.6,2.32,3.79,8.72-4.34,8.72-4.34,2.32,4.27,7.24-5.2,7.24-5.2,4.55,3.8,7.34-7.62,7.34-7.62,6.31,2,3.67-8.44,3.67-8.44C152.78,104.41,153.12,98.79,149.43,92.7Z"/><path class="cls-4" d="M147,90.54a19.25,19.25,0,0,1,4.12,8.37,4,4,0,0,1-.1,2.57c-.43.65-1.21.17-1.73-.14a.75.75,0,0,0-1.1.84,17.17,17.17,0,0,1,.52,4.22,5.36,5.36,0,0,1-.56,2.76c-.62,1-1.72.85-2.71.55a.78.78,0,0,0-.93.52c-.52,2.13-2.82,9.88-6.08,7.29a.75.75,0,0,0-1.17.15c-.69,1.3-4.38,7.89-5.95,5.2a.76.76,0,0,0-1.18-.16c-1.06,1.35-5.84,7.08-7.55,4.5a.77.77,0,0,0-1.18-.15c-1.38,1.29-4.9,4-6.46,1.75a.76.76,0,0,0-1-.27c-4.87,2.36-11,3.39-16.37,4a79.79,79.79,0,0,1-31.14-2.19,33.55,33.55,0,0,1-5.25-1.85.77.77,0,0,0-1,.27c-1.55,2.29-5.07-.46-6.46-1.75a.77.77,0,0,0-1.18.15c-1.7,2.58-6.48-3.15-7.54-4.5a.76.76,0,0,0-1.18.16c-1.57,2.69-5.26-3.89-5.95-5.2a.76.76,0,0,0-1.18-.15c-3.26,2.59-5.55-5.16-6.08-7.29a.76.76,0,0,0-.92-.52c-.95.29-2,.45-2.67-.48a5.24,5.24,0,0,1-.6-2.83,17.17,17.17,0,0,1,.52-4.22.75.75,0,0,0-1.1-.84c-1.22.73-1.9.51-2-1a11.91,11.91,0,0,1,1.41-5.31,23,23,0,0,1,1.87-3.23c.4-.57,1.08-1.15,1.19-1.84a4.1,4.1,0,0,0,0-.5,61.19,61.19,0,0,1,.34-8.35c1.19-11.67,5-23.23,11.87-32.81,10.61-14.84,28.81-24.26,47.1-24,15.73.25,31.27,7.5,42.37,18.53S145.75,70.61,146.67,86c.08,1.35.13,2.7.13,4.05a.75.75,0,0,0,1.5,0,85.35,85.35,0,0,0-2.86-21.27C143.23,60.22,139.68,51.83,134,45a62.41,62.41,0,0,0-16.9-13.72,63.11,63.11,0,0,0-24.7-8.14c-19-2-38.74,6.56-50.81,21.33C33.41,54.48,28.84,67,27.31,79.68a63.83,63.83,0,0,0-.52,9.57,3.41,3.41,0,0,1,0,.71c.06-.26-.6.58-.72.76a23.18,23.18,0,0,0-2.05,3.41c-1,2-3.17,7.06-.62,8.83,1,.69,2.2.23,3.14-.33l-1.11-.84c-.9,3.64-1.29,11.15,4.6,9.37l-.92-.53c.85,3.45,3.82,11.74,8.58,8l-1.17-.16c1.2,2.3,5.81,9.89,8.53,5.2l-1.17.16c1.79,2.26,7.18,8.3,9.9,4.19l-1.18.15c2.21,2.06,6.53,4.81,8.82,1.45l-1,.26c5.12,2.49,11.16,3.51,16.74,4.2a80.75,80.75,0,0,0,32-2.23,33.58,33.58,0,0,0,5.49-2l-1-.26c2.29,3.36,6.61.61,8.82-1.45l-1.18-.15c2.72,4.11,8.11-1.93,9.9-4.19l-1.18-.16c2.73,4.69,7.34-2.9,8.54-5.2l-1.18.16c4.76,3.79,7.74-4.5,8.59-8l-.92.53c5.89,1.78,5.5-5.73,4.59-9.37l-1.1.84a3,3,0,0,0,3,.41,3.15,3.15,0,0,0,1.2-2.78c0-3.91-2.36-7.83-4.69-10.78C147.48,88.72,146.43,89.79,147,90.54Z"/><path class="cls-6" d="M58.51,73.06c-11.7-.29-13.92,13.77-9.92,20.14,2,3.18,4.49,5.39,9.92,5.39,5.24,0,7.92-2.21,9.91-5.39C72.42,86.83,70.2,72.77,58.51,73.06Z"/><path class="cls-4" d="M70.44,81.63a12.67,12.67,0,0,0-5.62-7.83,13.75,13.75,0,0,0-10.19-1c-5.54,1.58-8.39,7.13-8.61,12.58a14.73,14.73,0,0,0,1.92,8.22c.5.82,1.8.07,1.29-.76C46.9,89,47,83.63,48.87,79.66a10.1,10.1,0,0,1,4.87-5,12.47,12.47,0,0,1,8.9-.25C66,75.65,68.09,78.69,69,82a.75.75,0,0,0,1.44-.4Z"/><ellipse class="cls-4" cx="61.55" cy="86.25" rx="7.4" ry="9.15"/><path class="cls-6" d="M116.61,73.06c11.7-.29,13.92,13.77,9.92,20.14-2,3.18-4.5,5.39-9.92,5.39-5.24,0-7.92-2.21-9.92-5.39C102.7,86.83,104.92,72.77,116.61,73.06Z"/><path class="cls-4" d="M106.12,82A11,11,0,0,1,111.29,75a12.25,12.25,0,0,1,9.23-.61c4.74,1.57,7,6.63,7.09,11.31a13.11,13.11,0,0,1-1.73,7.15.75.75,0,0,0,1.3.76c2.69-4.38,2.51-10.56.18-15a11.43,11.43,0,0,0-5.81-5.39,13.94,13.94,0,0,0-10.11.1,12.31,12.31,0,0,0-6.77,8.39.75.75,0,0,0,1.45.4Z"/><ellipse class="cls-4" cx="113.57" cy="86.25" rx="7.4" ry="9.15"/><path class="cls-10" d="M47,107c-11.28-2.58-7.67-10.29,0-8.46C57.56,101.06,56.17,109.1,47,107Z"/><path class="cls-10" d="M128.17,107c11.27-2.58,7.67-10.29,0-8.46C117.55,101.06,118.94,109.1,128.17,107Z"/><path class="cls-4" d="M53.36,71.65a10.48,10.48,0,0,1,7.83-.32c2.24.81,3.48-1,1.84-2.27-1.89-1.48-6.64-2.35-10-.71S50,71.09,50.24,71.72,51.5,72.45,53.36,71.65Z"/><path class="cls-4" d="M121.75,71.65a10.45,10.45,0,0,0-7.82-.32c-2.24.81-3.49-1-1.84-2.27,1.89-1.48,6.64-2.35,10-.71s3.09,2.74,2.83,3.37S123.62,72.45,121.75,71.65Z"/><path class="cls-11" d="M87.56,94.15c-9.3,0-22.08,16.4-18.84,25.18s18.84,7.25,18.84,7.25,15.59,1.52,18.84-7.25S96.86,94.15,87.56,94.15Z"/><path class="cls-4" d="M86.81,102.38v11.89a.75.75,0,0,0,1.5,0V102.38a.75.75,0,0,0-1.5,0Z"/><path class="cls-4" d="M73.55,110.39l2.79.93-.55-.72A6.09,6.09,0,0,0,79.48,116c2.68,1.13,6,.31,8.46-1.1a.75.75,0,0,0-.76-1.3c-2,1.15-4.71,1.92-6.93,1.1a4.45,4.45,0,0,1-2.6-2.52,4.4,4.4,0,0,1-.36-1.6.75.75,0,0,0-.55-.72l-2.8-.94c-.91-.3-1.31,1.14-.39,1.45Z"/><path class="cls-4" d="M101.17,108.94l-2.8.94a.78.78,0,0,0-.55.72,4.37,4.37,0,0,1-.35,1.6,4.48,4.48,0,0,1-2.6,2.52c-2.22.82-5,0-6.93-1.1a.75.75,0,0,0-.76,1.3c2.44,1.41,5.77,2.23,8.46,1.1a6.08,6.08,0,0,0,3.68-5.42l-.55.72,2.8-.93c.91-.31.52-1.76-.4-1.45Z"/><path class="cls-4" d="M87.56,88.87c-5.86,0-13.41,9.55,0,16.18C101,98.42,93.41,88.87,87.56,88.87Z"/><g class="cls-12"><path class="cls-6" d="M81.87,96.29a8.28,8.28,0,0,1,2-3.31,4.71,4.71,0,0,1,3.7-1.45,6.5,6.5,0,0,1,3.62,1.12A5.14,5.14,0,0,1,93,96a.28.28,0,0,0,.53,0C94,94.6,93.05,93,92,92.15a7.21,7.21,0,0,0-4.36-1.52,5.17,5.17,0,0,0-4.23,1.66,6.34,6.34,0,0,0-1.71,4,.07.07,0,0,0,.14,0Z"/></g><path class="cls-4" d="M44.2,49a25.71,25.71,0,0,0-3.35,3.57c-.49.64-1,1.29-1.38,2a7.61,7.61,0,0,0-1.07,2.2.31.31,0,0,0,.51.29,13.92,13.92,0,0,0,1.31-1.9c.43-.68.89-1.34,1.36-2a34.94,34.94,0,0,1,3.1-3.65A.34.34,0,0,0,44.2,49Z"/><path class="cls-4" d="M43.19,53.77a20.85,20.85,0,0,0-3.69,4.58,15,15,0,0,0-2.16,5.47c0,.27.37.52.51.21a51.24,51.24,0,0,1,2.38-5.16,25.38,25.38,0,0,1,3.44-4.61.34.34,0,0,0-.48-.49Z"/><path class="cls-4" d="M47,51.34a30.48,30.48,0,0,0-3.11,4.38,18.25,18.25,0,0,0-2.1,4.94c-.07.3.37.51.53.22.84-1.54,1.56-3.13,2.43-4.66a38.57,38.57,0,0,1,2.91-4.37c.29-.38-.35-.88-.66-.51Z"/><path class="cls-4" d="M139.71,63.42a58,58,0,0,1,2.08,6.3c.58,2.15.89,4.36,1.54,6.47a.32.32,0,0,0,.62-.08,21.33,21.33,0,0,0-1.2-6.65,39.44,39.44,0,0,0-2.51-6.27c-.14-.29-.65-.08-.53.23Z"/><path class="cls-4" d="M139.61,70.79a45.13,45.13,0,0,1,1.47,4.67c.4,1.59.65,3.2,1.07,4.78a.41.41,0,0,0,.81-.11,17.77,17.77,0,0,0-.89-4.94,28.76,28.76,0,0,0-1.84-4.66c-.17-.34-.75-.1-.62.26Z"/><path class="cls-4" d="M136.39,67.61c.44,1.35.89,2.7,1.38,4a20,20,0,0,0,1.63,3.9.34.34,0,0,0,.61-.26,20,20,0,0,0-1.36-4c-.52-1.32-1.07-2.62-1.62-3.91-.16-.37-.77-.11-.64.27Z"/><path class="cls-7" d="M98.13,53.05s17.37,5.17,9.68-8.87c0,0,8.08-.6,6.57-5.3-1.4-4.4-7.39-5.65-9-12-15.69-4.3-34.17-2.66-47.73,4.93-1.4,4.41-3.19,12.52,4.32,8.16,0,0,3.07,28.74,14,11.62A32.77,32.77,0,0,0,87.56,69.84C97.33,77.51,108.55,75.08,98.13,53.05Z"/><path class="cls-5" d="M119.11,33.88s-.49-8-5.54-13.51-6.13-5.83-7.4-1.4A31,31,0,0,0,96.63,7.79c-6.76-4.9-7.93.23-6.53,7.45,0,0-5.71-7.69-12.58-10.72S64.7,3.24,71.58,13.15c0,0-5.59-2.57-12,2s-1,6.29,7,5.12a18.37,18.37,0,0,0-9.11,12.67c-1.49,8.89,7.83,1.2,7.83,1.2A17.94,17.94,0,0,0,68,49.85c5.59,7.45,8.85-6.41,8.85-6.41s1.87,12.23,8.74,19.92,15.43,7.9,12-1.54-2.85-15.59-2.85-15.59,2.92,4.45,8,4.22,3.72-3.4,0-7.94c0,0,9.38-.59,8.53-3.27s-6.85-4.15-7.63-11.74C103.7,27.5,113.38,30.11,119.11,33.88Z"/><path class="cls-4" d="M119.86,33.88a24.1,24.1,0,0,0-4.88-13,34.63,34.63,0,0,0-3.82-4,6,6,0,0,0-2.51-1.6c-2.05-.45-2.77,2-3.21,3.53l1.38-.18a25.46,25.46,0,0,0-2.95-4.73A28.36,28.36,0,0,0,95.29,6c-1.93-1-4.48-1.55-5.72.72-1.39,2.5-.69,6-.19,8.68l1.37-.58a38,38,0,0,0-10.57-9.8C77.49,3.45,69.77,0,68,4.71c-1.1,3,1.36,6.54,2.91,8.81l1-1c-4.82-2.17-11.17-.07-14.68,3.56-1.38,1.44-1.9,3.45.17,4.51,2.7,1.38,6.47.8,9.32.41l-.58-1.37A18.58,18.58,0,0,0,57.83,29C57,31,55.57,35,57.23,37.07c1.17,1.45,3.21.81,4.63.15a19.48,19.48,0,0,0,4-2.57l-1.26-.73a18.32,18.32,0,0,0,2.76,16.3c1.21,1.61,3.08,3.24,5.2,2.28,1.75-.8,2.79-2.79,3.52-4.46a24.82,24.82,0,0,0,1.5-4.4H76.1a45.48,45.48,0,0,0,2.13,8.09c1.75,4.93,4.23,9.76,8,13.43,2.44,2.37,7.07,5.93,10.74,4.23,4.33-2,1-8.53.15-11.52-1-3.67-2-7.78-1.63-11.64l-1.39.38c2.27,3.06,6.12,5.23,10,4.75,1.71-.22,3.3-1.1,3-3-.31-2.38-2.38-4.56-3.83-6.33l-.53,1.28a33.78,33.78,0,0,0,4.9-.68c1.49-.33,4.36-1,4.44-2.94.07-1.81-2.18-3.21-3.34-4.24a12.19,12.19,0,0,1-4.35-7.9c-.11-.95-1.61-1-1.5,0a13.09,13.09,0,0,0,3.24,7.44c1.25,1.4,3.16,2.44,4.18,4s-2.34,2-3.3,2.22a30.65,30.65,0,0,1-4.27.58.76.76,0,0,0-.53,1.28c1.21,1.47,2.76,3.17,3.31,5.05s-1.83,1.91-3.15,1.82a10.57,10.57,0,0,1-7-4,.76.76,0,0,0-1.4.37,29.53,29.53,0,0,0,.63,7.5A56.73,56.73,0,0,0,96.89,62c.52,1.53,1.37,4,.17,5.48-.93,1.14-2.71.8-3.91.41a15.43,15.43,0,0,1-5.7-3.68,32.17,32.17,0,0,1-7.66-12.61,44.88,44.88,0,0,1-2.25-8.38c-.11-.75-1.28-.69-1.44,0-.59,2.46-1.51,5.5-3.37,7.29-1.46,1.41-2.89.46-4-.91a16.39,16.39,0,0,1-3.46-10A16,16,0,0,1,66,34.32c.27-.78-.73-1.16-1.25-.73a19.15,19.15,0,0,1-2.44,1.68c-.84.5-2.8,1.75-3.78,1-.65-.48-.51-1.73-.45-2.41a15.1,15.1,0,0,1,1.31-4.79,17.74,17.74,0,0,1,4.49-6A14.85,14.85,0,0,1,67,20.9c.83-.42.19-1.48-.58-1.37-2.43.34-5.36.72-7.75-.1-.51-.18-1.17-.42-1.11-1.06.1-1,1.61-2,2.28-2.48a13.33,13.33,0,0,1,8.05-2.71,10.37,10.37,0,0,1,2.48.34,6,6,0,0,1,.72.22c.15,0,.24.09.16,0,.61.28,1.5-.34,1-1a17.25,17.25,0,0,1-2.8-5.46,2.78,2.78,0,0,1,.43-2.74c1.65-1.53,5-.3,6.76.38,5.07,2,9.65,6.4,12.84,10.67A.75.75,0,0,0,90.83,15c-.42-2.2-1.11-5.42,0-7.53,1.28-2.34,4.75.42,6,1.4a28.4,28.4,0,0,1,8.64,10.44c.28.62,1.2.39,1.37-.18s.41-2,1-2.35,1,.12,1.41.42a23,23,0,0,1,9,16.64c.06,1,1.56,1,1.5,0Z"/><path class="cls-6" d="M80.11,39.29a64.44,64.44,0,0,0,4.25,13.44c1.84,4,4.32,8.29,8,10.78.26.17.47-.19.31-.39-1.4-1.77-2.89-3.45-4.15-5.31A44.1,44.1,0,0,1,85.25,52,111.18,111.18,0,0,1,80.43,39.2a.17.17,0,0,0-.32.09Z"/><path class="cls-6" d="M69.67,29.32c-1.42,3.27-1.61,6.84-1.71,10.36a18.53,18.53,0,0,0,.42,5.25,6,6,0,0,0,2.35,3.75c.36.2.81-.22.58-.58a11.72,11.72,0,0,1-2-3.91,21.25,21.25,0,0,1-.27-5,37.27,37.27,0,0,1,1-9.65c.07-.25-.32-.43-.43-.18Z"/><path class="cls-6" d="M69.58,21.19a16.12,16.12,0,0,0-6.24,4.36,15.61,15.61,0,0,0-1.92,3.31,13.75,13.75,0,0,0-1.22,3.89.55.55,0,0,0,1,.28c.54-1.11.88-2.33,1.36-3.47a14.7,14.7,0,0,1,1.77-3.23c1.46-1.92,3.6-3.22,5.57-4.56a.34.34,0,0,0-.34-.58Z"/><path class="cls-6" d="M73.1,16.4A10.66,10.66,0,0,0,62.44,16c-.58.33-.07,1.17.52.89a12,12,0,0,1,10-.21.18.18,0,0,0,.18-.31Z"/><path class="cls-6" d="M92.15,37.61a14.8,14.8,0,0,0,9.69,10.73c.79.24,1-.91.33-1.2a16.3,16.3,0,0,1-5.72-3.79,15.9,15.9,0,0,1-3.5-6,.42.42,0,0,0-.8.22Z"/><path class="cls-6" d="M96,34.59a7.75,7.75,0,0,0,3.11,4.66,7.55,7.55,0,0,0,2.82,1.22,5.74,5.74,0,0,0,3.26-.11c.51-.2.49-1-.14-1a15.43,15.43,0,0,1-2.72-.05,7.36,7.36,0,0,1-2.6-1,7.54,7.54,0,0,1-3.13-3.9.31.31,0,0,0-.6.16Z"/><path class="cls-6" d="M85.69,15.85A17.94,17.94,0,0,0,80.2,9.63,18.25,18.25,0,0,0,74.6,7a4.47,4.47,0,0,0-2.06-.33.45.45,0,0,0-.1.81,6.74,6.74,0,0,0,1.78.51,17.29,17.29,0,0,1,1.84.62,19.21,19.21,0,0,1,9.11,7.59.3.3,0,0,0,.52-.3Z"/><path class="cls-8" d="M47.93,44.18s-10.37-.46-14.33-10S40.07,16,48.35,21.35,55,37.78,55,37.78Z"/><path class="cls-4" d="M47.93,43.43c-6.86-.33-14.34-6.08-14.45-13.33a9.69,9.69,0,0,1,8.58-9.61c5.12-.49,9.42,3.58,11.13,8.1a19.16,19.16,0,0,1,1.2,6.27,19.83,19.83,0,0,1,0,2c0,.2,0,.4,0,.6s0,.37,0,.08c-.13.94,1.31,1.35,1.45.4,1.1-7.91-3.18-18.41-12.2-19a11.18,11.18,0,0,0-11.23,8.28c-1.42,5.46,1.8,11.11,6.16,14.26a18.09,18.09,0,0,0,9.44,3.42c1,0,1-1.45,0-1.5Z"/><path class="cls-11" d="M49.21,41s-5.59.7-9.44-5.13-.25-13.24,7-9.32,5.36,11.89,5.36,11.89"/><path class="cls-4" d="M49.21,40.29C44,40.92,38.66,35.62,39,30.5a4.84,4.84,0,0,1,1.54-3.4,4.2,4.2,0,0,1,3.77-.69,9.7,9.7,0,0,1,6.88,6.64,11.6,11.6,0,0,1,.42,3.71,7,7,0,0,1-.18,1.52c-.22.94,1.23,1.34,1.45.4a12.38,12.38,0,0,0-.12-5.55,11.26,11.26,0,0,0-7.32-8,6.31,6.31,0,0,0-5,.17,5.65,5.65,0,0,0-2.68,3.46c-1.12,3.8,1,7.87,3.82,10.3a10.53,10.53,0,0,0,7.63,2.68c.95-.11,1-1.62,0-1.5Z"/><path class="cls-8" d="M127.19,44.18s10.37-.46,14.33-10S135,16,126.77,21.35s-6.69,16.43-6.69,16.43Z"/><path class="cls-4" d="M127.19,44.93c7.89-.38,16.52-7.24,15.92-15.69a11.2,11.2,0,0,0-9.52-10.18c-5.62-.77-10.59,3.29-12.74,8.23A20.28,20.28,0,0,0,119.36,38c.13,1,1.58.54,1.45-.4,0,.38,0-.35,0-.48,0-.55-.06-1.09-.06-1.64a20.22,20.22,0,0,1,.71-5.31c1.26-4.57,4.85-9.16,9.87-9.65a9.65,9.65,0,0,1,10.18,7.69c1,5-2.36,10-6.42,12.58a16.76,16.76,0,0,1-7.86,2.66c-1,0-1,1.55,0,1.5Z"/><path class="cls-11" d="M125.91,41s5.59.7,9.43-5.13.26-13.24-7-9.32S123,38.48,123,38.48"/><path class="cls-4" d="M125.91,41.79A10.21,10.21,0,0,0,132.32,40c3.22-2.12,5.75-6,5.28-10-.4-3.36-3-5.72-6.47-5.21A11.1,11.1,0,0,0,122.71,32a12.37,12.37,0,0,0-.44,6.66c.22.94,1.67.54,1.45-.4a5.7,5.7,0,0,1-.16-1.2,11.72,11.72,0,0,1,.17-3.07,9.77,9.77,0,0,1,5.8-7.16,5.25,5.25,0,0,1,4.33-.23A4.18,4.18,0,0,1,136,29.5c.82,3.36-1.29,6.88-3.89,8.86a9,9,0,0,1-6.19,1.93c-1-.12-1,1.39,0,1.5Z"/></g></g></g></svg>