<svg xmlns="http://www.w3.org/2000/svg" viewBox="0 0 157.84 162.48"><defs><style>.cls-1{isolation:isolate;}.cls-2{fill:#bdadff;}.cls-10,.cls-3,.cls-4{fill:#ffd2a8;}.cls-4{opacity:0.6;}.cls-10,.cls-4,.cls-7{mix-blend-mode:multiply;}.cls-5{fill:#6a220c;}.cls-6,.cls-7{fill:#c26c4f;}.cls-7{opacity:0.5;}.cls-8{fill:none;stroke:#6a220c;stroke-linecap:round;stroke-linejoin:round;stroke-width:1.5px;}.cls-9{fill:#ffe8d3;}.cls-10{opacity:0.9;}.cls-11{fill:#ffc42f;}.cls-12{fill:#ff8285;}.cls-13{fill:#a3472e;}.cls-14{opacity:0.3;mix-blend-mode:overlay;}.cls-15{fill:#fff;}</style></defs><g class="cls-1"><g id="Layer_2" data-name="Layer 2"><g id="OBJECTS"><path class="cls-2" d="M47.36,5.45C91.94-10,125.42,9.65,136.08,35.08c8,19.09.24,35.6,13,37s12.5,46.63-7.37,65-50,20.48-68,20.48c-23.16,0-53.36-10.94-59.06-24.29-7.71-18,12-8.55,1.46-22.68S-19.14,28.44,47.36,5.45Z"/><path class="cls-2" d="M147.14,68.6c-5-3.22,0-22,5.81-17.91S158.76,76.05,147.14,68.6Z"/><path class="cls-2" d="M143.27,51c-4-1.18-.72-12.31,3.32-9.76S148.55,52.53,143.27,51Z"/><path class="cls-2" d="M15.51,117.33c1.56,6-12.13,3.28-14-3.06S14.16,112.17,15.51,117.33Z"/><path class="cls-2" d="M1.33,94.2c-4.78,3.54,4.65,16.39,7.86,14S7,90,1.33,94.2Z"/><path class="cls-3" d="M100.78,120.92H57.09c-21.84,2-32,26.65-32,26.65,17.13,15.23,53.81,14.91,53.81,14.91s36.67.32,53.81-14.91C132.75,147.57,122.62,122.93,100.78,120.92Z"/><path class="cls-4" d="M85.11,149.88c5.78,3.06,8.25-1.45,8.25-1.45,5.93,2.22,8.31-2.17,8.31-2.17,8.71,1.18,7.9-5.5,7.9-5.5,12.43,2.65,8.51-7,8.51-7a8.3,8.3,0,0,0,4.21-1.7c-5.17-5.36-12.29-10.24-21.51-11.09H57.09c-9.06.83-16.09,5.56-21.23,10.81a8.38,8.38,0,0,0,4.56,2s-3.93,9.7,8.51,7c0,0-.82,6.68,7.89,5.5,0,0,2.39,4.39,8.32,2.17,0,0,2.46,4.51,8.24,1.45,0,0,2.24,4.26,5.87,4.16C82.88,154.14,85.11,149.88,85.11,149.88Z"/><path class="cls-5" d="M38.37,135A11.32,11.32,0,0,0,34,141.31a3.48,3.48,0,0,0,.65,3.28,3,3,0,0,0,2.94,1,.37.37,0,0,0-.1-.72,2.69,2.69,0,0,1-2.43-1,3.38,3.38,0,0,1-.09-3.21,14,14,0,0,1,3.6-5.43c.13-.13,0-.38-.21-.27Z"/><path class="cls-5" d="M42,144.44a21.88,21.88,0,0,0-1.44,3.2,10,10,0,0,0-.77,3.4,3.54,3.54,0,0,0,1,2.57c.56.57,1.59,1.14,2.34.64a.29.29,0,0,0-.07-.53,8.43,8.43,0,0,1-1-.2,2.23,2.23,0,0,1-1-.73,3.49,3.49,0,0,1-.53-2.69,25.5,25.5,0,0,1,1.81-5.5c.09-.22-.26-.36-.37-.16Z"/><path class="cls-5" d="M50.19,144.5a7.89,7.89,0,0,0-1.63,5.4A3.41,3.41,0,0,0,49.74,152a1.91,1.91,0,0,0,2.12.39.27.27,0,0,0-.06-.49,3.33,3.33,0,0,1-1.67-.67,2.77,2.77,0,0,1-.78-2,6.81,6.81,0,0,1,.37-2.28,15.43,15.43,0,0,1,.9-2.28.25.25,0,0,0-.43-.26Z"/><path class="cls-5" d="M56.74,151.21a7.2,7.2,0,0,0-.61,5.87c.64,1.54,2.56,3.17,4.3,2.35.32-.15.12-.56-.16-.6a4.55,4.55,0,0,1-2-.59,3.61,3.61,0,0,1-1.36-1.83,8.24,8.24,0,0,1,.23-5c.06-.2-.26-.35-.36-.15Z"/><path class="cls-5" d="M64.44,149.83c-.5,1.84-.59,4,.75,5.56a3.53,3.53,0,0,0,2.26,1.16c.72.07,1.9-.1,2.28-.81.13-.26-.09-.63-.4-.52s-.57.33-.89.43a2.55,2.55,0,0,1-1,.09,2.78,2.78,0,0,1-1.78-1,5.56,5.56,0,0,1-.84-4.79.2.2,0,0,0-.39-.1Z"/><path class="cls-5" d="M119.3,135.24a14,14,0,0,1,3.59,5.43,3.41,3.41,0,0,1,0,3.14,2.66,2.66,0,0,1-2.48,1,.37.37,0,0,0-.1.72,3,3,0,0,0,2.89-.93,3.41,3.41,0,0,0,.7-3.33,11.3,11.3,0,0,0-4.35-6.34.17.17,0,0,0-.21.27Z"/><path class="cls-5" d="M115.5,144.6a25.5,25.5,0,0,1,1.81,5.5,3.53,3.53,0,0,1-.47,2.62,2.23,2.23,0,0,1-1,.77,6.36,6.36,0,0,1-1.07.23.29.29,0,0,0-.07.53c.74.49,1.74-.05,2.3-.59a3.64,3.64,0,0,0,1-2.62,10,10,0,0,0-.75-3.31,22,22,0,0,0-1.47-3.29c-.11-.2-.46-.06-.37.16Z"/><path class="cls-5" d="M107.26,144.76a16.09,16.09,0,0,1,.87,2.21,7,7,0,0,1,.4,2.35,2.79,2.79,0,0,1-.74,1.91,3.26,3.26,0,0,1-1.71.71.27.27,0,0,0-.07.49,1.9,1.9,0,0,0,2.12-.39,3.29,3.29,0,0,0,1.18-2.14,7.88,7.88,0,0,0-1.62-5.4.25.25,0,0,0-.43.26Z"/><path class="cls-5" d="M100.78,151.36a8.31,8.31,0,0,1,.23,5,3.67,3.67,0,0,1-1.32,1.8,4.46,4.46,0,0,1-2.08.62c-.28,0-.49.45-.17.6,1.75.82,3.66-.81,4.3-2.35a7.21,7.21,0,0,0-.61-5.87c-.09-.2-.42-.05-.35.15Z"/><path class="cls-5" d="M93,149.93a5.53,5.53,0,0,1-.84,4.79,2.76,2.76,0,0,1-1.74,1,2.31,2.31,0,0,1-1-.07c-.34-.1-.61-.33-.94-.44s-.53.26-.4.52a1.78,1.78,0,0,0,1.08.7,3.08,3.08,0,0,0,1.21.11,3.51,3.51,0,0,0,2.25-1.16c1.34-1.53,1.25-3.72.76-5.56a.21.21,0,0,0-.4.1Z"/><path class="cls-5" d="M74.77,154.46a5.32,5.32,0,0,0,2.54,5.23,3.77,3.77,0,0,0,1.66.56,4.37,4.37,0,0,0,1.94-.44,5.17,5.17,0,0,0,1.56-.9,3.52,3.52,0,0,0,.82-1.38,13.21,13.21,0,0,0,.47-2.07,8.41,8.41,0,0,0,.13-2.4.27.27,0,0,0-.53-.07c-.41,1.39-.41,2.87-.87,4.25a2.4,2.4,0,0,1-1.13,1.44,5.81,5.81,0,0,1-2,.73,3.87,3.87,0,0,1-3.08-1.68A5.66,5.66,0,0,1,75,154.46c0-.15-.2-.14-.22,0Z"/><path class="cls-5" d="M133.43,147.32a51.18,51.18,0,0,0-13.52-18.64,34.32,34.32,0,0,0-17-8.29,48.09,48.09,0,0,0-7.59-.27H65.49c-2.76,0-5.53-.1-8.28,0-5.59.18-11.29,2.68-15.82,5.83a50.72,50.72,0,0,0-16.77,20.79c-.08.19-.17.38-.25.58-.37.89,1.08,1.28,1.45.4l.15-.34c.2-.44.41-.88.62-1.32.74-1.49,1.56-2.95,2.43-4.37A50.94,50.94,0,0,1,39,129.74a32.67,32.67,0,0,1,17.11-8,54.16,54.16,0,0,1,6.86-.1h29c2.85,0,5.7-.07,8.55,0,5.23.11,10.58,2.49,14.84,5.38,7.25,4.93,12.92,12.44,16.54,20.38.06.15.26.61.15.34.36.88,1.81.49,1.44-.4Z"/><path class="cls-6" d="M119.76,126.9c.27-4-4.57-9.57-4.57-9.57H42.65s-4.84,5.58-4.57,9.57,4.47,4.7,4.47,4.7S41,136.08,43.76,138s6.89-.14,6.89-.14-.94,6.23,7,6.16c0,0,2.35,4.55,7.63,1.67,0,0,2.81,5.09,8.3.87,0,0,1.74,3.88,5.32,3.55,3.58.33,5.32-3.55,5.32-3.55,5.49,4.22,8.3-.87,8.3-.87,5.28,2.88,7.63-1.67,7.63-1.67,8,.07,7-6.16,7-6.16s4.08,2,6.89.14,1.21-6.36,1.21-6.36S119.49,130.89,119.76,126.9Z"/><path class="cls-7" d="M78.88,136.76a87,87,0,0,0,40.8-11.09c-.58-3.82-4.49-8.34-4.49-8.34H42.65s-3.94,4.55-4.5,8.37A87,87,0,0,0,78.88,136.76Z"/><path class="cls-8" d="M42.65,117.33s-4.84,5.58-4.57,9.57,4.47,4.7,4.47,4.7-3.07,10.05,8.1,6.22c0,0-.94,6.23,7,6.16,0,0,2.35,4.55,7.63,1.67,0,0,2.81,5.09,8.3.87,0,0,1.74,3.88,5.32,3.55,3.58.33,5.32-3.55,5.32-3.55,5.49,4.22,8.3-.87,8.3-.87,5.28,2.88,7.63-1.67,7.63-1.67,8,.07,7-6.16,7-6.16s10.61,3.84,8.1-6.22c0,0,4.2-.71,4.47-4.7s-4.57-9.57-4.57-9.57"/><path class="cls-5" d="M45.86,127a10.51,10.51,0,0,0-1.43,1,8.09,8.09,0,0,0-1.18,1.43c-.35.5-.65,1-1,1.55a2.69,2.69,0,0,0-.57,1.95.51.51,0,0,0,1,0,4.89,4.89,0,0,1,.17-.83,5.06,5.06,0,0,1,.36-.74l.82-1.52c.26-.48.57-.94.85-1.41A6.09,6.09,0,0,1,46,127.1c.06,0,0-.15-.09-.11Z"/><path class="cls-5" d="M53.55,131.53a7.42,7.42,0,0,0-1.92,2.25c-.27.46-.51.94-.74,1.42a8.18,8.18,0,0,0-.63,1.57,2.26,2.26,0,0,0,0,1.66.4.4,0,0,0,.46.2c.22-.08.27-.36.27-.56a5.71,5.71,0,0,1,0-.83,7.79,7.79,0,0,1,.22-.83c.16-.54.36-1.06.56-1.58a8.59,8.59,0,0,1,1.83-3.15c.07-.08,0-.22-.12-.15Z"/><path class="cls-5" d="M60.57,133.74a7.44,7.44,0,0,0-3.63,4.52,8.8,8.8,0,0,0-.38,3.18,10.08,10.08,0,0,0,.23,1.65,4.61,4.61,0,0,0,.58,1.63.55.55,0,0,0,1-.42c-.07-.48-.31-1-.42-1.44a7.64,7.64,0,0,1-.22-1.51,9.4,9.4,0,0,1,.29-2.79,12.75,12.75,0,0,1,2.63-4.71.07.07,0,0,0-.09-.11Z"/><path class="cls-5" d="M65.8,137c-.21.32-.51.55-.71.87a5.42,5.42,0,0,0-.49,1,12.35,12.35,0,0,0-.64,2.23,7.62,7.62,0,0,0,.23,3.85c.16.46.44,1.37.93,1.58s.93-.27.69-.78c-.12-.26-.3-.49-.42-.76a5.45,5.45,0,0,1-.3-1,6.4,6.4,0,0,1-.11-1.9,11,11,0,0,1,.46-2.48c.12-.39.23-.77.32-1.17s0-.92.15-1.39a.06.06,0,0,0-.11,0Z"/><path class="cls-5" d="M72.86,139.5a10.38,10.38,0,0,0-.63,4.06,7.36,7.36,0,0,0,.44,2,4.59,4.59,0,0,0,1,1.93.57.57,0,0,0,.95-.55,17.09,17.09,0,0,0-.86-1.71,16.15,16.15,0,0,1-.6-1.82,8.35,8.35,0,0,1-.2-3.91c0-.08-.09-.11-.11,0Z"/><path class="cls-5" d="M111.86,127.1a6.62,6.62,0,0,1,1,1.33c.29.48.61.95.88,1.45l.79,1.47a7.45,7.45,0,0,1,.37.75,4.34,4.34,0,0,1,.18.87.52.52,0,0,0,1,0,2.69,2.69,0,0,0-.55-1.91c-.32-.54-.62-1.08-1-1.59a8.1,8.1,0,0,0-1.15-1.39,9.81,9.81,0,0,0-1.47-1.09.07.07,0,0,0-.08.11Z"/><path class="cls-5" d="M104.14,131.68a8,8,0,0,1,1.66,2.74c.21.5.4,1,.58,1.52a6.43,6.43,0,0,1,.41,1.65c0,.31-.12,1.14.42,1s.47-1,.42-1.4a9.31,9.31,0,0,0-1.24-3.07,7.73,7.73,0,0,0-2.14-2.64c-.08-.07-.18.07-.11.15Z"/><path class="cls-5" d="M97.14,133.85a12.75,12.75,0,0,1,2.63,4.71,9.09,9.09,0,0,1,.3,2.79,8.46,8.46,0,0,1-.22,1.51c-.12.48-.36,1-.43,1.44a.55.55,0,0,0,1,.42,4.2,4.2,0,0,0,.56-1.54,10.16,10.16,0,0,0,.25-1.64,8.87,8.87,0,0,0-.37-3.28,7.48,7.48,0,0,0-3.64-4.52.07.07,0,0,0-.09.11Z"/><path class="cls-5" d="M91.9,137.07c.08.38,0,.76.09,1.14a10.83,10.83,0,0,0,.27,1.09,12.57,12.57,0,0,1,.52,2.28,6.38,6.38,0,0,1-.53,3.73c-.15.28-.37.52-.31.86a.45.45,0,0,0,.3.4c.65.19,1-.71,1.19-1.16a7.25,7.25,0,0,0,.5-3.74,12.58,12.58,0,0,0-.61-2.49,6.28,6.28,0,0,0-.48-1.06c-.23-.41-.58-.69-.84-1.09a.05.05,0,0,0-.1,0Z"/><path class="cls-5" d="M84.83,139.53a8.35,8.35,0,0,1-.2,3.91,14.77,14.77,0,0,1-.58,1.78,16.84,16.84,0,0,0-.88,1.75.57.57,0,0,0,1,.55,4.51,4.51,0,0,0,1-1.87,6.81,6.81,0,0,0,.46-2.09A10.56,10.56,0,0,0,85,139.5a.06.06,0,0,0-.12,0Z"/><path class="cls-3" d="M112.8,33.26c-18.46-13-49.37-13-67.83,0-27.51,19.36-30.2,55-22,71.36,12.28,24.57,55.92,29.63,55.92,29.63s43.65-5.06,55.93-29.63C143,88.24,140.31,52.62,112.8,33.26Z"/><path class="cls-4" d="M134.81,99.6c-12.28,24.56-55.93,29.62-55.93,29.62S35.24,124.16,23,99.6a44,44,0,0,1-4-17.47C18.59,91,20.12,99,23,104.62c12.28,24.57,55.92,29.63,55.92,29.63s43.65-5.06,55.93-29.63c2.84-5.67,4.37-13.67,4-22.49A44,44,0,0,1,134.81,99.6Z"/><path class="cls-9" d="M28.11,58.85c-3.33,5.68-5,12.51-5.84,19a49.89,49.89,0,0,0,.53,18.07,35.11,35.11,0,0,0,7,13.47c2.7,3.33,6,6.71,9.84,8.66a.47.47,0,0,0,.47-.81c-7.06-4.81-13.23-12-15.75-20.21-1.72-5.61-1.63-11.82-1.09-17.61a72.23,72.23,0,0,1,2.79-14A57.41,57.41,0,0,1,28.27,59c.05-.11-.1-.2-.16-.1Z"/><path class="cls-9" d="M129.5,59a67.28,67.28,0,0,1,4.79,18.49c.71,5.8.94,12-.39,17.77a33.63,33.63,0,0,1-7,13.54,44.43,44.43,0,0,1-9.23,8.46.47.47,0,0,0,.47.81,30.17,30.17,0,0,0,8.67-7.28,37,37,0,0,0,7.67-13.07c1.8-5.65,1.83-12,1.25-17.88a60.75,60.75,0,0,0-3.16-14.41,37.33,37.33,0,0,0-2.9-6.53c-.06-.1-.21,0-.16.1Z"/><path class="cls-5" d="M113.18,32.61c-12.94-9-30.06-11.41-45.41-9a56.29,56.29,0,0,0-21.78,8A59.45,59.45,0,0,0,29.65,47.61,65.21,65.21,0,0,0,18.16,86.13a48.26,48.26,0,0,0,2.9,16A36,36,0,0,0,31,116c9,8,20.63,12.62,32.07,15.74,4,1.09,8.06,2,12.15,2.68a16.59,16.59,0,0,0,4,.51A62.81,62.81,0,0,0,87,133.61a125.62,125.62,0,0,0,14.56-3.94c11.38-3.86,23.1-9.63,30.55-19.37,7-9.12,8.33-21.35,7.13-32.47a64.28,64.28,0,0,0-17.31-37.75,63,63,0,0,0-8.76-7.47c-.79-.56-1.54.74-.76,1.29a61.25,61.25,0,0,1,23.8,35.32c2.67,10.78,3.09,23.35-1.45,33.72-4.79,11-15.65,17.91-26.24,22.47a115.1,115.1,0,0,1-26.94,7.69,10.12,10.12,0,0,1-3.21.33c-2.26-.3-5.42-.88-8-1.42-10.59-2.27-21.18-5.73-30.5-11.35a45.52,45.52,0,0,1-13.47-11.77,34.72,34.72,0,0,1-5.91-14.18c-2.32-12.22-.25-25.42,4.9-36.68C31.62,44.5,42.79,33.06,56.91,28a65.69,65.69,0,0,1,45.92.75,48.8,48.8,0,0,1,9.59,5.18C113.21,34.46,114,33.16,113.18,32.61Z"/><path class="cls-9" d="M106.81,49.75c-7-4.4-18.32,19.09-27.6,18.71C68.2,68,59.21,44.52,51,49.75,28.3,64.1,26.08,92,32.83,104.12c10.11,18.21,46.05,23.41,46.05,23.41s35.94-5.2,46.06-23.41C131.68,92,129.47,64.1,106.81,49.75Z"/><path class="cls-5" d="M85.22,34.69a4.83,4.83,0,0,0,4.69,2.68A3.92,3.92,0,0,0,91.34,37a1.73,1.73,0,0,0,.88-1.36,9,9,0,0,0-.09-3.43,6.66,6.66,0,0,0-1.72-3.4.35.35,0,0,0-.55.43,13.07,13.07,0,0,1,1.4,3.34,7.92,7.92,0,0,1,.15,1.88c0,.47,0,1.33-.39,1.66a2.54,2.54,0,0,1-1.42.39,4.51,4.51,0,0,1-1.55-.22,4.32,4.32,0,0,1-2.46-1.83.22.22,0,0,0-.37.22Z"/><path class="cls-5" d="M95.75,31.28a3.54,3.54,0,0,0,3,2.13,2.3,2.3,0,0,0,1.68-.69,3.51,3.51,0,0,0,.76-2,3,3,0,0,0-.06-1.11,1.19,1.19,0,0,0-.7-.85.28.28,0,0,0-.35.26,4.67,4.67,0,0,0,.21,1,3,3,0,0,1,0,.94,1.86,1.86,0,0,1-1,1.56C98,33,96.8,32,95.89,31.17a.09.09,0,0,0-.14.11Z"/><path class="cls-5" d="M81.2,27.42a4.61,4.61,0,0,0,.54,1.92,5.84,5.84,0,0,0,.6.87,3.86,3.86,0,0,0,.74.77,2.34,2.34,0,0,0,3.3-1,2.85,2.85,0,0,0,.36-1.11,1.37,1.37,0,0,0-.23-1.05.16.16,0,0,0-.23,0,2.36,2.36,0,0,0-.3,1,3.2,3.2,0,0,1-.37,1,1.67,1.67,0,0,1-1.52.79c-.66,0-1.18-.71-1.57-1.18a5.81,5.81,0,0,1-1.17-2,.08.08,0,0,0-.15,0Z"/><path class="cls-5" d="M72.17,34.47a4.27,4.27,0,0,1-2.45,1.83,4.51,4.51,0,0,1-1.55.22,2.51,2.51,0,0,1-1.42-.39c-.41-.33-.38-1.18-.39-1.66a7.43,7.43,0,0,1,.15-1.88,13.07,13.07,0,0,1,1.4-3.34.35.35,0,0,0-.55-.43,7.85,7.85,0,0,0-1.87,6.4,2.41,2.41,0,0,0,.57,1.53,2.62,2.62,0,0,0,1.42.57,4.78,4.78,0,0,0,5.07-2.63.22.22,0,0,0-.38-.22Z"/><path class="cls-5" d="M61.88,31.17C61,32,59.73,33,58.43,32.47a1.82,1.82,0,0,1-1-1.56,3,3,0,0,1,0-.94,4.67,4.67,0,0,0,.21-1,.28.28,0,0,0-.35-.26,1.1,1.1,0,0,0-.65.71,2.55,2.55,0,0,0-.13,1,3.92,3.92,0,0,0,.58,2,2.56,2.56,0,0,0,3.44.49A4.21,4.21,0,0,0,62,31.28a.09.09,0,0,0-.13-.11Z"/><path class="cls-5" d="M76.42,27.39a5.81,5.81,0,0,1-1.17,2c-.39.47-.92,1.13-1.57,1.18a1.67,1.67,0,0,1-1.52-.79,3,3,0,0,1-.36-.95,2.55,2.55,0,0,0-.31-1,.16.16,0,0,0-.23,0,1.16,1.16,0,0,0-.23.89,2.83,2.83,0,0,0,1.55,2.4,2.22,2.22,0,0,0,1.87,0,4,4,0,0,0,1.42-1.54,4.53,4.53,0,0,0,.7-2.17.08.08,0,0,0-.15,0Z"/><path class="cls-5" d="M81.32,35.16a12,12,0,0,1,.87,4.4,8.75,8.75,0,0,1-.84,4.19,2.41,2.41,0,0,1-3,1.24A3.86,3.86,0,0,1,76,42.46,7.9,7.9,0,0,1,75.64,40a19.67,19.67,0,0,0,.09-2.54.38.38,0,0,0-.74-.1A7.81,7.81,0,0,0,74.68,40,8.51,8.51,0,0,0,75,42.55a4.86,4.86,0,0,0,2.7,3.18,3.31,3.31,0,0,0,3.76-.57A7,7,0,0,0,83,40.8a11.11,11.11,0,0,0-1.15-5.86c-.14-.28-.64-.08-.52.22Z"/><path class="cls-10" d="M104.17,64.48C87.62,72.27,85.5,89.38,85.23,93.59a11,11,0,0,0-6.35-2.42,11,11,0,0,0-6.34,2.42c-.27-4.21-2.39-21.32-18.94-29.11-19-8.91-26.86,5.91-26,21.58,1,17.56,14.4,25.78,27.5,21.06A37.74,37.74,0,0,0,70,97.83c.53,2.57,2.8,11.4,8.89,12.74,6.1-1.34,8.37-10.17,8.9-12.74a37.74,37.74,0,0,0,14.88,9.29c13.1,4.72,26.52-3.5,27.5-21.06C131,70.39,123.12,55.57,104.17,64.48Z"/><path class="cls-6" d="M72.58,90.54s0-21.14-19-30.06-26.86,5.91-26,21.58c1,17.56,14.4,25.78,27.5,21.06S72.58,90.54,72.58,90.54Z"/><path class="cls-5" d="M34,98.75a62.55,62.55,0,0,0,5.15-4c.83-.69,1.66-1.37,2.5-2a19.44,19.44,0,0,0,2.52-2.28.39.39,0,0,0-.47-.61,31.39,31.39,0,0,0-5.18,4,43.16,43.16,0,0,0-4.84,4.52c-.19.22.05.6.32.42Z"/><path class="cls-5" d="M28.12,78.92a63.25,63.25,0,0,0,6.45.87,41.14,41.14,0,0,0,6.63.58.38.38,0,0,0,.1-.75,31.24,31.24,0,0,0-6.47-.91,44.75,44.75,0,0,0-6.64-.32c-.29,0-.39.47-.07.53Z"/><path class="cls-5" d="M28.5,89.32a62.1,62.1,0,0,0,6.34-2A39.08,39.08,0,0,0,41,85.08c.42-.22.1-.76-.3-.7a32,32,0,0,0-6.36,2,43.85,43.85,0,0,0-6,2.49c-.28.14-.08.55.21.49Z"/><path class="cls-5" d="M29.42,67c2.06,1.5,4.28,2.78,6.45,4.1A57.22,57.22,0,0,0,42.46,75c.36.16.83-.29.47-.61a43,43,0,0,0-6.41-4.14,59.7,59.7,0,0,0-6.82-3.67.27.27,0,0,0-.28.47Z"/><path class="cls-5" d="M38.79,58.69c1,2.34,2.26,4.57,3.45,6.82A56.89,56.89,0,0,0,46,72.17c.24.33.86.15.71-.3a41.36,41.36,0,0,0-3.41-6.82,57.75,57.75,0,0,0-4-6.63.27.27,0,0,0-.46.27Z"/><path class="cls-5" d="M48.64,58.55A63.65,63.65,0,0,0,49.81,65a41,41,0,0,0,1.49,6.49.39.39,0,0,0,.76-.1,32.2,32.2,0,0,0-1.13-6.44,44.5,44.5,0,0,0-1.76-6.42c-.1-.26-.56-.26-.53.07Z"/><path class="cls-5" d="M58.77,63.34a64.8,64.8,0,0,0-2.64,6,42.4,42.4,0,0,0-2.41,6.19.39.39,0,0,0,.71.29,31.74,31.74,0,0,0,2.68-6,44.63,44.63,0,0,0,2.16-6.27c.06-.29-.35-.49-.5-.21Z"/><path class="cls-5" d="M65.91,71.16a64.11,64.11,0,0,0-5.13,4l-2.49,2a18.88,18.88,0,0,0-2.52,2.29.39.39,0,0,0,.47.6,31.37,31.37,0,0,0,5.17-4,44,44,0,0,0,4.83-4.53c.19-.22-.06-.6-.33-.42Z"/><path class="cls-5" d="M69.78,79a60.81,60.81,0,0,0-6,2.57,41.12,41.12,0,0,0-6,2.88.39.39,0,0,0,.3.71,31.86,31.86,0,0,0,6-2.54A45.7,45.7,0,0,0,70,79.53c.24-.16.1-.6-.21-.49Z"/><path class="cls-5" d="M72.8,90.42a66.09,66.09,0,0,0-6.36-2,39.5,39.5,0,0,0-6.3-1.66c-.39-.05-.52.55-.2.72a32.25,32.25,0,0,0,6.33,2A44.61,44.61,0,0,0,72.73,91c.33,0,.33-.43.07-.53Z"/><path class="cls-5" d="M64.05,98.76a64.81,64.81,0,0,0-3.88-5.34,41.45,41.45,0,0,0-4.09-5.13.39.39,0,0,0-.61.47,32.25,32.25,0,0,0,3.83,5.33,44,44,0,0,0,4.33,5,.27.27,0,0,0,.42-.33Z"/><path class="cls-5" d="M55.15,103.32a63.65,63.65,0,0,0-.6-6.61,40.07,40.07,0,0,0-.87-6.48.39.39,0,0,0-.76.1A32.16,32.16,0,0,0,53.48,97a43.72,43.72,0,0,0,1.14,6.43.27.27,0,0,0,.53-.07Z"/><path class="cls-5" d="M45.31,104.25a28.5,28.5,0,0,0,1.58-5.61,33.3,33.3,0,0,0,1-5.86c0-.5-.67-.54-.83-.11a34.63,34.63,0,0,0-1.25,5.8,27.85,27.85,0,0,0-.66,5.75c0,.06.1.1.13,0Z"/><path class="cls-5" d="M73.33,90.54a36.6,36.6,0,0,0-5-17.39A32.34,32.34,0,0,0,57,61.43c-5-3-11.41-5.36-17.34-4C29,59.91,26.3,72.94,26.88,82.26c.37,6,2.27,12,6.39,16.54a19.78,19.78,0,0,0,13.64,6.37c6.18.28,12.32-2.43,17.41-5.72a29.35,29.35,0,0,0,8.59-8c.11-.17.22-.34.32-.51.47-.84-.83-1.6-1.3-.76a21,21,0,0,1-4.86,5.4,35,35,0,0,1-16,7.86,18.53,18.53,0,0,1-14-3.21C32.64,97,30,91.86,28.93,86.56a34.27,34.27,0,0,1,.71-16.5c1.3-4.28,3.82-8.43,8-10.37,5.16-2.39,11.23-.69,16.06,1.68A30.81,30.81,0,0,1,65.91,72a37,37,0,0,1,5.91,18.19c0,.1,0,.21,0,.32A.75.75,0,0,0,73.33,90.54Z"/><path class="cls-6" d="M85.19,90.54s0-21.14,19-30.06,26.86,5.91,26,21.58c-1,17.56-14.4,25.78-27.5,21.06S85.19,90.54,85.19,90.54Z"/><path class="cls-5" d="M124.11,98.33a43.16,43.16,0,0,0-4.84-4.52,31.81,31.81,0,0,0-5.18-4,.39.39,0,0,0-.47.61,18.46,18.46,0,0,0,2.45,2.22c.86.69,1.72,1.39,2.57,2.1a64.14,64.14,0,0,0,5.14,4c.27.18.52-.2.33-.42Z"/><path class="cls-5" d="M129.58,78.39a44.75,44.75,0,0,0-6.64.32,31.24,31.24,0,0,0-6.47.91.38.38,0,0,0,.1.75,41.14,41.14,0,0,0,6.63-.58,63.25,63.25,0,0,0,6.45-.87c.31-.06.22-.51-.07-.53Z"/><path class="cls-5" d="M129.48,88.83a43.85,43.85,0,0,0-6-2.49,32,32,0,0,0-6.36-2c-.4-.06-.72.47-.3.7a39.08,39.08,0,0,0,6.13,2.24,62.1,62.1,0,0,0,6.34,2c.29.06.49-.34.21-.49Z"/><path class="cls-5" d="M128.07,66.56a59.7,59.7,0,0,0-6.82,3.67,43,43,0,0,0-6.41,4.14c-.36.31.1.77.47.61a57.22,57.22,0,0,0,6.59-3.85c2.17-1.32,4.39-2.6,6.45-4.1a.27.27,0,0,0-.28-.47Z"/><path class="cls-5" d="M118.52,58.42a57.75,57.75,0,0,0-4,6.63,41.36,41.36,0,0,0-3.41,6.82c-.15.45.46.63.71.3a55.4,55.4,0,0,0,3.7-6.66c1.2-2.25,2.46-4.48,3.46-6.82a.27.27,0,0,0-.46-.27Z"/><path class="cls-5" d="M108.6,58.48a44.5,44.5,0,0,0-1.76,6.42,32.2,32.2,0,0,0-1.13,6.44.39.39,0,0,0,.76.1A41,41,0,0,0,108,65a63.65,63.65,0,0,0,1.17-6.4c0-.32-.43-.33-.53-.07Z"/><path class="cls-5" d="M98.5,63.55a44.63,44.63,0,0,0,2.16,6.27,31.74,31.74,0,0,0,2.68,6,.39.39,0,0,0,.71-.29,42,42,0,0,0-2.41-6.19,64.8,64.8,0,0,0-2.64-6c-.15-.27-.56-.08-.5.21Z"/><path class="cls-5" d="M91.53,71.58a44,44,0,0,0,4.83,4.53,31.37,31.37,0,0,0,5.17,4,.39.39,0,0,0,.47-.6,18.39,18.39,0,0,0-2.44-2.23c-.86-.7-1.72-1.4-2.57-2.11a64.11,64.11,0,0,0-5.13-4c-.27-.18-.52.2-.33.42Z"/><path class="cls-5" d="M87.78,79.53a45.7,45.7,0,0,0,5.86,3.13,31.58,31.58,0,0,0,6,2.54.39.39,0,0,0,.3-.71,41.12,41.12,0,0,0-6-2.88A61.85,61.85,0,0,0,88,79c-.3-.11-.45.33-.21.49Z"/><path class="cls-5" d="M85,91a44.9,44.9,0,0,0,6.46-1.43,32,32,0,0,0,6.32-2c.33-.17.2-.77-.19-.72a39.5,39.5,0,0,0-6.3,1.66,66.09,66.09,0,0,0-6.36,2c-.26.1-.26.57.07.53Z"/><path class="cls-5" d="M94.14,99.09a44,44,0,0,0,4.33-5,32.25,32.25,0,0,0,3.83-5.33.39.39,0,0,0-.61-.47,40.54,40.54,0,0,0-4.09,5.13,64.81,64.81,0,0,0-3.88,5.34.27.27,0,0,0,.42.33Z"/><path class="cls-5" d="M103.15,103.39A43.72,43.72,0,0,0,104.29,97a32.16,32.16,0,0,0,.56-6.63.39.39,0,0,0-.76-.1,39,39,0,0,0-.87,6.48,63.65,63.65,0,0,0-.6,6.61.27.27,0,0,0,.53.07Z"/><path class="cls-5" d="M112.59,104.22a27.85,27.85,0,0,0-.66-5.75,34.63,34.63,0,0,0-1.25-5.8c-.16-.42-.85-.39-.83.11a33.3,33.3,0,0,0,1,5.86,28.5,28.5,0,0,0,1.58,5.61c0,.07.13,0,.13,0Z"/><path class="cls-5" d="M85.94,90.54A35.08,35.08,0,0,1,90.12,75a31.11,31.11,0,0,1,10.14-11.41c4.69-3.13,10.82-5.74,16.57-4.84,10.38,1.62,13,14.1,12.6,22.87-.26,5.83-2,11.78-6,16.16a18.22,18.22,0,0,1-13,5.94c-5.93.14-11.81-2.58-16.64-5.8a27.64,27.64,0,0,1-7.7-7.31c-.09-.13-.17-.27-.25-.41-.47-.84-1.77-.08-1.3.76a22.75,22.75,0,0,0,5.52,6c4.74,3.89,10.85,7.15,17,8a19.92,19.92,0,0,0,14.53-3.55,23.53,23.53,0,0,0,8.69-14.29,36.14,36.14,0,0,0-.63-17.35c-1.35-4.52-4-9-8.29-11.17-5-2.6-10.92-1.58-15.94.51A32.73,32.73,0,0,0,91.45,70a36.55,36.55,0,0,0-7,20.14c0,.13,0,.27,0,.4A.75.75,0,0,0,85.94,90.54Z"/><path class="cls-11" d="M49.83,72c-11.69-.29-13.92,13.77-9.92,20.14,2,3.18,4.5,5.39,9.92,5.39,5.25,0,7.92-2.21,9.92-5.39C63.75,85.76,61.53,71.7,49.83,72Z"/><path class="cls-5" d="M61.77,80.56a12.67,12.67,0,0,0-5.62-7.83,13.76,13.76,0,0,0-10.19-1c-5.55,1.58-8.4,7.13-8.62,12.58a14.73,14.73,0,0,0,1.92,8.22c.51.82,1.81.07,1.3-.76-2.34-3.8-2.26-9.19-.37-13.16a10.17,10.17,0,0,1,4.88-5,12.47,12.47,0,0,1,8.9-.25c3.36,1.21,5.44,4.25,6.35,7.59a.75.75,0,0,0,1.45-.4Z"/><ellipse class="cls-5" cx="52.88" cy="85.18" rx="7.4" ry="9.15"/><path class="cls-11" d="M107.94,72c11.69-.29,13.91,13.77,9.92,20.14-2,3.18-4.5,5.39-9.92,5.39-5.25,0-7.92-2.21-9.92-5.39C94,85.76,96.24,71.7,107.94,72Z"/><path class="cls-5" d="M97.45,81a11,11,0,0,1,5.16-7.06,12.28,12.28,0,0,1,9.24-.61c4.74,1.57,7,6.63,7.08,11.31a13,13,0,0,1-1.72,7.15c-.51.83.79,1.58,1.3.76,2.69-4.38,2.5-10.56.18-15.05a11.42,11.42,0,0,0-5.82-5.39,13.94,13.94,0,0,0-10.11.1A12.29,12.29,0,0,0,96,80.56a.75.75,0,0,0,1.45.4Z"/><ellipse class="cls-5" cx="104.89" cy="85.18" rx="7.4" ry="9.15"/><path class="cls-12" d="M125.51,103.66c9.57-6.5,3.41-12.38-3.07-7.88C113.47,102,117.68,109,125.51,103.66Z"/><path class="cls-12" d="M32.28,103.66c-9.56-6.5-3.4-12.38,3.08-7.88C44.32,102,40.11,109,32.28,103.66Z"/><path class="cls-5" d="M44.69,70.58a10.46,10.46,0,0,1,7.82-.32c2.25.81,3.49-1,1.85-2.27-1.9-1.48-6.65-2.35-10-.71S41.3,70,41.57,70.65,42.83,71.38,44.69,70.58Z"/><path class="cls-5" d="M113.08,70.58a10.46,10.46,0,0,0-7.82-.32c-2.25.81-3.49-1-1.85-2.27,1.9-1.48,6.65-2.35,10-.71s3.09,2.74,2.82,3.37S114.94,71.38,113.08,70.58Z"/><path class="cls-10" d="M125.14,44.88c-5.68-1.1-12.22-2.16-19.56-.14-17,4.66-23.41,26-26.7,33.27C75.6,70.78,69.16,49.4,52.19,44.74c-7.34-2-13.88-1-19.56.14a60.94,60.94,0,0,0-7.94,13c4,2.35,9.42,4,16.74,4,26.83.09,31,27.7,31.84,33.53l5.61-2.85,5.62,2.85c.81-5.83,5-33.44,31.84-33.53,7.32,0,12.73-1.65,16.74-4A61.35,61.35,0,0,0,125.14,44.88Z"/><path class="cls-5" d="M98.8,35.51C83.12,40.87,78.92,58.45,78.92,58.45S74.72,40.87,59,35.51,28.8,32.4,21.81,23.41c0,0,1.52,16.88,15.5,20.61s31,4,41.61,33.59C89.5,48.05,106.55,47.75,120.53,44S136,23.41,136,23.41C129,32.4,114.47,30.15,98.8,35.51Z"/><path class="cls-13" d="M105.62,40.64c-17,4.66-23.42,26.05-26.7,33.27-3.28-7.22-9.72-28.61-26.7-33.27-18.24-5-31.57,9-38.91-4.55,0,0,1.32,21.62,28.15,21.7s31,27.7,31.85,33.53l5.61-2.85,5.61,2.85c.82-5.83,5-33.44,31.84-33.53s28.16-21.7,28.16-21.7C137.19,49.61,123.86,35.63,105.62,40.64Z"/><path class="cls-5" d="M105.42,39.92C92.83,43.46,85.83,55.56,81.06,66.83c-.94,2.23-1.79,4.5-2.79,6.7h1.3c-1.78-3.92-3.23-8-5.11-11.86a52.72,52.72,0,0,0-9.54-14.16,28.41,28.41,0,0,0-16.2-8.37c-6.63-1-13,.34-19.53,1.56-2.79.53-5.8,1.09-8.62.48-3.06-.65-5.14-2.8-6.61-5.46a.76.76,0,0,0-1.4.37c.58,9.16,7.51,17.11,15.83,20.28a40.7,40.7,0,0,0,13.76,2.18,29.77,29.77,0,0,1,12.62,2.92c6.27,3.14,10.76,8.7,13.64,15a54.16,54.16,0,0,1,4.18,15c.07.51.72.64,1.1.45l5.61-2.86h-.76L84.15,92c.38.19,1,.06,1.1-.45,1.53-10.91,5.8-22.62,15.54-28.76a27.6,27.6,0,0,1,11.6-4c2.44-.28,4.9-.17,7.34-.36a36.73,36.73,0,0,0,7-1.16,25,25,0,0,0,15.34-11.37,23,23,0,0,0,3.23-9.79.75.75,0,0,0-1.4-.37,10.61,10.61,0,0,1-5,5,13.11,13.11,0,0,1-6.25.59c-5.42-.54-10.66-2.18-16.12-2.49a34.53,34.53,0,0,0-11,1.1.75.75,0,0,0,.4,1.44c6.54-1.75,13.06-1,19.61.24,4.48.88,9.65,2.31,14.07.45a12.15,12.15,0,0,0,5.68-5.58l-1.4-.38a14.86,14.86,0,0,1-.38,2.32,24.58,24.58,0,0,1-2.09,5.71A23.43,23.43,0,0,1,126.6,55.73a35.85,35.85,0,0,1-7,1.2c-2.49.18-5,.07-7.48.38A29.53,29.53,0,0,0,100.81,61c-5.9,3.44-10.17,9-12.9,15.22a55.85,55.85,0,0,0-4.1,14.91l1.1-.45-3-1.54-1.94-1a2.62,2.62,0,0,0-1-.43,2.62,2.62,0,0,0-1,.43l-1.83.93-3.14,1.59,1.1.45c-1.51-10.76-5.66-22-14.74-28.65A27.93,27.93,0,0,0,48.7,57.8c-4.71-1-9.54-.5-14.28-1.35-6.91-1.23-13.26-4.72-17-10.78a22.58,22.58,0,0,1-3.35-9.58l-1.4.38A12.21,12.21,0,0,0,18,41.91a13.46,13.46,0,0,0,6.85.93c6.16-.52,12.06-2.52,18.28-2.59a27.77,27.77,0,0,1,18.62,6.37,45.5,45.5,0,0,1,10.46,14c2.3,4.46,4,9.16,6,13.72a.76.76,0,0,0,1.3,0c1.92-4.26,3.5-8.66,5.6-12.85,2.75-5.49,6.18-10.8,10.9-14.82a25.77,25.77,0,0,1,9.75-5.26A.75.75,0,0,0,105.42,39.92Z"/><path class="cls-5" d="M134.94,48.86a19.85,19.85,0,0,1-7.72,4.41,28,28,0,0,1-9.53.76c-5-.2-11.55-.69-15.32,3.3-.26.28.08.78.43.55A16.75,16.75,0,0,1,110.91,55c3.12-.27,6.25.08,9.37.11,5.81,0,10.89-1.72,14.74-6.18a.05.05,0,0,0-.08-.07Z"/><path class="cls-5" d="M108.4,50.48a27.81,27.81,0,0,0-16.5,9,35.44,35.44,0,0,0-5.55,8.18A28.62,28.62,0,0,0,83.28,77c0,.42.58.45.71.1A84,84,0,0,1,87.3,68a34.6,34.6,0,0,1,5.35-8,30.81,30.81,0,0,1,15.78-9.4c.06,0,0-.1,0-.09Z"/><path class="cls-5" d="M123.47,44.6c-6.38-.8-12.93-1.05-19.2.64C99.56,46.5,94,49,91.3,53.35c-.18.29.22.58.47.36a35.49,35.49,0,0,1,5.92-4.88,28.12,28.12,0,0,1,7.35-3c6-1.55,12.3-1.34,18.43-1a.1.1,0,0,0,0-.19Z"/><path class="cls-5" d="M22.82,48.93c3.85,4.46,8.93,6.22,14.74,6.18,3,0,6.11-.37,9.17-.12A16.84,16.84,0,0,1,55,57.88c.34.23.69-.27.43-.55-3.77-4-10.36-3.5-15.32-3.3a28.27,28.27,0,0,1-9.53-.76,19.72,19.72,0,0,1-7.72-4.41.05.05,0,0,0-.08.07Z"/><path class="cls-5" d="M49.41,50.57A30.77,30.77,0,0,1,65.19,60a34.24,34.24,0,0,1,5.25,7.84,79,79,0,0,1,3.41,9.3c.13.35.76.33.71-.1a28.62,28.62,0,0,0-3.07-9.33,35.44,35.44,0,0,0-5.55-8.18,27.81,27.81,0,0,0-16.5-9c-.06,0-.09.07,0,.09Z"/><path class="cls-5" d="M34.37,44.79c6.13-.32,12.44-.53,18.43,1A28.22,28.22,0,0,1,60,48.73a35.06,35.06,0,0,1,6.09,5c.24.22.65-.07.47-.36-2.67-4.31-8.26-6.85-13-8.11-6.27-1.69-12.82-1.44-19.2-.64a.1.1,0,0,0,0,.19Z"/><path class="cls-5" d="M78.92,87.08a10.43,10.43,0,0,0-9,6s1.88,11.87,9,13.44C86.07,104.9,88,93,88,93A10.43,10.43,0,0,0,78.92,87.08Z"/><g class="cls-14"><path class="cls-15" d="M78.08,104a24.31,24.31,0,0,1-4.34-9c-.08-.38-.16-.76-.23-1.14a1.32,1.32,0,0,1,0-.94,1.7,1.7,0,0,1,.5-.38,16.06,16.06,0,0,1,2.21-1.34,8.92,8.92,0,0,1,2.61-.87c.85-.14,1.72.15,2.54,0a.39.39,0,0,0,.17-.65,3.59,3.59,0,0,0-2.62-.39,10,10,0,0,0-2.79.81,16.14,16.14,0,0,0-2.75,1.62,1.84,1.84,0,0,0-1,2.1,17.81,17.81,0,0,0,5.46,10.38c.1.08.28,0,.19-.15Z"/></g></g></g></g></svg>